<svg xmlns="http://www.w3.org/2000/svg" xmlns:xlink="http://www.w3.org/1999/xlink" viewBox="0 0 1368.5 437.45"><defs><style>.cls-1{fill:#699369;}.cls-2{fill:#638763;}.cls-3{opacity:0.65;fill:url(#linear-gradient);}.cls-4{fill:#7aa57a;}.cls-5{fill:#72a372;}.cls-6{fill:#73a073;}.cls-7{fill:#415441;}.cls-8{fill:#6e996e;}.cls-9{fill:#6d996d;}.cls-10{fill:#8faa8f;}.cls-11{fill:#fff;}</style><linearGradient id="linear-gradient" x1="685" x2="685" y2="219" gradientUnits="userSpaceOnUse"><stop offset="0.03" stop-color="#fef3f2" stop-opacity="0"/><stop offset="0.16" stop-color="#f9c9c3" stop-opacity="0.3"/><stop offset="0.31" stop-color="#f8beb7" stop-opacity="0.7"/><stop offset="0.36" stop-color="#f7bab3" stop-opacity="0.8"/><stop offset="0.54" stop-color="#f6b2aa" stop-opacity="0.8"/><stop offset="0.62" stop-color="#f8c1bb" stop-opacity="0.7"/><stop offset="0.69" stop-color="#f9c8c2" stop-opacity="0.41"/><stop offset="0.77" stop-color="#f9ccc6" stop-opacity="0.32"/><stop offset="0.82" stop-color="#fad0cb" stop-opacity="0.2"/><stop offset="0.9" stop-color="#fcdedb" stop-opacity="0.1"/><stop offset="1" stop-color="#fff" stop-opacity="0"/></linearGradient></defs><title>hills</title><g id="Layer_4" data-name="Layer 4"><path class="cls-1" d="M902.5,457.46c17.54-4,30.94,3.16,48.27,4.13,18.28,1,36.67-3.39,54-9.34,27.33-9.36,53.81-22.78,82.18-26.81,12-1.7,24.12-1.78,36-4.19,11.67-2.37,22.34-8.81,33.55-12.73a231.25,231.25,0,0,1,38.59-9.83c27.16-4.48,53-2.29,80.09.39,20.95,2.07,42,5.28,62.77.59a113.51,113.51,0,0,0,27.93-10.46c.24,113.26,0,226.53,0,339.79" transform="translate(1.5 -331)"/><path class="cls-2" d="M1123,422.49c.1.6,1.7.56,5,1.08,0,0,1.44.23,9,2.17,47.79,12.32,100.58,42.3,100.58,42.3,24.76,14.06,64.07,30.39,126.48,38l1-115.47c-12.34,5.52-25.4,9.66-38.72,11-23,2.38-45.64-3.71-68.46-5.7a214.63,214.63,0,0,0-52.16,1.67,328.76,328.76,0,0,0-43.38,10.37c-6.44,1.94-12.85,4-19.22,6.16,0,0-3.61,1.16-9.19,3.26C1123.76,421.15,1122.92,422,1123,422.49Z" transform="translate(1.5 -331)"/><polyline class="cls-1" points="904 123 903.5 384.75 1356.5 384.75"/></g><g id="Layer_3" data-name="Layer 3"><rect class="cls-3" x="1.5" width="1367" height="219"/></g><g id="Layer_1" data-name="Layer 1"><path class="cls-4" d="M-.25,768.45H1366V727.32c-35.13-23.45-64.51-29.86-85-31.32-17.87-1.27-81-2.49-104.85-11.77-7-2.71-13.07-5.83-13.07-5.83-11.85-6.31-18.08-13-47.36-28.23-43.15-22.38-52.58-18.95-72.86-35-26.15-20.74-43.22-51.63-62.42-79.38-16.84-24.33-37.22-39.31-56.76-60-20.1-21.27-26.85-51.61-45.66-73.7-21.82-25.62-61-39.14-90.58-50.52-26.78-10.29-52.94-2.37-80.09,1.14-44.83,5.8-86.94-4-131.37-4.73-17.87-.28-35.08,5-53,5.18-36,.34-68.47-9.87-104.53-3.21-16.7,3.09-28.48,9.9-43.38,16.34-24.49,10.57-44,1.91-68.72.55-20.15-1.12-42.62-2.25-63.43,1.29-21.11,3.59-40.16,20.66-61.07,10.89C153.25,365.65,86.15,330.73,58,359.58c-3.32,3.4-5.26,8.24-8.82,11.32C35.41,382.8,13,373.41.12,391.33c-.18.25-.31.46-.37.57" transform="translate(1.5 -331)"/><path class="cls-4" d="M-1.5,438.49q0,.17,0,.33V637.25" transform="translate(1.5 -331)"/><path class="cls-4" d="M-1.5,678.75V725.5" transform="translate(1.5 -331)"/><path class="cls-5" d="M707,352.53C829.33,514.17,996.63,603.61,996.63,603.61l70.83,24.59c-48-33.78-51.21-42.52-51.21-42.52L967,519.07l-42.14-39.51-12.71-16.5a174.36,174.36,0,0,0-42-67.3,179.77,179.77,0,0,0-74.59-43.83C764.75,342.8,737.75,346.59,707,352.53Z" transform="translate(1.5 -331)"/><path class="cls-5" d="M1134,704,880,583,599,444.34C707.27,529.28,800.08,581,861,611c70.13,34.54,123.09,52.66,139.78,58.23A1037.39,1037.39,0,0,0,1134,704Z" transform="translate(1.5 -331)"/><polygon class="cls-5" points="608.5 122.83 569.5 65 687.5 65 827.5 192 698.75 168.31 608.5 122.83"/><path class="cls-5" d="M764.92,545.64,656,511H580c217,52.74,249,73.51,249,73.51Z" transform="translate(1.5 -331)"/><path class="cls-5" d="M491.81,383.22c-3,.71,6,87.44,50.19,179.78,14.37,30,26.58,55,52,82,37.95,40.33,79.42,57.65,100,66,52.31,21.21,108.14,27.42,110,21,2.16-7.44-72.26-17.82-149-76.18C581.33,599.8,545.48,530,533,505,498.71,436.43,494.2,382.67,491.81,383.22Z" transform="translate(1.5 -331)"/><path class="cls-5" d="M210.35,768.07A500.28,500.28,0,0,0,221,634a500.24,500.24,0,0,0-24-127.62c-6.91,28.68-13.18,60.31-18,94.62-4,28.67-6.55,55.77-8,81-13.53-15.16-33.86-38.26-58-67C55.23,546.22,24.36,503.15,19,506.38c-1.37.83.36,5,12.62,37.29A503,503,0,0,0,90.07,654.61C122.74,701,163.12,737.14,210.35,768.07Z" transform="translate(1.5 -331)"/><path class="cls-5" d="M.5,619.2C8,685,65.62,768,65.62,768L0,767.45Z" transform="translate(1.5 -331)"/><path class="cls-5" d="M308,460.23c72,146.14,72,176.91,72,176.91,0,68.13-25.39,131.31-25.39,131.31h-55.5c-1.3,0-12.23-27.52-13.25-29.71-5.78-12.44-11.6-25-14.59-38.46-5.41-24.39,1.41-49.36,3.49-73.73Q278.9,578,283,529.46c9,72.52,28,84.61,28,84.61-3-153.83-6-163.72-6-163.72" transform="translate(1.5 -331)"/><path class="cls-5" d="M370,600.43c2.66-1.53,24.12,66.66,80.09,91A104.36,104.36,0,0,0,477,699c6.15-41.71,5.75-60.92,5.75-60.92-.19-10.13-1.19-33.56-18.75-102.27-4.54-17.78-11.12-42.21-20-71.19,17.59,48.16,31.25,86.76,40,111.71,25.17,71.75,35.55,104.25,61.42,145a398.82,398.82,0,0,0,34.17,46.14L522,768c-29.44-10.24-75.65-32-112-80C377.76,645.5,367.92,601.63,370,600.43Z" transform="translate(1.5 -331)"/><path class="cls-6" d="M177,377a221,221,0,0,1,39,45c27.3,41.91,32.27,81.64,35,81,2.37-.56-.39-30.93-11-64a275.85,275.85,0,0,0-27.89-60.49A32.17,32.17,0,0,1,177,377Z" transform="translate(1.5 -331)"/><path class="cls-7" d="M-97,316" transform="translate(1.5 -331)"/><path class="cls-5" d="M345,373a268.82,268.82,0,0,0,27,29c24.82,23,54.65,41.75,55,42h0c-60-57-59.16-73.1-59.16-73.1h0" transform="translate(1.5 -331)"/><path class="cls-5" d="M818.34,520.82c70.53,18.6,87.53,20.45,87.53,20.45L751.89,395c-31.79,0-48.46.53-57.89,1l-19.08,1h0" transform="translate(1.5 -331)"/><path class="cls-8" d="M314,777" transform="translate(1.5 -331)"/><path class="cls-2" d="M1305,440" transform="translate(1.5 -331)"/><path class="cls-5" d="M-192,1187" transform="translate(1.5 -331)"/><path class="cls-5" d="M200,1079" transform="translate(1.5 -331)"/><path class="cls-9" d="M1133.84,704.3,922.83,605,689.8,492.7A1632.48,1632.48,0,0,0,903.89,616.9c58.17,28,102.77,45,116.84,50.28C1064.42,683.57,1103.33,695.66,1133.84,704.3Z" transform="translate(1.5 -331)"/><path class="cls-9" d="M298,768a516.33,516.33,0,0,0,40-91.58A513.58,513.58,0,0,0,360,575a296.45,296.45,0,0,1,3.66,193Z" transform="translate(1.5 -331)"/><path class="cls-9" d="M563.28,767.95a17,17,0,0,0-1.13-3.81c-11.56-18.26-22.94-37.65-32.09-57.61-1.48-3.24-14.34-43.78-19.06-42.53-4.25,1.12,13.71,53.77-4,66-16.09,11.11-55.72-16.73-55.81-16.6s.06.06.06.06C454.34,715.33,476.1,741,510,757c.72.34,18.07,6.44,31.45,11l.7.24" transform="translate(1.5 -331)"/><path class="cls-9" d="M1.5,641.31C46,773.27,79,765.93,79,765.93a604.12,604.12,0,0,1-39.81-57.34C21.32,679.36,1.5,641.31,1.5,641.31Z" transform="translate(1.5 -331)"/><path class="cls-9" d="M120,953" transform="translate(1.5 -331)"/><path class="cls-9" d="M733,348.17A930,930,0,0,0,882,467c26.3,16.87,51.93,31.43,76.38,44C912,463,912,465,912,465h0c-24-74-83-99.33-83-99.33A151,151,0,0,0,769,347,148.52,148.52,0,0,0,733,348.17Z" transform="translate(1.5 -331)"/><path class="cls-9" d="M-168-54" transform="translate(1.5 -331)"/><path class="cls-10" d="M59,459q77,3.56,160,4,86.12.33,166-3a921.93,921.93,0,0,0-326-1Z" transform="translate(1.5 -331)"/><path class="cls-11" d="M109.54,454.51V439.17h-4.46v15.34H95.54V414.23h9.54v15.42h4.46V414.23h9.54v40.28Z" transform="translate(1.5 -331)"/><path class="cls-11" d="M140,450.08H128.38l-6-5.93V415.71l6-5.93H140l5.93,5.93v28.44Zm-3.61-30.79H132v21.27h4.46Z" transform="translate(1.5 -331)"/><path class="cls-11" d="M149.3,450.65V410.32h9.54v30.82H170v9.52Z" transform="translate(1.5 -331)"/><path class="cls-11" d="M171.7,450.65V410.32h9.54v30.82h11.18v9.52Z" transform="translate(1.5 -331)"/><path class="cls-11" d="M210.33,435.06v18.87h-9.52V435.06l-8.61-21.38h9.57l3.8,9.9,3.83-9.9H219Z" transform="translate(1.5 -331)"/><path class="cls-11" d="M248,455.05H238.2l-1.8-10.23-1.78,10.23h-9.87l-7.44-40.25h9.46l4,19.09,2.93-19.09h5.47l2.93,19.09,4-19.09h9.54Z" transform="translate(1.5 -331)"/><path class="cls-11" d="M273.31,450.08H261.66l-6-5.93V415.71l6-5.93h11.65l5.93,5.93v28.44Zm-3.61-30.79h-4.46v21.27h4.46Z" transform="translate(1.5 -331)"/><path class="cls-11" d="M300.18,450.08H288.54l-6-5.93V415.71l6-5.93h11.65l5.93,5.93v28.44Zm-3.61-30.79h-4.46v21.27h4.46Z" transform="translate(1.5 -331)"/><path class="cls-11" d="M327.06,453.38H309.45V413.13h17.61l5.93,5.93v28.45Zm-3.61-30.73H319v21.27h4.46Z" transform="translate(1.5 -331)"/><path class="cls-9" d="M541,768" transform="translate(1.5 -331)"/></g></svg>