<svg id="Layer_1" data-name="Layer 1" xmlns="http://www.w3.org/2000/svg" xmlns:xlink="http://www.w3.org/1999/xlink" viewBox="0 0 1366.91 669.4"><defs><style>.cls-1{fill:url(#linear-gradient);}</style><linearGradient id="linear-gradient" x1="683.45" y1="98.6" x2="683.45" y2="768" gradientUnits="userSpaceOnUse"><stop offset="0" stop-color="#ebbfff"/><stop offset="0" stop-color="#ddc1e7"/><stop offset="0.3" stop-color="#dac2d2"/><stop offset="0.49" stop-color="#d1c4b8"/><stop offset="0.85" stop-color="#cdc5ac"/><stop offset="1" stop-color="#cdc4af"/></linearGradient></defs><title>mountains</title><path class="cls-1" d="M1366.66,265.86q-.2-.92-.42-1.81c-2-8.12-5.38-14.07-10.73-16.05-8.31-3.07-18-2.53-25.31-7.55-9.44-6.49-12.58-20.81-23.47-24.38s-22.13,6.23-33.63,5.41c-5.22-.37-10.15-2.94-15.39-3-7.79-.05-34.58,19.7-37.86,22.71-10.63,9.76-28.27,5.59-40.31-1.18-12.41-7.52-21.66-19.14-31.52-29.78-29.15-31.47-65.14-55.65-100.78-79.54l-34.76-23.3c-6-4-12.45-8.23-19.71-8.75-33.69-2.42-55.29,59.74-78.2,77-4.48,3.38-9.17,6.61-12.71,11-3.1,3.82-5.2,8.36-8.12,12.32-11,14.85-28.11,12.85-43.59,18.91-43.43,17-60.6,50.57-90.35,82.54-6.13,6.6-10.54,16.59-17.69,20.83-3.95,2.34-8.73,2.93-15.11.23-6.86-2.91-13.06-8-20.5-8.46-8.31-.47-15.58,5-23,8.85-17.13,8.88-32.88-4-44.9-15.52-13.37-12.86-26.44-26.17-41.56-36.92C580.49,257.67,564,255.75,546,248.59s-34.2-25.74-54.8-13.86c-15.51,8.94-20.85,31.14-39.58,36-7.29,1.88-14.91,2.1-22.24,3.8-11.47,2.66-21.93,8.87-33.51,11-9.91,1.84-20.1.61-30.18.4-32.39-.68-58.85,17.11-90,18.52-8.6.39-17.59.49-25.19,4.54-11.36,6.06-23.26,19.21-37.11,18.27s-24.36-12.62-32.8-22.57c-3.32-3.92-5.69-9.59-10.25-12.3-6.22-3.7-13.06,1.61-19-2-11.13-6.88-14.65-19.08-30.08-19.29-5.22-.07-10.26,1.73-15.17,3.52l-23.63,8.58c-24.22,8.79-46.13,22.74-69.8,33.15-2.64,1.16-4.77,2.21-6.71,3.25-2.81,1.51-4,1.6-4.83,2.8-1.8,2.49-.86,6.16-.77,6.62,1.15,5.81,1,178.45,0,439.06H1366.51s.45-134.34.4-276.6V479q-.06-66.2-.38-132.39,0-.47,0-1" transform="translate(0 -98.6)"/></svg>