<?xml version="1.0" encoding="utf-8"?>
<!-- Generator: Adobe Illustrator 23.0.1, SVG Export Plug-In . SVG Version: 6.00 Build 0)  -->
<svg version="1.1" id="Layer_1" xmlns="http://www.w3.org/2000/svg" xmlns:xlink="http://www.w3.org/1999/xlink" x="0px" y="0px"
	 viewBox="0 0 1366.9 669.4" style="enable-background:new 0 0 1366.9 669.4;" xml:space="preserve">
<style type="text/css">
	.st0{fill:url(#SVGID_1_);}
</style>
<title>mountains</title>
<linearGradient id="SVGID_1_" gradientUnits="userSpaceOnUse" x1="682.635" y1="-2.877212e-02" x2="682.635" y2="669.48">
	<stop  offset="0" style="stop-color:#EBBFFF"/>
	<stop  offset="0" style="stop-color:#DDC1E7"/>
	<stop  offset="0.3" style="stop-color:#DAC2D2"/>
	<stop  offset="0.49" style="stop-color:#D1C4B8"/>
	<stop  offset="0.85" style="stop-color:#CDC5AC"/>
	<stop  offset="1" style="stop-color:#CDC4AF"/>
</linearGradient>
<path class="st0" d="M1363.1,156.8v512.7H2.2V222.8c0.8-0.5,2-0.9,3.8-1.8c1.9-1,4.1-2.1,6.7-3.2c23.7-10.4,45.6-24.4,69.8-33.2
	l23.6-8.6c4.9-1.8,9.9-3.6,15.2-3.5c15.4,0.2,19,12.4,30.1,19.3c5.9,3.6,12.8-1.7,19,2c4.6,2.7,6.9,8.4,10.2,12.3
	c8.4,9.9,18.9,21.6,32.8,22.6c13.8,0.9,25.8-12.2,37.1-18.3c7.6-4,16.6-4.2,25.2-4.5c31.2-1.4,57.6-19.2,90-18.5
	c10.1,0.2,20.3,1.4,30.2-0.4c11.6-2.1,22-8.3,33.5-11c7.3-1.7,15-1.9,22.2-3.8c18.7-4.9,24.1-27.1,39.6-36
	c20.6-11.9,36.8,6.7,54.8,13.9c18,7.2,34.5,9.1,51,20.8c15.1,10.8,28.2,24.1,41.6,36.9c12,11.5,27.8,24.4,44.9,15.5
	c7.4-3.9,14.7-9.3,23-8.9c7.4,0.5,13.6,5.6,20.5,8.5c6.4,2.7,11.2,2.1,15.1-0.2c7.2-4.2,11.6-14.2,17.7-20.8
	c29.8-32,46.9-65.5,90.4-82.5c15.5-6.1,32.6-4.1,43.6-18.9c2.9-4,5-8.5,8.1-12.3c3.5-4.4,8.2-7.6,12.7-11
	c22.9-17.3,44.5-79.4,78.2-77c7.3,0.5,13.7,4.8,19.7,8.8l34.8,23.3c35.6,23.9,71.6,48.1,100.8,79.5c9.9,10.6,19.1,22.3,31.5,29.8
	c12,6.8,29.7,10.9,40.3,1.2c3.3-3,30.1-22.8,37.9-22.7c5.2,0.1,10.2,2.6,15.4,3c11.5,0.8,22.7-9,33.6-5.4
	c10.9,3.6,14,17.9,23.5,24.4c7.3,5,17,4.5,25.3,7.6C1358.7,150.6,1361.2,153.2,1363.1,156.8z"/>
</svg>
