<svg xmlns="http://www.w3.org/2000/svg" xmlns:xlink="http://www.w3.org/1999/xlink" viewBox="0 0 1390.11 768.5"><defs><style>.cls-1{fill:#c1a69d;}.cls-2{fill:#514841;}.cls-3{fill:#bc8b71;}.cls-4{fill:#3a2618;}.cls-4,.cls-5,.cls-6{stroke:#fcda97;}.cls-17,.cls-26,.cls-27,.cls-39,.cls-4,.cls-40,.cls-45,.cls-5,.cls-6{stroke-linecap:round;}.cls-10,.cls-11,.cls-17,.cls-18,.cls-26,.cls-27,.cls-28,.cls-33,.cls-34,.cls-4,.cls-40,.cls-42,.cls-44,.cls-45,.cls-48,.cls-5,.cls-50,.cls-55,.cls-6,.cls-60,.cls-61,.cls-62,.cls-63,.cls-64,.cls-65,.cls-66,.cls-67,.cls-68,.cls-69,.cls-70,.cls-71,.cls-72,.cls-73,.cls-74,.cls-75,.cls-76,.cls-77,.cls-78,.cls-79,.cls-80,.cls-81,.cls-82,.cls-83,.cls-84,.cls-85,.cls-86,.cls-87,.cls-88,.cls-89,.cls-90{stroke-miterlimit:10;}.cls-33,.cls-34,.cls-4{stroke-width:8px;}.cls-11,.cls-17,.cls-26,.cls-27,.cls-39,.cls-40,.cls-44,.cls-45,.cls-5,.cls-55,.cls-6,.cls-60,.cls-61,.cls-62,.cls-63,.cls-64,.cls-65,.cls-66,.cls-67,.cls-68,.cls-69,.cls-70,.cls-71,.cls-72,.cls-73,.cls-74,.cls-75,.cls-76,.cls-77,.cls-78,.cls-79,.cls-80,.cls-81,.cls-82,.cls-83,.cls-84,.cls-85,.cls-86,.cls-87,.cls-88,.cls-89,.cls-90{fill:none;}.cls-27,.cls-28,.cls-40,.cls-5{stroke-width:4px;}.cls-17,.cls-18,.cls-6{stroke-width:5px;}.cls-18,.cls-7{fill:#c68458;}.cls-34,.cls-8{fill:#3a2513;}.cls-28,.cls-48,.cls-9{fill:#8e4626;}.cls-10{fill:#fcda97;}.cls-10,.cls-11{stroke:#8c513a;}.cls-10,.cls-11,.cls-26,.cls-42,.cls-44,.cls-45,.cls-50,.cls-55{stroke-width:2px;}.cls-12{fill:#e2ab49;}.cls-13{fill:#d3bcb6;}.cls-14{fill:#d3b9ae;}.cls-15{fill:#c27435;}.cls-16{fill:#b76732;}.cls-17{stroke:#3a2513;}.cls-18{stroke:#efc69a;}.cls-19{fill:#b25734;}.cls-20{fill:#9b482f;}.cls-21{fill:#cc9456;}.cls-22{fill:#c18952;}.cls-23{fill:#b27e4f;}.cls-24{fill:#28190d;}.cls-25{fill:#b57f4e;}.cls-26{stroke:#b57c48;}.cls-27{stroke:#3a2618;}.cls-28,.cls-48{stroke:#e5af9a;}.cls-29{fill:#e5af9a;}.cls-30{fill:url(#linear-gradient);}.cls-31{fill:url(#linear-gradient-2);}.cls-32,.cls-33{fill:#e2b79a;}.cls-33,.cls-34{stroke:#b28170;}.cls-35{fill:#c16136;}.cls-36{fill:#db9579;}.cls-37{fill:#844025;}.cls-38{fill:#bf7f6b;}.cls-39{stroke:#000;stroke-linejoin:round;stroke-width:0.5px;}.cls-40,.cls-44,.cls-45{stroke:#773b24;}.cls-41{fill:#562718;}.cls-42{fill:#cec1be;}.cls-42,.cls-50{stroke:#894a38;}.cls-43{fill:#bfb4b2;}.cls-46{fill:#773b24;}.cls-47{fill:#c98871;}.cls-48{stroke-width:7px;}.cls-49{fill:#c69c8f;}.cls-50{fill:#a08d8a;}.cls-51{fill:#d37854;}.cls-52{fill:#d88366;}.cls-53{fill:#a55130;}.cls-54{fill:url(#linear-gradient-3);}.cls-55{stroke:#b76732;}.cls-56{fill:url(#linear-gradient-4);}.cls-57{fill:url(#linear-gradient-5);}.cls-58{fill:#306025;}.cls-59{fill:#4b7c40;}.cls-60{stroke:url(#linear-gradient-6);}.cls-61{stroke:url(#linear-gradient-7);}.cls-62{stroke:url(#linear-gradient-8);}.cls-63{stroke:url(#linear-gradient-9);}.cls-64{stroke:url(#linear-gradient-10);}.cls-65{stroke:url(#linear-gradient-11);}.cls-66{stroke:url(#linear-gradient-12);}.cls-67{stroke:url(#linear-gradient-13);}.cls-68{stroke:url(#linear-gradient-14);}.cls-69{stroke:url(#linear-gradient-15);}.cls-70{stroke:url(#linear-gradient-16);}.cls-71{stroke:url(#linear-gradient-17);}.cls-72{stroke:url(#linear-gradient-18);}.cls-73{stroke:url(#linear-gradient-19);}.cls-74{stroke:url(#linear-gradient-20);}.cls-75{stroke:url(#linear-gradient-21);}.cls-76{stroke:url(#linear-gradient-22);}.cls-77{stroke:url(#linear-gradient-23);}.cls-78{stroke:url(#linear-gradient-24);}.cls-79{stroke:url(#linear-gradient-25);}.cls-80{stroke:url(#linear-gradient-26);}.cls-81{stroke:url(#linear-gradient-27);}.cls-82{stroke:url(#linear-gradient-28);}.cls-83{stroke:url(#linear-gradient-29);}.cls-84{stroke:url(#linear-gradient-30);}.cls-85{stroke:url(#linear-gradient-31);}.cls-86{stroke:url(#linear-gradient-32);}.cls-87{stroke:url(#linear-gradient-33);}.cls-88{stroke:url(#linear-gradient-34);}.cls-89{stroke:url(#linear-gradient-35);}.cls-90{stroke:url(#linear-gradient-36);}.cls-91{opacity:0.3;fill:url(#linear-gradient-37);}</style><linearGradient id="linear-gradient" x1="327.11" y1="499.21" x2="346.11" y2="499.21" gradientUnits="userSpaceOnUse"><stop offset="0" stop-color="#fff"/><stop offset="0" stop-color="#d7b2a0"/><stop offset="0" stop-color="#c59075"/><stop offset="1" stop-color="#b77655"/></linearGradient><linearGradient id="linear-gradient-2" x1="452.11" y1="499.21" x2="471.11" y2="499.21" xlink:href="#linear-gradient"/><linearGradient id="linear-gradient-3" x1="674.11" y1="516.79" x2="711.11" y2="516.79" gradientUnits="userSpaceOnUse"><stop offset="0" stop-color="#fff"/><stop offset="0" stop-color="#d9af93"/><stop offset="0" stop-color="#c78960"/><stop offset="1" stop-color="#b76732"/></linearGradient><linearGradient id="linear-gradient-4" x1="1015.11" y1="516.79" x2="1052.11" y2="516.79" xlink:href="#linear-gradient-3"/><linearGradient id="linear-gradient-5" x1="75.11" y1="695.5" x2="137.11" y2="695.5" gradientUnits="userSpaceOnUse"><stop offset="0" stop-color="#fff"/><stop offset="0" stop-color="#cbc0a9"/><stop offset="1" stop-color="#89713d"/></linearGradient><linearGradient id="linear-gradient-6" x1="103.23" y1="710.71" x2="125.33" y2="710.71" xlink:href="#linear-gradient-5"/><linearGradient id="linear-gradient-7" x1="104.23" y1="713.71" x2="126.33" y2="713.71" xlink:href="#linear-gradient-5"/><linearGradient id="linear-gradient-8" x1="104.23" y1="716.71" x2="126.33" y2="716.71" xlink:href="#linear-gradient-5"/><linearGradient id="linear-gradient-9" x1="105.23" y1="719.71" x2="127.33" y2="719.71" xlink:href="#linear-gradient-5"/><linearGradient id="linear-gradient-10" x1="102.23" y1="704.71" x2="124.33" y2="704.71" xlink:href="#linear-gradient-5"/><linearGradient id="linear-gradient-11" x1="103.23" y1="707.71" x2="125.33" y2="707.71" xlink:href="#linear-gradient-5"/><linearGradient id="linear-gradient-12" x1="101.22" y1="698.71" x2="122.34" y2="698.71" xlink:href="#linear-gradient-5"/><linearGradient id="linear-gradient-13" x1="102.25" y1="702.2" x2="122.29" y2="702.2" xlink:href="#linear-gradient-5"/><linearGradient id="linear-gradient-14" x1="105.23" y1="722.71" x2="127.33" y2="722.71" xlink:href="#linear-gradient-5"/><linearGradient id="linear-gradient-15" x1="106.23" y1="725.71" x2="128.33" y2="725.71" xlink:href="#linear-gradient-5"/><linearGradient id="linear-gradient-16" x1="106.23" y1="728.71" x2="128.33" y2="728.71" xlink:href="#linear-gradient-5"/><linearGradient id="linear-gradient-17" x1="107.23" y1="731.71" x2="129.33" y2="731.71" xlink:href="#linear-gradient-5"/><linearGradient id="linear-gradient-18" x1="107.23" y1="734.71" x2="129.33" y2="734.71" xlink:href="#linear-gradient-5"/><linearGradient id="linear-gradient-19" x1="108.23" y1="737.71" x2="130.33" y2="737.71" xlink:href="#linear-gradient-5"/><linearGradient id="linear-gradient-20" x1="108.23" y1="740.71" x2="130.33" y2="740.71" xlink:href="#linear-gradient-5"/><linearGradient id="linear-gradient-21" x1="108.23" y1="743.71" x2="130.33" y2="743.71" xlink:href="#linear-gradient-5"/><linearGradient id="linear-gradient-22" x1="108.23" y1="746.71" x2="130.33" y2="746.71" xlink:href="#linear-gradient-5"/><linearGradient id="linear-gradient-23" x1="109.23" y1="749.71" x2="131.33" y2="749.71" xlink:href="#linear-gradient-5"/><linearGradient id="linear-gradient-24" x1="109.23" y1="753.71" x2="131.33" y2="753.71" xlink:href="#linear-gradient-5"/><linearGradient id="linear-gradient-25" x1="110.23" y1="756.71" x2="132.33" y2="756.71" xlink:href="#linear-gradient-5"/><linearGradient id="linear-gradient-26" x1="110.23" y1="759.71" x2="132.33" y2="759.71" xlink:href="#linear-gradient-5"/><linearGradient id="linear-gradient-27" x1="110.23" y1="762.71" x2="132.33" y2="762.71" xlink:href="#linear-gradient-5"/><linearGradient id="linear-gradient-28" x1="110.23" y1="765.71" x2="132.33" y2="765.71" xlink:href="#linear-gradient-5"/><linearGradient id="linear-gradient-29" x1="99.23" y1="689.71" x2="121.33" y2="689.71" xlink:href="#linear-gradient-5"/><linearGradient id="linear-gradient-30" x1="100.23" y1="692.71" x2="122.33" y2="692.71" xlink:href="#linear-gradient-5"/><linearGradient id="linear-gradient-31" x1="100.23" y1="695.71" x2="122.33" y2="695.71" xlink:href="#linear-gradient-5"/><linearGradient id="linear-gradient-32" x1="98.23" y1="683.71" x2="120.33" y2="683.71" xlink:href="#linear-gradient-5"/><linearGradient id="linear-gradient-33" x1="99.23" y1="686.71" x2="121.33" y2="686.71" xlink:href="#linear-gradient-5"/><linearGradient id="linear-gradient-34" x1="98.25" y1="681.2" x2="118.29" y2="681.2" xlink:href="#linear-gradient-5"/><linearGradient id="linear-gradient-35" x1="95.23" y1="674.71" x2="117.33" y2="674.71" xlink:href="#linear-gradient-5"/><linearGradient id="linear-gradient-36" x1="96.23" y1="677.71" x2="118.33" y2="677.71" xlink:href="#linear-gradient-5"/><linearGradient id="linear-gradient-37" x1="-244.39" y1="537" x2="522.61" y2="537" gradientTransform="translate(554.5 -153.5)" gradientUnits="userSpaceOnUse"><stop offset="0" stop-color="#ffccdc"/><stop offset="0.22" stop-color="#ffb9d1" stop-opacity="0.76"/><stop offset="0.6" stop-color="#ff98bd" stop-opacity="0.36"/><stop offset="0.87" stop-color="#ff83b1" stop-opacity="0.1"/><stop offset="1" stop-color="#ff7bac" stop-opacity="0"/></linearGradient></defs><title>usc</title><g id="Layer_15" data-name="Layer 15"><polyline class="cls-1" points="998.11 465.19 1184.11 465.19 1184.11 590.26 945.11 600.27 943.11 535.23"/><path class="cls-2" d="M984.11,432.17h205l-1,33h-195q-2.5-15.51-5-31"/><path class="cls-3" d="M970.13,410.53h0c11-2.37,16.72,0,16.72,0h0"/><path class="cls-2" d="M1257.11,432.17c132,0,132,.33,132,.33v20.68h-132Z"/><line class="cls-4" x1="1219.11" y1="205.53" x2="1219.11" y2="244.06"/><ellipse class="cls-5" cx="1217.61" cy="175.52" rx="28" ry="28.02"/><path class="cls-6" d="M1190.11,171.5c10.17,2.59,20.66,3.05,30.82.14,7.53-2.16,14.44-5.81,21.57-9"/><path class="cls-6" d="M1192.11,185.5c30.15,12,53.5-8.12,53.5-8.12"/><path class="cls-5" d="M1208.31,149.09c-4.7,34.43,9.3,54.44,9.3,54.44"/><path class="cls-5" d="M1214,149c7.63,34.2,13,52,13,52"/><path class="cls-5" d="M1234.27,198c13.34-19.51-10.66-48.51-10.66-48.51"/><path class="cls-6" d="M1199.3,154.33c-6.69,28.19,8,47.26,8,47.26"/><path class="cls-7" d="M1132.1,558.25c-.57-.29-.81-6.42-.87-15-.14-21.38.87-58,.87-58l20.92-39,21.92,39H1341.3l47.81-32V669.31h-257"/><polygon class="cls-8" points="1152.03 446.18 1175.13 485.2 1342.89 485.2 1390.11 453.18 1188.19 453.18 1152.03 446.18"/><polygon class="cls-9" points="1137.11 489.31 1151.11 464.19 1166.11 489.31 1166.11 570.25 1137.11 570.25 1137.11 489.31"/><rect class="cls-9" x="1177.11" y="522.22" width="171" height="10.01"/><rect class="cls-9" x="1177.11" y="538.23" width="171" height="10.01"/><rect class="cls-9" x="1177.11" y="555.24" width="171" height="10.01"/><rect class="cls-9" x="1178.11" y="573.25" width="171" height="10.01"/><rect class="cls-9" x="1177.11" y="592.27" width="171" height="10.01"/><rect class="cls-9" x="1177.11" y="506.21" width="171" height="10.01"/><rect class="cls-9" x="1177.11" y="490.21" width="171" height="10.01"/><path class="cls-10" d="M1359.23,490.21c14.94-26,28.39-23.52,28.39-23.52v23.52Z"/><rect class="cls-10" x="1359.23" y="506.21" width="28.89" height="46.03"/><line class="cls-11" x1="1366.2" y1="506.21" x2="1366.2" y2="552.24"/><line class="cls-11" x1="1359.23" y1="516.22" x2="1388.11" y2="516.22"/><line class="cls-11" x1="1359.23" y1="543.24" x2="1387.12" y2="543.24"/><rect class="cls-10" x="1359.23" y="565.25" width="28.89" height="46.03"/><line class="cls-11" x1="1366.2" y1="565.25" x2="1366.2" y2="611.28"/><line class="cls-11" x1="1359.23" y1="575.26" x2="1388.11" y2="575.26"/><line class="cls-11" x1="1359.23" y1="602.27" x2="1387.12" y2="602.27"/><path class="cls-12" d="M956.11,439.17h43c-2-35-23-31-23-31C954.11,414.16,956.11,439.17,956.11,439.17Z"/><rect class="cls-13" x="956.11" y="439.17" width="43" height="22.01"/><rect class="cls-1" x="953.11" y="460.19" width="49" height="6"/><rect class="cls-13" x="949.11" y="466.19" width="56" height="6"/><rect class="cls-1" x="947.11" y="472.19" width="60" height="6"/><polygon class="cls-13" points="947.11 478.2 939.11 488.81 939.11 565.25 1015.11 565.25 1015.11 499.43 1007.11 478.2 947.11 478.2"/><rect class="cls-14" x="956.11" y="436.17" width="43" height="6"/><path class="cls-8" d="M968.61,411.42a42.76,42.76,0,0,1,19.5-.26,17,17,0,0,0-2-2,14.84,14.84,0,0,0-3.26-2.14,11.46,11.46,0,0,0-6.92-.81A16.86,16.86,0,0,0,968.61,411.42Z"/><rect class="cls-8" x="977.11" y="398.15" width="3" height="9.01"/><circle class="cls-8" cx="978.61" cy="394.65" r="4.5"/><rect class="cls-8" x="977.11" y="382.14" width="3" height="9.01"/><path class="cls-8" d="M978.64,372.33c-.17-.17-2.43.94-3.34,3.16s-.61,5.5,1.75,7,4.94.15,5.23,0a6.61,6.61,0,0,0,3.34-4.92c-2.1,2.22-5,2.67-6.83,1.43a4.16,4.16,0,0,1-1.74-3.49C977.15,373.63,978.79,372.48,978.64,372.33Z"/><rect class="cls-2" x="962.11" y="440.18" width="4" height="17.01"/><rect class="cls-2" x="969.11" y="440.18" width="4" height="17.01"/><rect class="cls-2" x="976.11" y="440.18" width="4" height="17.01"/><rect class="cls-2" x="983.11" y="440.18" width="4" height="17.01"/><rect class="cls-2" x="990.11" y="440.18" width="4" height="17.01"/><rect class="cls-9" x="1075.11" y="595.27" width="171" height="10.01"/><rect class="cls-9" x="1075.11" y="595.27" width="171" height="10.01"/><rect class="cls-9" x="1178.11" y="610.28" width="171" height="10.01"/><polygon class="cls-15" points="761.11 553.24 761.11 244.06 948.11 244.06 952.11 577.26 761.11 577.26 761.11 553.24"/><polygon class="cls-16" points="761.11 244.06 712.11 257.07 712.11 572.25 761.11 577.26 761.11 244.06"/><line class="cls-17" x1="782.11" y1="565.25" x2="780.11" y2="254.06"/><line class="cls-17" x1="793.11" y1="565.25" x2="791.11" y2="254.06"/><line class="cls-17" x1="803.11" y1="565.25" x2="801.11" y2="254.06"/><line class="cls-17" x1="814.11" y1="565.25" x2="812.11" y2="254.06"/><line class="cls-17" x1="824.11" y1="565.25" x2="822.11" y2="254.06"/><line class="cls-17" x1="835.11" y1="565.25" x2="833.11" y2="254.06"/><line class="cls-17" x1="845.11" y1="565.25" x2="843.11" y2="254.06"/><line class="cls-17" x1="856.11" y1="565.25" x2="854.11" y2="254.06"/><line class="cls-17" x1="867.11" y1="565.25" x2="865.11" y2="254.06"/><line class="cls-17" x1="878.11" y1="565.25" x2="876.11" y2="254.06"/><line class="cls-17" x1="888.11" y1="565.25" x2="886.11" y2="254.06"/><line class="cls-17" x1="899.11" y1="565.25" x2="897.11" y2="254.06"/><line class="cls-17" x1="910.11" y1="565.25" x2="908.11" y2="254.06"/><line class="cls-17" x1="921.11" y1="565.25" x2="919.11" y2="254.06"/><line class="cls-17" x1="931.11" y1="565.25" x2="929.11" y2="254.06"/><line class="cls-17" x1="941.11" y1="564.25" x2="939.11" y2="253.06"/><path class="cls-18" d="M1212.61,591.27l-5-373.23c22,10,48,0,48,0l2,374.23Z"/><path class="cls-18" d="M1183.47,218.45a.58.58,0,0,0-.37.59c.13,5.48.21,10.94.24,16.42l.12,17.12.15,21.7.17,25.4L1184,328l.2,30.26.22,31.42.21,31.7.22,31.14.2,29.72.19,27.44.16,24.31.14,20.32.11,15.48.06,9.79,0,3.23,22.89,0L1203.23,218a24.59,24.59,0,0,1-8.42,2.18,20.8,20.8,0,0,1-6.33-.7C1187.64,219.3,1184.54,218,1183.47,218.45Z"/><polygon class="cls-19" points="312.11 568.25 312.11 357.13 489.1 357.13 490.11 599.27 312.11 599.27 312.11 568.25"/><polygon class="cls-20" points="312.11 357.13 290.11 362.13 290.11 586.26 312.61 586.26 312.11 357.13"/><rect class="cls-21" x="312.11" y="342.12" width="177" height="16.01"/><polygon class="cls-22" points="290.11 348.12 290.11 362.13 312.11 358.13 312.11 342.12 290.11 348.12"/><polygon class="cls-23" points="290.11 348.12 284.11 340.12 312.11 331.11 312.11 342.12 290.11 348.12"/><polygon class="cls-22" points="312.11 331.11 496.11 331.11 489.11 342.12 312.11 342.12 312.11 331.11"/><polygon class="cls-8" points="312.11 331.11 391.11 273.07 496.11 331.11 312.11 331.11"/><polyline class="cls-24" points="312.11 331.11 284.11 340.12 391.11 273.07"/><path class="cls-25" d="M314.36,358.13l-.25-10c-.15-5.82,10-6.38,10,0v10Z"/><path class="cls-25" d="M327.36,358.13l-.25-10c-.15-5.82,10-6.38,10,0v10Z"/><path class="cls-25" d="M341.36,358.13l-.25-10c-.15-5.82,10-6.38,10,0v10Z"/><path class="cls-25" d="M355.36,358.13l-.25-10c-.15-5.82,10-6.38,10,0v10Z"/><path class="cls-25" d="M368.36,358.13l-.25-10c-.15-5.82,10-6.38,10,0v10Z"/><path class="cls-25" d="M382.36,358.13l-.25-10c-.15-5.82,10-6.38,10,0v10Z"/><path class="cls-25" d="M396.36,358.13l-.25-10c-.15-5.82,10-6.38,10,0v10Z"/><path class="cls-25" d="M409.36,358.13l-.25-10c-.15-5.82,10-6.38,10,0v10Z"/><path class="cls-25" d="M423.36,358.13l-.25-10c-.15-5.82,10-6.38,10,0v10Z"/><path class="cls-25" d="M437.36,358.13l-.25-10c-.15-5.82,10-6.38,10,0v10Z"/><path class="cls-25" d="M450.36,358.13l-.25-10c-.15-5.82,10-6.38,10,0v10Z"/><path class="cls-25" d="M464.36,358.13l-.25-10c-.15-5.82,10-6.38,10,0v10Z"/><path class="cls-25" d="M477.36,358.13l-.25-10c-.15-5.82,10-6.38,10,0v10Z"/><line class="cls-26" x1="313.61" y1="340.62" x2="318.61" y2="333.61"/><line class="cls-26" x1="319.61" y1="340.62" x2="324.61" y2="333.61"/><line class="cls-26" x1="325.61" y1="340.62" x2="330.61" y2="333.61"/><line class="cls-26" x1="331.61" y1="340.62" x2="336.61" y2="333.61"/><line class="cls-26" x1="337.61" y1="340.62" x2="342.61" y2="333.61"/><line class="cls-26" x1="343.61" y1="340.62" x2="348.61" y2="333.61"/><line class="cls-26" x1="349.61" y1="340.62" x2="354.61" y2="333.61"/><line class="cls-26" x1="355.61" y1="340.62" x2="360.61" y2="333.61"/><line class="cls-26" x1="361.61" y1="340.62" x2="366.61" y2="333.61"/><line class="cls-26" x1="367.61" y1="340.62" x2="372.61" y2="333.61"/><line class="cls-26" x1="373.61" y1="340.62" x2="378.61" y2="333.61"/><line class="cls-26" x1="379.61" y1="340.62" x2="384.61" y2="333.61"/><line class="cls-26" x1="385.61" y1="340.62" x2="390.61" y2="333.61"/><line class="cls-26" x1="391.61" y1="340.62" x2="396.61" y2="333.61"/><line class="cls-26" x1="397.61" y1="340.62" x2="402.61" y2="333.61"/><line class="cls-26" x1="403.61" y1="340.62" x2="408.61" y2="333.61"/><line class="cls-26" x1="409.61" y1="340.62" x2="414.61" y2="333.61"/><line class="cls-26" x1="415.61" y1="340.62" x2="420.61" y2="333.61"/><line class="cls-26" x1="421.61" y1="340.62" x2="426.61" y2="333.61"/><line class="cls-26" x1="427.61" y1="340.62" x2="432.61" y2="333.61"/><line class="cls-26" x1="433.61" y1="340.62" x2="438.61" y2="333.61"/><line class="cls-26" x1="439.61" y1="340.62" x2="444.61" y2="333.61"/><line class="cls-26" x1="445.61" y1="340.62" x2="450.61" y2="333.61"/><line class="cls-26" x1="451.61" y1="340.62" x2="456.61" y2="333.61"/><line class="cls-26" x1="457.61" y1="340.62" x2="462.61" y2="333.61"/><line class="cls-26" x1="463.61" y1="340.62" x2="468.61" y2="333.61"/><line class="cls-26" x1="469.61" y1="340.62" x2="474.61" y2="333.61"/><line class="cls-26" x1="475.61" y1="340.62" x2="480.61" y2="333.61"/><line class="cls-26" x1="481.61" y1="340.62" x2="486.61" y2="333.61"/><line class="cls-26" x1="487.61" y1="340.62" x2="492.61" y2="333.61"/><line class="cls-27" x1="1223.01" y1="269.12" x2="1222.79" y2="235.21"/><line class="cls-27" x1="1233.01" y1="269.07" x2="1232.79" y2="235.16"/><line class="cls-27" x1="1243.01" y1="268.9" x2="1242.8" y2="234.99"/><line class="cls-27" x1="1194.61" y1="269.57" x2="1194.79" y2="235.26"/><path class="cls-20" d="M345.11,608.14q.19-25.26.41-50.52c.14-17.61.07-35-.12-52.55-.24-21.25,1.9-44.91,19.22-59.49,15-12.67,36.41-15.55,54.77-9,24.52,8.78,32.59,31.18,32.78,55.45l.42,54.9.52,68.32-108,1Z"/><path class="cls-28" d="M350,412.06l-.3-30.4c0-2.78,2.45-6.09,6.29-6.94,4.72-1,8.76,2.62,9.62,5.66l.31,31.53Z"/><path class="cls-28" d="M366.42,411.9l-.29-30.39c0-2.79,2.44-6.1,6.29-6.95,4.71-1,8.75,2.62,9.62,5.66l.3,31.53Z"/><path class="cls-28" d="M383.36,411.23l-.28-29.68c0-2.72,2.44-5.95,6.28-6.78A8.58,8.58,0,0,1,399,380.3l.3,30.78Z"/><path class="cls-28" d="M399.8,411.24l-.29-29.82c0-2.73,2.44-6,6.29-6.81a8.61,8.61,0,0,1,9.62,5.55l.3,30.92Z"/><path class="cls-28" d="M416.23,411.42l-.29-30.4c0-2.78,2.44-6.09,6.29-6.94,4.71-1,8.75,2.62,9.62,5.66l.3,31.53Z"/><path class="cls-28" d="M433.18,411.63l-.29-30.39c0-2.79,2.44-6.1,6.29-6.95,4.71-1,8.75,2.62,9.62,5.67l.3,31.52Z"/><rect class="cls-29" x="347.61" y="411.66" width="104" height="2.5"/><rect class="cls-30" x="327.11" y="416.16" width="19" height="166.1"/><rect class="cls-31" x="452.11" y="416.16" width="19" height="166.1"/><rect class="cls-32" x="449.11" y="410.16" width="25" height="8"/><rect class="cls-32" x="324.11" y="410.16" width="25" height="8"/><path class="cls-33" d="M358.11,590.53q.15-20.29.31-40.58c.11-14.15.06-28.1-.09-42.22-.18-17.07,1.44-36.08,14.55-47.8,11.38-10.17,27.57-12.49,41.47-7.21,18.56,7.06,24.67,25.06,24.81,44.56l.32,44.1.39,54.89-81.76.82Z"/><path class="cls-34" d="M358.76,614.67,357.7,505.34c-.09-10,6.15-21.9,15.91-24.9,12-3.68,22.27,9.49,24.5,20.46l1.09,113.38Z"/><path class="cls-34" d="M402,614.68l-1.05-109.33c-.1-10,5.72-21.9,14.84-24.9,11.17-3.67,20.8,9.51,22.89,20.48l1.09,113.38Z"/><ellipse class="cls-33" cx="399.11" cy="469.19" rx="14" ry="14.01"/><polygon class="cls-35" points="1388.61 654.05 1388.61 768 521.61 768 521.61 673.01 521.61 672.36 1388.61 654.05"/><path class="cls-36" d="M1388.61,639v15.09l-867,18.31V654.82l.32-.86.12,0Z"/><path class="cls-9" d="M1388.61,639,522.05,654l-.12,0,37.79-101.68,1.31-.54h604.69Z"/><path class="cls-37" d="M505.29,574.68l54.43-22.4L521.93,654,405.53,616Z"/><polygon class="cls-9" points="550.86 555.78 505.29 574.68 405.11 615.9 404.61 615.78 117.61 618.61 117.61 555.78 550.86 555.78"/><path class="cls-38" d="M405.53,616,521.93,654l-.32.86V673l-117-39.4,0-.82V616.42Z"/><polygon class="cls-19" points="521.61 673.01 521.61 768 409.61 768 404.64 633.61 521.61 673.01"/><polygon class="cls-9" points="505.29 574.68 405.53 616.04 405.11 615.9 505.29 574.68"/><polygon class="cls-35" points="404.64 633.61 409.61 768 117.61 766.99 117.61 618.61 404.61 615.78 405.11 615.9 405.53 616.04 404.61 616.42 404.61 632.79 404.61 633.6 404.64 633.61"/><path class="cls-39" d="M559.89,551.82l-.17.46"/><rect class="cls-35" x="96.11" y="619.5" width="28.5" height="149"/><line class="cls-40" x1="539.61" y1="615.78" x2="550.61" y2="649.8"/><line class="cls-40" x1="544.61" y1="603.77" x2="560.11" y2="648.3"/><line class="cls-40" x1="549.61" y1="589.76" x2="570.11" y2="648.3"/><line class="cls-40" x1="556.11" y1="583.26" x2="580.11" y2="648.3"/><line class="cls-40" x1="572.56" y1="556.61" x2="605.92" y2="646.91"/><line class="cls-40" x1="582.46" y1="555.22" x2="616" y2="646.77"/><line class="cls-40" x1="592.63" y1="555.71" x2="626.14" y2="647.03"/><line class="cls-40" x1="602.7" y1="555.56" x2="636.07" y2="645.9"/><line class="cls-40" x1="612.82" y1="555.69" x2="646.07" y2="645.18"/><line class="cls-40" x1="622.9" y1="555.54" x2="656.17" y2="645.17"/><line class="cls-40" x1="631.98" y1="555.52" x2="665.25" y2="645.15"/><line class="cls-40" x1="642.08" y1="555.51" x2="675.21" y2="644.16"/><line class="cls-40" x1="652.19" y1="555.64" x2="685.41" y2="644.85"/><line class="cls-40" x1="662.63" y1="554.71" x2="696.14" y2="646.03"/><line class="cls-40" x1="672.7" y1="554.56" x2="706.07" y2="644.9"/><line class="cls-40" x1="682.82" y1="554.69" x2="716.07" y2="644.18"/><line class="cls-40" x1="692.9" y1="554.54" x2="726.17" y2="644.17"/><line class="cls-40" x1="701.98" y1="554.52" x2="735.25" y2="644.15"/><line class="cls-40" x1="712.17" y1="555.15" x2="745.22" y2="643.2"/><line class="cls-40" x1="722.28" y1="555.26" x2="755.41" y2="643.88"/><line class="cls-40" x1="730.55" y1="553.85" x2="764" y2="644.79"/><line class="cls-40" x1="740.71" y1="554.33" x2="774.14" y2="645.04"/><line class="cls-40" x1="750.79" y1="554.17" x2="784.08" y2="643.9"/><line class="cls-40" x1="761.13" y1="555.91" x2="794.11" y2="643.47"/><line class="cls-40" x1="771.12" y1="555.15" x2="804.21" y2="643.43"/><line class="cls-40" x1="780.21" y1="555.12" x2="813.29" y2="643.4"/><line class="cls-40" x1="790.3" y1="555.09" x2="823.25" y2="642.4"/><line class="cls-40" x1="800.41" y1="555.19" x2="833.44" y2="643.07"/><line class="cls-40" x1="810.85" y1="554.26" x2="844.16" y2="644.21"/><line class="cls-40" x1="820.92" y1="554.09" x2="854.1" y2="643.07"/><line class="cls-40" x1="831.03" y1="554.19" x2="864.09" y2="642.34"/><line class="cls-40" x1="841.11" y1="554.02" x2="874.19" y2="642.31"/><line class="cls-40" x1="850.34" y1="555.1" x2="883.27" y2="642.28"/><line class="cls-40" x1="860.28" y1="553.96" x2="893.23" y2="641.28"/><line class="cls-40" x1="870.4" y1="554.06" x2="903.42" y2="641.94"/><line class="cls-40" x1="878.28" y1="553.92" x2="911.22" y2="641.24"/><line class="cls-40" x1="888.39" y1="554.03" x2="921.42" y2="641.9"/><line class="cls-40" x1="899.15" y1="555.42" x2="932.14" y2="643.07"/><line class="cls-40" x1="909.22" y1="555.22" x2="942.08" y2="641.92"/><line class="cls-40" x1="919.33" y1="555.29" x2="952.07" y2="641.18"/><line class="cls-40" x1="929.65" y1="556.9" x2="962.24" y2="641.68"/><line class="cls-40" x1="938.73" y1="556.83" x2="971.32" y2="641.6"/><line class="cls-40" x1="948.81" y1="556.74" x2="981.27" y2="640.58"/><line class="cls-40" x1="958.92" y1="556.79" x2="991.45" y2="641.17"/><line class="cls-40" x1="967.19" y1="555.39" x2="1000.03" y2="641.97"/><line class="cls-40" x1="977.34" y1="555.78" x2="1010.15" y2="642.15"/><line class="cls-40" x1="987.41" y1="555.56" x2="1020.09" y2="641"/><line class="cls-40" x1="997.51" y1="555.61" x2="1030.08" y2="640.25"/><line class="cls-40" x1="1007.58" y1="555.39" x2="1040.17" y2="640.16"/><line class="cls-40" x1="1015.98" y1="550.52" x2="1049.25" y2="640.15"/><line class="cls-40" x1="1026.08" y1="550.51" x2="1059.21" y2="639.16"/><line class="cls-40" x1="1036.19" y1="550.63" x2="1069.41" y2="639.85"/><line class="cls-40" x1="1045.65" y1="555.9" x2="1081.18" y2="641.3"/><line class="cls-40" x1="1055.72" y1="555.55" x2="1091.09" y2="640.03"/><line class="cls-40" x1="1065.84" y1="555.46" x2="1101.07" y2="639.14"/><line class="cls-40" x1="1075.91" y1="555.1" x2="1111.16" y2="638.91"/><line class="cls-40" x1="1084.99" y1="554.9" x2="1120.25" y2="638.71"/><line class="cls-40" x1="1095.08" y1="554.67" x2="1130.18" y2="637.57"/><line class="cls-40" x1="1105.2" y1="554.58" x2="1140.39" y2="638"/><line class="cls-40" x1="1115.3" y1="553.98" x2="1151.8" y2="637.67"/><line class="cls-40" x1="1125.42" y1="553.78" x2="1161.69" y2="636.27"/><line class="cls-40" x1="1137.26" y1="555.8" x2="1173.66" y2="639.04"/><line class="cls-40" x1="1147.32" y1="555.32" x2="1183.75" y2="638.69"/><line class="cls-40" x1="1156.4" y1="555" x2="1192.83" y2="638.37"/><line class="cls-40" x1="1167.81" y1="556.89" x2="1202.74" y2="636.85"/><line class="cls-40" x1="1178.3" y1="558.8" x2="1212.96" y2="637.18"/><line class="cls-40" x1="1190.04" y1="565.5" x2="1223.21" y2="635.51"/><line class="cls-40" x1="1203.19" y1="570.26" x2="1235.03" y2="636.47"/><line class="cls-40" x1="1216.27" y1="574.97" x2="1245.74" y2="636.35"/><line class="cls-40" x1="1228.22" y1="579.63" x2="1257.11" y2="637.29"/><line class="cls-40" x1="563.11" y1="556.24" x2="597.11" y2="648.3"/><line class="cls-40" x1="557.11" y1="565.25" x2="589.11" y2="648.3"/><polyline class="cls-41" points="522.03 653.2 522.11 657.88 1388.19 642.97 1388.11 638.29 522.03 653.2 409.61 617.2"/><rect class="cls-41" x="599.11" y="656.3" width="7" height="8"/><rect class="cls-41" x="553.11" y="656.3" width="7" height="8"/><rect class="cls-41" x="693.11" y="654.3" width="7" height="8"/><rect class="cls-41" x="647.11" y="654.3" width="7" height="8"/><rect class="cls-41" x="779.11" y="653.3" width="7" height="8"/><rect class="cls-41" x="733.11" y="653.3" width="7" height="8"/><rect class="cls-41" x="873.11" y="651.3" width="7" height="8"/><rect class="cls-41" x="827.11" y="651.3" width="7" height="8"/><rect class="cls-41" x="909.11" y="650.3" width="7" height="8"/><rect class="cls-41" x="1003.11" y="648.3" width="7" height="8"/><rect class="cls-41" x="957.11" y="648.3" width="7" height="8"/><rect class="cls-41" x="1089.11" y="647.3" width="7" height="8"/><rect class="cls-41" x="1043.11" y="647.3" width="7" height="8"/><rect class="cls-41" x="1183.11" y="645.3" width="7" height="8"/><rect class="cls-41" x="1137.11" y="645.3" width="7" height="8"/><rect class="cls-41" x="1270.11" y="644.3" width="7" height="8"/><rect class="cls-41" x="1224.11" y="644.3" width="7" height="8"/><rect class="cls-41" x="1364.11" y="642.3" width="7" height="8"/><rect class="cls-41" x="1318.11" y="642.3" width="7" height="8"/><polygon class="cls-42" points="544.11 673.32 596.1 672.31 596.11 731.35 544.11 733.35 544.11 673.32"/><polygon class="cls-42" points="675.21 670 622.9 671.08 622.9 730.69 675.21 729.6 675.21 670"/><polygon class="cls-42" points="751.11 728.42 750.71 669.07 803.11 668 803.11 726.97 751.11 728.42"/><polygon class="cls-42" points="888.2 725.13 888.2 665.72 937.98 664.69 937.98 724.09 888.2 725.13"/><polygon class="cls-42" points="966.46 663.84 966.46 723.5 1020.08 722.38 1020.08 663 966.46 663.84"/><polygon class="cls-42" points="1115.08 660.49 1115.08 720.34 1173.66 719.11 1173.66 659.27 1115.08 660.49"/><polygon class="cls-42" points="1264.62 658.31 1263.74 717.22 1315.61 716.13 1315.61 656.32 1264.62 658.31"/><rect class="cls-43" x="545.11" y="677.32" width="21" height="50.03"/><rect class="cls-43" x="629.11" y="674.67" width="21" height="49.75"/><rect class="cls-43" x="753.11" y="673.26" width="21" height="49.25"/><rect class="cls-43" x="890.11" y="669.8" width="21" height="49.62"/><rect class="cls-43" x="971.11" y="668.8" width="21" height="49.62"/><rect class="cls-43" x="1117.11" y="664.31" width="21" height="50.03"/><rect class="cls-43" x="1267.11" y="661.31" width="21" height="50.03"/><polygon class="cls-36" points="117.11 618.28 384.11 615.78 384.11 626.04 118.12 628.29 117.11 618.28"/><path class="cls-40" d="M122.45,559.45l21,54"/><path class="cls-40" d="M131.08,559.15l20.72,53.61"/><line class="cls-40" x1="390.19" y1="519.61" x2="422.72" y2="603.92"/><path class="cls-40" d="M140.42,559.35l21,54"/><path class="cls-40" d="M149.05,559.3l20.72,53.64"/><path class="cls-40" d="M157.39,559.51l21,54.08"/><path class="cls-40" d="M166,559.21l20.73,53.63"/><path class="cls-40" d="M175.36,559.41l21,54.08"/><path class="cls-40" d="M184,559.11l20.72,53.64"/><path class="cls-40" d="M192.39,559.75l21,54.09"/><path class="cls-40" d="M201,559.46l20.72,53.63"/><path class="cls-40" d="M210.36,559.66l21,54.08"/><path class="cls-40" d="M219,559.36,239.71,613"/><path class="cls-40" d="M227.33,559.56l21,54.09"/><path class="cls-40" d="M236,559.27l20.72,53.63"/><path class="cls-40" d="M245.3,559.46l21,54.09"/><path class="cls-40" d="M253.93,559.17l20.72,53.63"/><path class="cls-40" d="M264.34,558.86l21,54.08"/><path class="cls-40" d="M273,558.56l20.72,53.63"/><path class="cls-40" d="M282.31,558.76l21,54.08"/><path class="cls-40" d="M290.94,558.46l20.72,53.64"/><path class="cls-40" d="M299.28,558.66l21,54.09"/><path class="cls-40" d="M307.91,558.37,328.63,612"/><path class="cls-40" d="M317.25,558.57l21,54.08"/><path class="cls-40" d="M325.88,558.27,346.6,611.9"/><path class="cls-40" d="M334.28,558.91l21,54.08"/><path class="cls-40" d="M342.91,558.62l20.72,53.63"/><path class="cls-40" d="M352.25,558.81l21,54.09"/><path class="cls-40" d="M360.88,558.52l20.72,53.63"/><path class="cls-40" d="M369.06,558.09l21.36,53.81"/><path class="cls-40" d="M377.8,558.55l21,52.56"/><path class="cls-40" d="M384.64,558.15l21.76,56.63"/><path class="cls-40" d="M393.27,557.83,414,608.59"/><path class="cls-40" d="M119.81,574.18l16,39.52"/><path class="cls-40" d="M121.11,598l6.09,15.71"/><line class="cls-40" x1="1242.22" y1="584.64" x2="1268.11" y2="637.29"/><line class="cls-40" x1="1255.22" y1="589.64" x2="1281.3" y2="636.86"/><line class="cls-40" x1="1268.73" y1="594.33" x2="1294.02" y2="636.11"/><line class="cls-40" x1="1284.11" y1="600.27" x2="1306.11" y2="636.29"/><line class="cls-40" x1="1300.11" y1="607.28" x2="1320.11" y2="636.29"/><line class="cls-40" x1="1319.11" y1="615.28" x2="1332.11" y2="635.29"/><line class="cls-40" x1="1334.11" y1="621.28" x2="1343.11" y2="635.29"/><line class="cls-40" x1="1346.11" y1="625.29" x2="1352.11" y2="635.29"/><line class="cls-40" x1="1360.11" y1="630.29" x2="1363.52" y2="634.74"/><line class="cls-40" x1="542.11" y1="649.3" x2="535.11" y2="627.29"/><line class="cls-40" x1="533.11" y1="649.3" x2="531.11" y2="642.3"/><line class="cls-40" x1="417.11" y1="559.25" x2="432.11" y2="599.27"/><line class="cls-40" x1="427.11" y1="560.25" x2="440.11" y2="595.27"/><line class="cls-40" x1="437.11" y1="560.25" x2="449.11" y2="592.27"/><line class="cls-40" x1="447.11" y1="559.25" x2="457.11" y2="589.26"/><line class="cls-40" x1="457.11" y1="559.25" x2="466.11" y2="586.26"/><line class="cls-40" x1="467.11" y1="559.25" x2="474.11" y2="582.26"/><line class="cls-40" x1="477.11" y1="560.25" x2="482.11" y2="579.26"/><line class="cls-40" x1="486.11" y1="561.25" x2="490.11" y2="574.26"/><line class="cls-40" x1="497.11" y1="560.25" x2="500.11" y2="571.25"/><line class="cls-40" x1="507.11" y1="559.25" x2="510.11" y2="568.25"/><line class="cls-40" x1="517.11" y1="559.25" x2="519.11" y2="564.25"/><ellipse class="cls-32" cx="337.11" cy="378.64" rx="4" ry="4.5"/><path class="cls-32" d="M332.11,410.16v-22.6a11.74,11.74,0,0,1,0-1.88c.26-2,1.43-4.36,3-4.54a2.6,2.6,0,0,1,.77.08,10.91,10.91,0,0,0,3.23-.08l-1.34-.44c2.16.65,4.34,1.87,4.34,4.44v26Z"/><ellipse class="cls-32" cx="462.11" cy="378.64" rx="4" ry="4.5"/><path class="cls-32" d="M457.11,410.16v-22.6a11.74,11.74,0,0,1,0-1.88c.26-2,1.43-4.36,3-4.54a2.6,2.6,0,0,1,.77.08,10.91,10.91,0,0,0,3.23-.08l-1.34-.44c2.16.65,4.34,1.87,4.34,4.44v26Z"/><line class="cls-44" x1="580.11" y1="673.31" x2="580.11" y2="732.35"/><line class="cls-45" x1="560.11" y1="673.31" x2="560.11" y2="732.35"/><line class="cls-44" x1="596.11" y1="690.32" x2="543.61" y2="691.33"/><line class="cls-44" x1="596.09" y1="711.8" x2="543.63" y2="713.88"/><line class="cls-44" x1="659.11" y1="670.69" x2="659.11" y2="729.39"/><line class="cls-45" x1="639.11" y1="670.69" x2="639.11" y2="729.39"/><line class="cls-44" x1="675.11" y1="687.6" x2="622.61" y2="688.6"/><line class="cls-44" x1="675.11" y1="709.49" x2="622.61" y2="710.49"/><line class="cls-44" x1="787.11" y1="669.32" x2="787.11" y2="727.43"/><line class="cls-45" x1="767.11" y1="669.32" x2="767.11" y2="727.43"/><line class="cls-44" x1="803.11" y1="686.07" x2="750.61" y2="687.06"/><line class="cls-44" x1="803.09" y1="707.21" x2="750.63" y2="709.25"/><line class="cls-44" x1="923.11" y1="665.83" x2="923.11" y2="724.38"/><line class="cls-45" x1="903.11" y1="665.83" x2="903.11" y2="724.38"/><line class="cls-44" x1="939.11" y1="682.7" x2="886.61" y2="683.7"/><line class="cls-44" x1="939.11" y1="704.53" x2="886.61" y2="705.53"/><line class="cls-44" x1="1004.11" y1="663.84" x2="1004.11" y2="722.4"/><line class="cls-45" x1="984.11" y1="663.84" x2="984.11" y2="722.4"/><line class="cls-44" x1="1020.11" y1="680.71" x2="967.61" y2="681.71"/><line class="cls-44" x1="1020.11" y1="702.55" x2="967.61" y2="703.55"/><line class="cls-44" x1="1156.43" y1="660.31" x2="1156.43" y2="719.34"/><line class="cls-45" x1="1134.33" y1="660.31" x2="1134.33" y2="719.34"/><line class="cls-44" x1="1174.11" y1="677.32" x2="1116.11" y2="678.33"/><line class="cls-44" x1="1174.1" y1="699.33" x2="1116.11" y2="700.34"/><line class="cls-44" x1="1300.26" y1="657.31" x2="1300.26" y2="716.34"/><line class="cls-45" x1="1280.45" y1="657.31" x2="1280.45" y2="716.34"/><line class="cls-44" x1="1316.11" y1="674.32" x2="1264.11" y2="675.32"/><line class="cls-44" x1="1316.11" y1="696.33" x2="1264.11" y2="697.34"/><rect class="cls-46" x="539.11" y="730.35" width="63" height="7" transform="translate(-28.55 23.12) rotate(-2.26)"/><rect class="cls-46" x="618.11" y="728.39" width="63" height="6.96" transform="translate(-13.85 12.53) rotate(-1.09)"/><rect class="cls-46" x="746.11" y="725.46" width="63" height="6.89" transform="matrix(1, -0.02, 0.02, 1, -13.64, 14.83)"/><rect class="cls-46" x="882.11" y="721.41" width="63" height="6.95" transform="translate(-13.64 17.53) rotate(-1.09)"/><rect class="cls-46" x="963.11" y="719.42" width="63" height="6.95" transform="translate(-13.59 19.07) rotate(-1.09)"/><rect class="cls-46" x="1111.11" y="718.29" width="67.98" height="7" transform="translate(-13.65 22.12) rotate(-1.1)"/><rect class="cls-46" x="1113.11" y="718.34" width="63" height="7" transform="translate(-13.65 22.11) rotate(-1.1)"/><rect class="cls-46" x="1259.11" y="715.34" width="63" height="7" transform="translate(-13.56 24.91) rotate(-1.1)"/><path class="cls-47" d="M121.9,628c.07-3.26-.83-8.95,4.46-7.39,3.12.91,1.67,5.14,1.78,7.41Z"/><path class="cls-47" d="M131.89,628c.08-3.26-.82-9,4.47-7.4,3.13.93,1.66,5.15,1.78,7.42C137.56,628,131.89,627.93,131.89,628Z"/><path class="cls-47" d="M141.89,627.87c.08-3.26-.82-9,4.47-7.39,3.13.92,1.66,5.14,1.78,7.41Z"/><path class="cls-47" d="M152.88,627c.09-2.83-.79-7.76,4.49-6.4,3.12.8,1.65,4.46,1.76,6.43Z"/><path class="cls-47" d="M162.88,627.2c.09-2.83-.79-7.76,4.49-6.4,3.12.81,1.65,4.47,1.76,6.44Z"/><path class="cls-47" d="M172.88,627.17c.09-2.83-.79-7.77,4.49-6.41,3.12.81,1.65,4.47,1.76,6.44C178.54,627.2,172.88,627.15,172.88,627.17Z"/><path class="cls-47" d="M185,627.5c0-3.26-.94-8.94,4.37-7.45,3.14.88,1.73,5.12,1.88,7.39Z"/><path class="cls-47" d="M195,627.28c0-3.26-.93-8.94,4.37-7.45,3.14.88,1.73,5.12,1.87,7.39Z"/><path class="cls-47" d="M205,627.08c0-3.26-.94-8.94,4.37-7.45,3.14.88,1.73,5.12,1.87,7.39Z"/><path class="cls-47" d="M215.94,627.07c0-3.27-.91-9,4.39-7.44,3.13.89,1.71,5.12,1.85,7.4C221.6,627,215.94,627.05,215.94,627.07Z"/><path class="cls-47" d="M225.93,626.88c0-3.26-.9-9,4.4-7.44,3.13.89,1.71,5.13,1.85,7.4Z"/><path class="cls-47" d="M235.93,626.71c0-3.26-.9-8.94,4.4-7.44,3.13.9,1.71,5.13,1.85,7.4Z"/><path class="cls-47" d="M247,626.72c0-3.26-.94-8.94,4.36-7.46,3.14.88,1.74,5.13,1.88,7.4C252.61,626.66,247,626.7,247,626.72Z"/><path class="cls-47" d="M256.94,626.5c0-3.26-.93-9,4.37-7.45,3.14.88,1.73,5.12,1.88,7.39C262.61,626.45,256.94,626.48,256.94,626.5Z"/><path class="cls-47" d="M266.94,626.3c0-3.26-.93-8.95,4.37-7.45,3.14.88,1.73,5.12,1.88,7.39C272.6,626.25,266.94,626.28,266.94,626.3Z"/><path class="cls-47" d="M277.93,626.29c0-3.27-.91-8.95,4.39-7.45,3.14.89,1.72,5.13,1.86,7.4C283.59,626.25,277.93,626.27,277.93,626.29Z"/><path class="cls-47" d="M287.93,626.1c0-3.27-.91-9,4.39-7.44,3.14.89,1.72,5.13,1.85,7.4C293.59,626.06,287.93,626.08,287.93,626.1Z"/><path class="cls-47" d="M297.93,625.93c0-3.26-.91-8.95,4.39-7.44,3.14.89,1.72,5.13,1.85,7.4C303.59,625.89,297.93,625.91,297.93,625.93Z"/><path class="cls-47" d="M308.93,625.79c0-3.26-.91-8.95,4.39-7.44,3.14.89,1.71,5.13,1.85,7.4C314.59,625.76,308.93,625.77,308.93,625.79Z"/><path class="cls-47" d="M319.94,625.8c0-3.27-.94-8.95,4.37-7.46,3.14.88,1.73,5.12,1.88,7.39C325.6,625.74,319.94,625.78,319.94,625.8Z"/><path class="cls-47" d="M329.94,625.58c0-3.27-.94-9,4.37-7.46,3.14.88,1.73,5.13,1.87,7.4C335.6,625.52,329.94,625.56,329.94,625.58Z"/><path class="cls-47" d="M339.94,625.38c0-3.27-.94-9,4.37-7.46,3.13.88,1.73,5.13,1.87,7.4C345.6,625.32,339.94,625.36,339.94,625.38Z"/><path class="cls-47" d="M350.93,625.36c0-3.26-.91-8.94,4.39-7.44,3.13.89,1.71,5.13,1.85,7.4Z"/><path class="cls-47" d="M360.92,625.18c.05-3.27-.9-8.95,4.4-7.44,3.13.89,1.71,5.12,1.85,7.4C366.58,625.14,360.92,625.16,360.92,625.18Z"/><path class="cls-47" d="M370.9,625.79c.07-3.26-.83-8.95,4.45-7.4,3.13.92,1.67,5.14,1.79,7.42Z"/><path class="cls-48" d="M133.4,763.8l-.76-79c-.07-7.24,4.72-15.83,12.2-18,9.17-2.66,17.06,6.85,18.77,14.78l.79,82Z"/><path class="cls-48" d="M164.57,764.15l-.77-79.29c-.07-7.27,4.72-15.88,12.2-18.07,9.17-2.67,17.07,6.88,18.77,14.83l.8,82.23Z"/><path class="cls-48" d="M197.57,764.15l-.76-78.74c-.07-7.21,4.72-15.77,12.2-17.94,9.17-2.65,17.07,6.83,18.77,14.73l.79,81.65Z"/><path class="cls-48" d="M229.57,764.15l-.76-79c-.07-7.24,4.72-15.82,12.2-18,9.17-2.67,17.06,6.84,18.77,14.77l.79,81.91Z"/><path class="cls-48" d="M261.57,764.15l-.77-80c-.07-7.34,4.72-16,12.2-18.24,9.17-2.7,17.06,6.94,18.77,15l.8,83Z"/><path class="cls-48" d="M294.57,764.15l-.76-79.5c-.07-7.28,4.72-15.92,12.2-18.11,9.17-2.68,17.06,6.89,18.77,14.87l.79,82.44Z"/><path class="cls-48" d="M326.58,764.16l-.77-79.75c-.07-7.31,4.71-16,12.2-18.18,9.17-2.69,17.06,6.92,18.77,14.92l.79,82.71Z"/><path class="cls-48" d="M360.58,764.42l-.78-81c-.07-7.42,4.71-16.23,12.19-18.46,9.17-2.73,17.07,7,18.78,15.16l.81,84Z"/><rect class="cls-29" x="130.11" y="761" width="248" height="7"/><path class="cls-49" d="M383.61,608.78V543.24a182.22,182.22,0,0,0,26,0v67c-4.7.08-9.71,0-15-.38C390.77,609.61,387.1,609.23,383.61,608.78Z"/><path class="cls-49" d="M386.64,544.39a123.7,123.7,0,0,1,4.41-26.71c1.48-5.28,10.69-6.56,13.21-1.9a13.69,13.69,0,0,1,1.24,6c.28,8.47,1.07,17,1.76,25.43"/><polygon class="cls-50" points="428.21 642.3 489.11 662 489.11 716.34 428.11 695.96 428.21 642.3"/><path class="cls-51" d="M382.11,605.27c15,8,29,0,29,0v163.1h-34Z"/><path class="cls-52" d="M411.11,605.27c-11,5-16.5,3.6-16.5,3.6l-.5,156.5h17V605.27"/><rect class="cls-37" x="383.11" y="543.24" width="27" height="6"/><rect class="cls-37" x="383.11" y="553.24" width="27" height="6"/><rect class="cls-37" x="383.11" y="563.25" width="27" height="6"/><rect class="cls-37" x="383.11" y="573.25" width="27" height="6"/><rect class="cls-37" x="383.11" y="583.26" width="27" height="6"/><rect class="cls-37" x="383.11" y="593.27" width="27" height="6"/><path class="cls-35" d="M683.11,536.23v29h23v-29Z"/><polyline class="cls-53" points="683.11 565.25 669.11 551.24 675.11 532.23 683.11 536.23"/><polygon class="cls-53" points="706.11 565.25 714.11 551.24 710.11 533.23 706.11 536.23 706.11 565.25"/><path class="cls-54" d="M674.11,533.23a34,34,0,0,0,16,6,32.15,32.15,0,0,0,6,0,34.78,34.78,0,0,0,15-5l-21-40Z"/><line class="cls-55" x1="690.11" y1="497.21" x2="690.11" y2="490.21"/><circle class="cls-16" cx="690.11" cy="488.2" r="3"/><path class="cls-35" d="M1024.11,536.23v29h23v-29Z"/><polyline class="cls-53" points="1024.11 565.25 1010.11 551.24 1016.11 532.23 1024.11 536.23"/><polygon class="cls-53" points="1047.11 565.25 1055.11 551.24 1051.11 533.23 1047.11 536.23 1047.11 565.25"/><path class="cls-56" d="M1015.11,533.23a34,34,0,0,0,16,6,32.15,32.15,0,0,0,6,0,34.78,34.78,0,0,0,15-5l-21-40Z"/><line class="cls-55" x1="1031.11" y1="497.21" x2="1031.11" y2="490.21"/><circle class="cls-16" cx="1031.11" cy="488.2" r="3"/><path class="cls-57" d="M75.11,627c24.24,29.12,34.15,140.61,34.15,140.61l27.85.37c-8-105.83-46.58-145-46.58-145Z"/><path class="cls-58" d="M108.32,565.06c-2.21,3.94-3.21,2.94-3.21,2.94-2-1-1.5-8.49-1.5-8.49L102.11,574l5-.94Z"/><path class="cls-59" d="M101.11,592c-7,5-6,12-6,12,5,1,6-1,6-1,2-10,2-11,2-11Z"/><path class="cls-60" d="M103.32,711.8a38,38,0,0,0,21.79-2.8"/><path class="cls-61" d="M104.32,714.8a38,38,0,0,0,21.79-2.8"/><path class="cls-62" d="M104.32,717.8a38,38,0,0,0,21.79-2.8"/><path class="cls-63" d="M105.32,720.8a38,38,0,0,0,21.79-2.8"/><path class="cls-64" d="M102.32,705.8a38,38,0,0,0,21.79-2.8"/><path class="cls-65" d="M103.32,708.8a38,38,0,0,0,21.79-2.8"/><path class="cls-66" d="M101.32,699.8a34.77,34.77,0,0,0,20.79-2.8"/><path class="cls-67" d="M102.32,703a43.56,43.56,0,0,0,19.79-2"/><path class="cls-68" d="M105.32,723.8a38,38,0,0,0,21.79-2.8"/><path class="cls-69" d="M106.32,726.8a38,38,0,0,0,21.79-2.8"/><path class="cls-70" d="M106.32,729.8a38,38,0,0,0,21.79-2.8"/><path class="cls-71" d="M107.32,732.8a38,38,0,0,0,21.79-2.8"/><path class="cls-72" d="M107.32,735.8a38,38,0,0,0,21.79-2.8"/><path class="cls-73" d="M108.32,738.8a38,38,0,0,0,21.79-2.8"/><path class="cls-74" d="M108.32,741.8a38,38,0,0,0,21.79-2.8"/><path class="cls-75" d="M108.32,744.8a38,38,0,0,0,21.79-2.8"/><path class="cls-76" d="M108.32,747.8a38,38,0,0,0,21.79-2.8"/><path class="cls-77" d="M109.32,750.8a38,38,0,0,0,21.79-2.8"/><path class="cls-78" d="M109.32,754.8a38,38,0,0,0,21.79-2.8"/><path class="cls-79" d="M110.32,757.8a38,38,0,0,0,21.79-2.8"/><path class="cls-80" d="M110.32,760.8a38,38,0,0,0,21.79-2.8"/><path class="cls-81" d="M110.32,763.8a38,38,0,0,0,21.79-2.8"/><path class="cls-82" d="M110.32,766.8a38,38,0,0,0,21.79-2.8"/><path class="cls-83" d="M99.32,690.8a38,38,0,0,0,21.79-2.8"/><path class="cls-84" d="M100.32,693.8a38,38,0,0,0,21.79-2.8"/><path class="cls-85" d="M100.32,696.8a38,38,0,0,0,21.79-2.8"/><path class="cls-86" d="M98.32,684.8a38,38,0,0,0,21.79-2.8"/><path class="cls-87" d="M99.32,687.8a38,38,0,0,0,21.79-2.8"/><path class="cls-88" d="M98.32,682a43.56,43.56,0,0,0,19.79-2"/><path class="cls-89" d="M95.32,675.8a38,38,0,0,0,21.79-2.8"/><path class="cls-90" d="M96.32,678.8a38,38,0,0,0,21.79-2.8"/><path class="cls-59" d="M46.94,596.67,51.11,600l12.66,6.5a12.61,12.61,0,0,0,4.67,0C67.11,597,63.11,596,63.11,596,45.11,596,46.94,596.67,46.94,596.67Z"/><path class="cls-58" d="M107.12,580.58c3.57-5.61,5.12-13.42,8.08-19.59a85,85,0,0,1,12-18.94c4.11-4.78,9.46-9.27,16.11-10a50.86,50.86,0,0,1-12.89,14.79A66.2,66.2,0,0,1,149,542.25c2.49-.24,5.58-.06,6.7,2a133.18,133.18,0,0,1-28.38,5.27c7-.89,14-1.79,21.05-1.39s14.19,2.2,19.77,6.18l-26.78-1.09A8.76,8.76,0,0,1,148,559a25.49,25.49,0,0,0-10.9-2c3.28,1,5.44,4.43,4.74,7.5-3.2-5.12-11.46-6.91-16.79-3.64l15.15,4.7a33.49,33.49,0,0,0-15.83.73,49.84,49.84,0,0,0,14.54,4.65l-15.61.39a23.94,23.94,0,0,1,9.91,5,22.06,22.06,0,0,0-10.41-1.25,5.88,5.88,0,0,0,4.55,4.3,13.33,13.33,0,0,0-7.58,2.09,1.68,1.68,0,0,0-.86,1c-.1.68.73,1.24,1.48,1.21a4,4,0,0,0,2-.83L157,560.58a12.83,12.83,0,0,0-3.11,7.14,38.78,38.78,0,0,1,12.6-5.63,19.91,19.91,0,0,0-6.3,5.38,26.38,26.38,0,0,1,17.4.78,31.78,31.78,0,0,0-13.81,1.6A31.26,31.26,0,0,1,178.07,573a15.52,15.52,0,0,0-7.89.55,21.46,21.46,0,0,0,11.16,2,4.28,4.28,0,0,1-3.29,1.69,21.13,21.13,0,0,1,5.95,3.22,29.31,29.31,0,0,0-11.84-2.26,17,17,0,0,1,10.2,7.16,29.6,29.6,0,0,0-9.09-3.82A56.6,56.6,0,0,0,181,589a24,24,0,0,1-6.95-2.86l3.38,6a38.17,38.17,0,0,0-10.9-7.51,14.64,14.64,0,0,0,4.09,6.87,23.57,23.57,0,0,1-6.09-4.72,12,12,0,0,1-1,4.67c-1.58-5.49-6.81-10-12.92-11.13l2,5.65L145.28,582a9.94,9.94,0,0,0,2.15,5.91,16.38,16.38,0,0,1-7.49-1.9l-.73,3.93a14.28,14.28,0,0,0-8.48-2.55,3.84,3.84,0,0,0,1.27,3,3.76,3.76,0,0,0-4.13,1.59c4.81,1.48,10,.42,15.06-.12a70.09,70.09,0,0,1,28.82,3,25.38,25.38,0,0,0-9.83,1.54,96.25,96.25,0,0,1,11.2,2.16c-3.92,0-7.85,0-11.77,0,2.07,0,7.3,5.57,9,7L165.49,604l.39,4a11.94,11.94,0,0,0-5.9-5.56c.08,0,1.14,3.24,2,3.82-2.26.28-3.7-3.51-5.93-2.52a1.75,1.75,0,0,0-.51,2.61,6.11,6.11,0,0,0,2.61,1.78A91.06,91.06,0,0,1,176,618.24c5,3.88,10,9.38,12.19,15.25a28.86,28.86,0,0,0-8.54-5.51c2,2.36,2.56,5.19,3.91,7.84a72.92,72.92,0,0,1,4.14,8.36c-5.84-2.13-10.3-13.1-11.79-18.24-1.66.32-1.59,2.48-1.12,4L178,640.17a23.33,23.33,0,0,0-6.09-8.19l-.83,2.45a44.38,44.38,0,0,0-3.5-11.84l-1.23,8.84a91,91,0,0,0-1.79-9.08c-.28-1.14-1.57-2.59-2.48-1.77a1.6,1.6,0,0,0-.28,1.42l.81,6.17a23.82,23.82,0,0,1-2.92-7.39l-1.46,7-2.58-8.11a2,2,0,0,0-1-1.38c-1.16-.48-2.11,1.08-1.87,2.22s1,2.31.47,3.37c-1.5-3.66-4.65-11.84-10.47-10.47a2.35,2.35,0,0,0-1.44.84c-.78,1.13.4,2.54,1.49,3.45l16.49,13.92-3,.11c1.82-.06,5.29,16.24,5.66,18a97,97,0,0,1,2,20.65,7.35,7.35,0,0,0-3.24-5.3,5.94,5.94,0,0,0-1.55,5.68,24.34,24.34,0,0,1,.9-13.8,25.61,25.61,0,0,0-4.23,6.06,20.75,20.75,0,0,1,2.22-10.08l-2.91,3.27,1.94-12.87a5.18,5.18,0,0,0-2.57,5.56A55,55,0,0,1,153,636.45a28.7,28.7,0,0,0-4.3,6.64,19.6,19.6,0,0,1-.38-5.08,6,6,0,0,0-1.92-4.64c-1.42-1.12-4.06-1-4.75.6a3.67,3.67,0,0,0,.55,3.11,28.81,28.81,0,0,0,9.28,10.2l-5.39-2.47a40.79,40.79,0,0,1,4.06,6.87c.66,1.42,1.3,5.75,2.35,6.66-1.29-1.16-2.54-2.61-4.15-3.33-.19,5.92,2,11.13-1.46,16.81a37.09,37.09,0,0,0-1.45-12.46,73,73,0,0,1-4.89,6.25c1.62-1.85,2-5.49,1.94-7.73a6,6,0,0,1-4.88,1.1,6.82,6.82,0,0,0,2.78-4.49l-4.55-.1a28.92,28.92,0,0,0,5.2-6.51,4.7,4.7,0,0,0-5,1.14,7.37,7.37,0,0,0-1.87,4.63c-.5-3,.62-5.41,1.73-8.1-.95-.08-4.15.75-4.33,1.93.5-3.34,2.31-8.45,1.42-11.61a4.8,4.8,0,0,0-3.85,5.22,31.37,31.37,0,0,1,.53-11,7,7,0,0,0-3.38,8c0-4.73-.11-9.54-1.61-14.09-1.63-5-4.72-8-9.19-11,2,3.44,2.68,7.38,3.46,11.21a139.48,139.48,0,0,0,16.14,42.14l-6.64-5A14.81,14.81,0,0,0,134.3,672a11.64,11.64,0,0,1-7.4-5.74A15.85,15.85,0,0,1,121.32,678,23.17,23.17,0,0,0,124,664l-6.81,9.67a16.71,16.71,0,0,0,1.09-9,5.4,5.4,0,0,0-2.92,3.77,27.28,27.28,0,0,0,1.62-9.75,8.38,8.38,0,0,0-4.56,6.14,33.22,33.22,0,0,1,3.8-11.59c-2.25-.18-4.26,2.07-3.61,4a7.77,7.77,0,0,1,1.43-7.57,9,9,0,0,0-3.88,1.55l5.5-8a5.8,5.8,0,0,0-5.54,2.66c-.66-4.22,6-7.61,4.44-11.65a1.93,1.93,0,0,0-.76-1c-1-.61-2.38.17-2.91,1.15s-.6,2.13-1.17,3.1c-.63-2.35,1.17-4.57,2.65-6.56s2.72-4.74,1.13-6.68a9.38,9.38,0,0,0-3.21,6.66,15,15,0,0,1-.13-9.15c.67-2.18,1.83-4.56.72-6.61s-4.33-2.69-6.58-1.66a7.25,7.25,0,0,0-3.93,5.55,19.83,19.83,0,0,0,.48,6.85,11.28,11.28,0,0,1-3.29-8.69,44,44,0,0,0-2.19,13.39,10.2,10.2,0,0,1-2.91-5.72A37.27,37.27,0,0,0,96.4,638a8.58,8.58,0,0,1-4.79-4.42,22.18,22.18,0,0,0,2.86,14.3A28.4,28.4,0,0,1,89.65,642a41.83,41.83,0,0,0-.92,16.89,88.65,88.65,0,0,0-3.68-11.26c-2.28,1-3,3.71-2.67,6s1.34,4.5,1.43,6.81a9.33,9.33,0,0,1-5.6,8.56,34.24,34.24,0,0,0,.2-16.62A28.19,28.19,0,0,0,75,666.14a21.61,21.61,0,0,1,.81-17.31,26,26,0,0,1-8.56,2.31c-3,.12-6.26-1-7.74-3.36,5.13,1.48,11.16-.23,14.4-4.1a5,5,0,0,0-4.66.76,82.07,82.07,0,0,1,25.17-30.51,5.67,5.67,0,0,0,2-2.09,1.75,1.75,0,0,0-1-2.36,2.39,2.39,0,0,0-1.27,0c-3.43.85-5.06,4.32-6,7.42a18.49,18.49,0,0,1,.37-8.9l-4.31,11.16-2.53-9a13.43,13.43,0,0,0,.9,14.68,13.91,13.91,0,0,1-5.36-11.91,52,52,0,0,0-3.89,11.27,52.1,52.1,0,0,1-1-12.39,10.67,10.67,0,0,0-3.74,12,8.91,8.91,0,0,1-2.86-7.72A19.32,19.32,0,0,0,64,627.59a7.35,7.35,0,0,1-2.84-7.26,11.64,11.64,0,0,0-2.22,9.84,6.48,6.48,0,0,1-2.85-4.71,35.24,35.24,0,0,0-7.12,13c.35-1.2-2.2-5.4-2.42-7.07a19.31,19.31,0,0,1,2.78-12.93,12.31,12.31,0,0,0-9.25,4.16c10.7-11,26.48-17.87,42.71-18.5,2-.08,4-.09,5.77-1,4.14-2.13,3.55-7.17,1.26-10.27-2.58-3.5-7-5.72-11.22-7.17-8.15-2.8-17.68-3.73-25.24.11-4.25,2.16-7.78,6.55-6.39,10.83a16.38,16.38,0,0,1-1.14-6.39c0-.87.68-6.81,1.93-6.9A13.15,13.15,0,0,0,38,588.65a36.92,36.92,0,0,1,6.43-9.53,17.55,17.55,0,0,0-12.39,5.21A18.09,18.09,0,0,1,38.24,577a17.69,17.69,0,0,0-8,2.8l9.68-6.23a14.69,14.69,0,0,0-12,3.83c6.82-6.72,12.88-7.47,22.82-6.56a21.24,21.24,0,0,0-14.67-3.39c7.45-2.39,15.69-.74,23.41.93A29.47,29.47,0,0,0,39.71,563c13.21.37,28.18,1.8,36.32,11.34l-2.81-5a36.41,36.41,0,0,1,12.19,12.34c.62,1,1.37,2.25,2.66,2.41,1.87.25,3-2.17,2.07-3.68s-2.92-2.14-4.77-2.49a4,4,0,0,1,4.54-.06,9.52,9.52,0,0,0-6.46-3.83,2.84,2.84,0,0,1,3.76.27,8,8,0,0,0-7.81-3.87,5.73,5.73,0,0,1,5.65-1.44c-.91-2.79-4.57-4.57-7.62-3.71a7.34,7.34,0,0,1,6.42-1.82c-.2-2.54-5-3.15-5.94-.76a6.2,6.2,0,0,1,3.16-5c-1.16-1-3.18-.62-4.28.42a8,8,0,0,0-1.9,3.92A13.93,13.93,0,0,1,76,553.55c-1.34-1-3.67-.18-4,1.34l1-4.13-9.55-.63a23.77,23.77,0,0,1,6.43-2,19,19,0,0,0-7.86-8.67,18.34,18.34,0,0,1,8.75,6.3,8.26,8.26,0,0,0,1.56-6l3.87,5A6.49,6.49,0,0,0,74.29,538c5.74,2.09,9.87,7.47,10,13.08l1-8.42a85.73,85.73,0,0,1,13.07,39c.15,2,1.57,4.75,3.5,3.83,1-.45,1.15-1.61,1.16-2.6a24,24,0,0,0-4.48-14.12,4.54,4.54,0,0,1,4.57.87,8.86,8.86,0,0,0-6.78-6.83,9.06,9.06,0,0,1,5.5-.08,9.83,9.83,0,0,0-7-5.35,16.76,16.76,0,0,1,5.95.07A11.66,11.66,0,0,0,93,550.83a7.26,7.26,0,0,1,7.37-.15c0-4.24-4.93-7.91-9.49-7.07a8.16,8.16,0,0,1,8.58-.85,16.59,16.59,0,0,0-10-4.11l8.19-1.55A36.86,36.86,0,0,0,79.31,521a83.45,83.45,0,0,1,19.23,10.07c.31.22.9-6.77.72-7.53.54,4.08,1.45,8.22,2.2,12.3a15.65,15.65,0,0,0,3.38-4.16,26.07,26.07,0,0,1-.33,13.3,19.66,19.66,0,0,0,6.61-13.13C109.78,548.09,107.88,564.34,107.12,580.58Z"/><path class="cls-59" d="M88.91,588.3c3.06-7.22,3.9-16.86,6.28-24.68a114.16,114.16,0,0,1,10.27-24.36c3.66-6.28,8.58-12.36,15.14-14a63.4,63.4,0,0,1-11.5,19.43,59.64,59.64,0,0,1,18.11-7.75c2.46-.59,5.56-.73,6.86,1.62a116.63,116.63,0,0,1-27.81,9.76c6.87-1.91,13.8-3.84,20.86-4.19s14.34,1,20.25,5.12l-26.78,1.87a9,9,0,0,1,7.08,6.21,21.21,21.21,0,0,0-11-1.11c3.36.83,5.82,4.71,5.4,8.51A11.4,11.4,0,0,0,105,562.27l15.52,3.89a28.28,28.28,0,0,0-15.71,2.77,42.15,42.15,0,0,0,14.92,3.89l-15.52,2.35A21.41,21.41,0,0,1,114.5,580a18.33,18.33,0,0,0-10.48-.27,6.17,6.17,0,0,0,4.92,4.67,12.1,12.1,0,0,0-7.36,3.43,2.08,2.08,0,0,0-.77,1.33,1.36,1.36,0,0,0,1.59,1.3,4,4,0,0,0,1.95-1.25l32.41-31.11a18.23,18.23,0,0,0-2.45,9,37.76,37.76,0,0,1,12.05-8.32,22.93,22.93,0,0,0-5.79,7.26A22.09,22.09,0,0,1,158,565a27.25,27.25,0,0,0-13.61,3.59,26,26,0,0,1,14.58,2.11,13.14,13.14,0,0,0-7.82,1.61,17.88,17.88,0,0,0,11.31,1.09,4.36,4.36,0,0,1-3.13,2.45,19,19,0,0,1,6.22,3.18,24.29,24.29,0,0,0-12-1.31,16.41,16.41,0,0,1,10.81,7.44,25.88,25.88,0,0,0-9.41-3.54,59,59,0,0,0,8.33,8,20.93,20.93,0,0,1-7.19-2.63l3.91,6.88a36.48,36.48,0,0,0-11.53-7.79,17.8,17.8,0,0,0,4.69,7.83,23.63,23.63,0,0,1-6.5-5,17.81,17.81,0,0,1-.54,5.77c-2.07-6.46-7.69-11.29-13.89-11.93l2.53,6.59-7.65-3.9a13.25,13.25,0,0,0,2.67,6.91,13.88,13.88,0,0,1-7.64-1.41l-.36,4.84a12.14,12.14,0,0,0-8.68-2.07,4.91,4.91,0,0,0,1.54,3.52,3.66,3.66,0,0,0-4,2.42c4.93,1.22,10-.69,15-1.93a57.86,57.86,0,0,1,29,.21,22.1,22.1,0,0,0-9.66,3,80.26,80.26,0,0,1,11.36,1.27c-3.91.49-7.82.92-11.73,1.37,2.07-.2,7.78,5.88,9.62,7.36l-5-1.32.75,4.74a12.45,12.45,0,0,0-6.39-6c.09,0,1.43,3.79,2.29,4.4-2.22.6-4-3.81-6.13-2.35-.95.64-.94,2.26-.28,3.22a5.87,5.87,0,0,0,2.77,1.84c6.53,2.73,13,5.82,18.74,10.19,5.37,4.09,10.83,10.16,13.52,17a27.23,27.23,0,0,0-9-5.65c2.22,2.62,3,6,4.6,9a91.57,91.57,0,0,1,4.89,9.63c-6-1.89-11.45-14.63-13.4-20.68-1.63.58-1.37,3.19-.77,4.93L165,652a26.87,26.87,0,0,0-6.82-9.18l-.6,3.06A60.32,60.32,0,0,0,153,632l-.42,10.84c-.72-3.63-1.59-7.23-2.61-10.77-.39-1.35-1.8-2.95-2.63-1.85a2.28,2.28,0,0,0-.15,1.75l1.36,7.38a31.91,31.91,0,0,1-3.58-8.61l-.82,8.63-3.3-9.51c-.22-.63-.5-1.34-1.09-1.56-1.19-.44-2,1.56-1.66,2.91s1.17,2.69.77,4c-1.82-4.25-5.7-13.79-11.38-11.43a2.5,2.5,0,0,0-1.35,1.19c-.68,1.46.62,3,1.79,4l17.69,14.89-3,.49c1.8-.3,6.74,19,7.26,21.11a140,140,0,0,1,3.86,24.76,8.85,8.85,0,0,0-3.7-6,8.53,8.53,0,0,0-1,7.06,35.64,35.64,0,0,1-.35-16.81,33.21,33.21,0,0,0-3.66,7.84,30.31,30.31,0,0,1,1.29-12.48l-2.6,4.32.77-15.82a7.08,7.08,0,0,0-2.06,7,78,78,0,0,1-2.64-14.86A38.69,38.69,0,0,0,136,659a27.94,27.94,0,0,1-.83-6.1c-.22-2-.82-4.22-2.34-5.4s-4.13-.68-4.67,1.31a5.09,5.09,0,0,0,.82,3.69,31.55,31.55,0,0,0,10.17,11.25l-5.59-2.35a49.88,49.88,0,0,1,4.67,7.82c.79,1.65,1.82,6.82,3,7.8-1.4-1.26-2.78-2.86-4.45-3.54.35,7.19,3,13.23.07,20.51a53.47,53.47,0,0,0-2.57-14.9q-2,4.2-4.31,8.15c1.45-2.44,1.52-6.89,1.24-9.59a5.46,5.46,0,0,1-4.77,1.92,9.12,9.12,0,0,0,2.36-5.77l-4.54.41a36.46,36.46,0,0,0,4.59-8.5c-1.73-.69-3.77.33-4.88,2a10.41,10.41,0,0,0-1.44,5.84c-.78-3.58.12-6.64,1-10-.95,0-4.07,1.4-4.14,2.85.2-4.1,1.54-10.51.37-14.22-2.44.8-3.93,4.1-3.37,6.77a45.86,45.86,0,0,1-.46-13.34,9.65,9.65,0,0,0-2.65,10.14c-.46-5.73-1-11.54-2.87-16.87-2.07-5.8-5.43-9.16-10.16-12.23,2.34,3.92,3.34,8.61,4.46,13.16a185.23,185.23,0,0,0,19.9,49.09l-7.06-5.27a18.31,18.31,0,0,0,6.77,12.11,11.57,11.57,0,0,1-7.89-6.07,22.06,22.06,0,0,1-4.5,14.88,34,34,0,0,0,1.4-17.29l-5.91,12.53a24.73,24.73,0,0,0,.28-11,6.89,6.89,0,0,0-2.58,4.91,40.64,40.64,0,0,0,.74-12,10.83,10.83,0,0,0-4,8,48.1,48.1,0,0,1,2.73-14.48c-2.26.05-4.06,3-3.23,5.32a11.24,11.24,0,0,1,.75-9.34,8.81,8.81,0,0,0-3.74,2.34l4.76-10.31a5.81,5.81,0,0,0-5.27,3.88c-1-5,5.26-9.92,3.37-14.63a2.15,2.15,0,0,0-.85-1.12c-1-.63-2.36.49-2.8,1.74s-.41,2.65-.88,3.88c-.84-2.77.75-5.67,2-8.26s2.28-6,.52-8.22a13,13,0,0,0-2.6,8.45,21.83,21.83,0,0,1-1-11.06c.47-2.72,1.41-5.74.12-8.08s-4.56-2.75-6.71-1.24-3.25,4.41-3.41,7.2A28.76,28.76,0,0,0,86.77,644a14.88,14.88,0,0,1-4.06-10.13,65.4,65.4,0,0,0-1,16.47,12.85,12.85,0,0,1-3.41-6.58,50.92,50.92,0,0,0,5.1,15.38,8.93,8.93,0,0,1-5.17-4.79,31.14,31.14,0,0,0,4.14,17,32.51,32.51,0,0,1-5.33-6.63,61.41,61.41,0,0,0,.61,20.56A122.88,122.88,0,0,0,73,672c-2.18,1.49-2.63,4.85-2.12,7.59s1.75,5.3,2,8.08a12.23,12.23,0,0,1-4.81,11,50,50,0,0,0-1.3-20.14,40.94,40.94,0,0,0-2.21,17.12,31.44,31.44,0,0,1-.75-21.06c-2.63,1.65-5.34,3.33-8.32,3.83s-6.33-.44-8-3.15c5.25,1.18,11.11-1.61,14-6.68a4.38,4.38,0,0,0-4.57,1.48,104.06,104.06,0,0,1,22.31-39.95A6.87,6.87,0,0,0,81,627.42c.28-1.1-.18-2.51-1.19-2.73a2.14,2.14,0,0,0-1.26.2c-3.33,1.45-4.65,5.84-5.35,9.71a27.18,27.18,0,0,1-.44-10.82l-3.29,14-3.33-10.64a19.06,19.06,0,0,0,2.22,17.67A17.84,17.84,0,0,1,62,631.05a76.85,76.85,0,0,0-2.86,14.12A76.74,76.74,0,0,1,57,630.28a15,15,0,0,0-2.64,15,11.74,11.74,0,0,1-3.55-9,28.33,28.33,0,0,0-.65,14.1,9.54,9.54,0,0,1-3.49-8.45,16.75,16.75,0,0,0-1.32,12.17,7.79,7.79,0,0,1-3.27-5.36,48.59,48.59,0,0,0-5.92,16.62c.24-1.49-2.68-6.28-3-8.28a28.08,28.08,0,0,1,1.6-16,12.18,12.18,0,0,0-8.84,6.14c9.67-14.63,24.76-24.79,40.89-27.5,2-.33,4-.59,5.65-1.86,3.94-3.07,2.89-9.1.33-12.58-2.88-3.93-7.49-6.08-11.83-7.34-8.37-2.42-18-2.41-25.14,3.14-4,3.12-7.16,8.87-5.39,13.87a23,23,0,0,1-1.71-7.59c-.05-1.06.06-8.33,1.29-8.59a13.56,13.56,0,0,0-9.2,7.54A48.78,48.78,0,0,1,26.33,594a17.12,17.12,0,0,0-11.89,7.79A22.94,22.94,0,0,1,20,592.13a16.63,16.63,0,0,0-7.7,4.35l9.08-8.7a13.72,13.72,0,0,0-11.65,6.07c6.18-9,12.16-10.58,22.15-10.66a17.93,17.93,0,0,0-14.93-2.36c7.21-3.77,15.57-2.76,23.42-1.67a25,25,0,0,0-20.17-4.07c13.2-1.12,28.25-1.18,37.22,9.4l-3.25-5.69a38.88,38.88,0,0,1,13.27,13.49c.71,1.19,1.57,2.56,2.86,2.61,1.89.07,2.8-3,1.74-4.71s-3.11-2.24-5-2.45a3.46,3.46,0,0,1,4.52-.61,8.9,8.9,0,0,0-6.79-3.87,2.49,2.49,0,0,1,3.77-.12,7.29,7.29,0,0,0-8.13-3.75,5.25,5.25,0,0,1,5.5-2.41A6,6,0,0,0,58,573.39a6.8,6.8,0,0,1,6.23-3c-.42-3-5.3-3.21-6-.21a8.2,8.2,0,0,1,2.7-6.43c-1.24-1.08-3.22-.37-4.22,1a11,11,0,0,0-1.54,5,20.32,20.32,0,0,1,.29-10.47c-1.43-1-3.67.22-3.84,2.09l.67-5.12-9.58.37a22.31,22.31,0,0,1,6.23-3.24,20.84,20.84,0,0,0-8.63-9.56,17.77,17.77,0,0,1,9.3,6.59,11.93,11.93,0,0,0,1-7.44l4.31,5.62a8.73,8.73,0,0,0-2.54-8c5.91,1.85,10.5,7.87,11.18,14.64L63.78,545a115.3,115.3,0,0,1,16.56,45.71c.33,2.38,2,5.56,3.84,4.22.91-.67,1-2.09.92-3.28A32.33,32.33,0,0,0,79.35,575a3.89,3.89,0,0,1,4.64.51,9.43,9.43,0,0,0-7.37-7.46,7.62,7.62,0,0,1,5.48-.75,9.79,9.79,0,0,0-7.49-5.65,14.1,14.1,0,0,1,5.94-.62,11.88,11.88,0,0,0-8.4-7.1,6.23,6.23,0,0,1,7.33-1.06c-.38-5.13-5.62-9-10.09-7.43a7.15,7.15,0,0,1,8.47-2.06,14.62,14.62,0,0,0-10.36-3.78l8-2.85a37.69,37.69,0,0,0-19.71-17.25,75.08,75.08,0,0,1,20.08,9.89c.33.23.29-8.31,0-9.2.91,4.88,2.19,9.77,3.31,14.63a19.9,19.9,0,0,0,3-5.45,38.19,38.19,0,0,1,.87,16.14,27.13,27.13,0,0,0,5.41-16.68C88.63,548.65,88.21,568.55,88.91,588.3Z"/><path class="cls-58" d="M85.38,599.19c2.73-6.53,2.87-14.93,4.82-21.92a89.57,89.57,0,0,1,9.16-22.06c3.46-5.79,8.3-11.54,15.27-13.68a54.24,54.24,0,0,1-10.89,17.94,74.84,74.84,0,0,1,19-8.55c2.62-.77,6-1.21,7.55.68A149.67,149.67,0,0,1,101,562.9c7.29-2.36,14.64-4.74,22.26-5.78s15.61-.66,22.35,2.31l-28.86,4.4a9.39,9.39,0,0,1,8.17,4.61,28.65,28.65,0,0,0-12.05.19c3.71.37,6.68,3.45,6.53,6.77-4.42-4.63-13.61-4.78-18.67-.3l17.13,1.74a37.75,37.75,0,0,0-16.79,4,55.56,55.56,0,0,0,16.46,1.8l-16.62,3.63a26.48,26.48,0,0,1,11.58,3.13,24.89,24.89,0,0,0-11.39.86,6.31,6.31,0,0,0,5.71,3.51,14.87,14.87,0,0,0-7.69,3.72,1.74,1.74,0,0,0-.73,1.23c0,.72,1,1.13,1.83,1a4.57,4.57,0,0,0,2-1.28l32.6-30.18a13.36,13.36,0,0,0-1.92,8,42.91,42.91,0,0,1,12.38-8.42,21.52,21.52,0,0,0-5.69,6.86,29.66,29.66,0,0,1,18.76-2.78,35.82,35.82,0,0,0-14.46,4.5,34.94,34.94,0,0,1,16,.31,17.38,17.38,0,0,0-8.33,2.2,24.21,24.21,0,0,0,12.33-.23,4.74,4.74,0,0,1-3.19,2.43,23,23,0,0,1,7,2.1,32.66,32.66,0,0,0-13.1.11,18.42,18.42,0,0,1,12.3,5.29,32.82,32.82,0,0,0-10.47-2.07,60.38,60.38,0,0,0,9.66,6.05,26.51,26.51,0,0,1-8-1.52l4.8,5.53a41.41,41.41,0,0,0-13.13-5.52,15.2,15.2,0,0,0,5.72,6.26,25.71,25.71,0,0,1-7.44-3.62,12.37,12.37,0,0,1-.13,5c-2.76-5.35-9.24-8.93-16-8.84l3.27,5.42-8.61-2.56a10.27,10.27,0,0,0,3.46,5.67,18.53,18.53,0,0,1-8.39-.42v4.21a16,16,0,0,0-9.57-.89,3.93,3.93,0,0,0,2,2.88,4.18,4.18,0,0,0-4.11,2.5c5.44.54,10.82-1.64,16.1-3.23a78.69,78.69,0,0,1,31.42-2.82,28.58,28.58,0,0,0-10.22,3.62,107.08,107.08,0,0,1,12.41-.08c-4.2.82-8.4,1.6-12.6,2.39,2.23-.38,8.9,4.26,11,5.34l-5.53-.61,1.19,4a12.78,12.78,0,0,0-7.4-4.54c.09,0,1.85,3.12,2.83,3.55-2.36.76-4.64-2.86-6.84-1.38a1.82,1.82,0,0,0,0,2.8,6.57,6.57,0,0,0,3.14,1.3c7.3,1.68,14.55,3.67,21.12,6.84,6.15,3,12.56,7.62,16,13.24a31.33,31.33,0,0,0-10.21-3.93c2.62,2,3.76,4.84,5.72,7.3s4.41,5,6.07,7.79c-6.67-1-13.59-11.42-16.19-16.42-1.71.66-1.22,2.88-.43,4.32l5.48,9.95a24.43,24.43,0,0,0-8.13-7.21l-.41,2.7a44.86,44.86,0,0,0-6.06-11.51l.42,9.39a93.78,93.78,0,0,0-3.69-9c-.53-1.12-2.19-2.35-3-1.32a1.6,1.6,0,0,0,0,1.52l2.07,6.22a24.48,24.48,0,0,1-4.57-7l-.2,7.52L145,629.58a2.06,2.06,0,0,0-1.3-1.23c-1.34-.26-2,1.55-1.57,2.68s1.49,2.19,1.16,3.39c-2.31-3.48-7.28-11.29-13.24-8.67a2.62,2.62,0,0,0-1.37,1.17c-.62,1.33.92,2.53,2.26,3.26l20.36,11-3.22.73c1.94-.44,8.84,15.7,9.57,17.44a98.25,98.25,0,0,1,6.17,20.94,7.59,7.59,0,0,0-4.49-4.8,6.1,6.1,0,0,0-.55,6.19A24.78,24.78,0,0,1,157,667.22a26.62,26.62,0,0,0-3.34,7.13,21.17,21.17,0,0,1,.4-10.88l-2.47,4-.44-13.71a5.43,5.43,0,0,0-1.67,6.28,56.41,56.41,0,0,1-4.05-12.53,30.49,30.49,0,0,0-3.31,7.75c-.86-1.59-1-3.43-1.39-5.17a6.17,6.17,0,0,0-3-4.41c-1.74-.86-4.53-.16-5,1.61-.28,1.12.44,2.2,1.19,3.1A30.53,30.53,0,0,0,145.91,659l-6.24-1.45a43.09,43.09,0,0,1,5.68,6.27c1,1.33,2.52,5.68,3.82,6.4-1.62-.93-3.24-2.17-5.1-2.58,1,6.16,4.29,11.09,1.73,17.67a37.92,37.92,0,0,0-4-12.57,77.81,77.81,0,0,1-4,7.46c1.37-2.25,1.09-6.09.57-8.39a6.76,6.76,0,0,1-5,2.15,7.19,7.19,0,0,0,2.09-5.22l-4.89.83a30.6,30.6,0,0,0,4.3-7.8,5.26,5.26,0,0,0-5.13,2.21,7.61,7.61,0,0,0-1.1,5.18c-1.12-3-.39-5.73.26-8.73-1,.11-4.29,1.63-4.25,2.88-.12-3.55.82-9.21-.75-12.29a5.08,5.08,0,0,0-3.1,6.19,32,32,0,0,1-1.58-11.45,7.29,7.29,0,0,0-2,9c-1-4.89-2-9.84-4.47-14.24-2.71-4.78-6.62-7.33-12-9.49,2.85,3.14,4.31,7.08,5.9,10.88a143.21,143.21,0,0,0,25.51,40.24l-8.08-3.8a15.41,15.41,0,0,0,8.31,9.73,12.6,12.6,0,0,1-9-4.42,16.55,16.55,0,0,1-3.67,13.3,23.78,23.78,0,0,0,.12-15.05l-5.39,11.41a17.06,17.06,0,0,0-.59-9.5,5.76,5.76,0,0,0-2.39,4.5,27.81,27.81,0,0,0-.17-10.41,8.93,8.93,0,0,0-3.68,7.28,34.25,34.25,0,0,1,1.8-12.76c-2.45.28-4.16,3-3.07,4.92a8,8,0,0,1,0-8.12,10,10,0,0,0-3.85,2.4l4.32-9.38a6.39,6.39,0,0,0-5.4,3.89c-1.53-4.23,4.9-9.1,2.47-13a2,2,0,0,0-1-.87c-1.2-.43-2.52.66-2.9,1.78s-.23,2.33-.64,3.44c-1.14-2.3.35-5,1.55-7.33s2-5.45-.1-7.13a9.77,9.77,0,0,0-2.13,7.55,15.25,15.25,0,0,1-1.93-9.43c.29-2.4,1.07-5.1-.52-7s-5.16-1.89-7.36-.36a7.73,7.73,0,0,0-3.13,6.55,20.32,20.32,0,0,0,1.86,7,11.59,11.59,0,0,1-5.22-8.31,45.4,45.4,0,0,0,.27,14.3,10.65,10.65,0,0,1-4.22-5.31,37.83,37.83,0,0,0,6.77,12.71,9.12,9.12,0,0,1-6-3.58A22.67,22.67,0,0,0,85,671.4a30.2,30.2,0,0,1-6.31-5.16A42.71,42.71,0,0,0,81,683.9,90.39,90.39,0,0,0,74.88,673c-2.25,1.51-2.46,4.45-1.68,6.76s2.31,4.38,2.86,6.75a9.83,9.83,0,0,1-4.32,10,34.82,34.82,0,0,0-3-17.22,28.78,28.78,0,0,0-1,15,22,22,0,0,1-2.51-18.07,29.4,29.4,0,0,1-8.71,4.17c-3.19.73-6.89.27-8.95-1.89,5.79.48,11.9-2.54,14.62-7.2A5.57,5.57,0,0,0,57.31,673a87.58,87.58,0,0,1,21-36.74A5.82,5.82,0,0,0,80,633.73a1.8,1.8,0,0,0-1.5-2.23,2.72,2.72,0,0,0-1.36.31c-3.49,1.59-4.56,5.51-5,8.92a18.77,18.77,0,0,1-1.35-9.28l-2.43,12.43-4.47-8.83a13.74,13.74,0,0,0,3.83,15,14.42,14.42,0,0,1-8.07-11.21,54.71,54.71,0,0,0-1.95,12.46,53.51,53.51,0,0,1-3.46-12.61,11,11,0,0,0-1.65,13.18A9.15,9.15,0,0,1,48,644.48a19.77,19.77,0,0,0,.43,12.22A7.57,7.57,0,0,1,44,649.78a11.9,11.9,0,0,0-.45,10.63,6.72,6.72,0,0,1-4-4.28,36.84,36.84,0,0,0-5.07,14.93c.14-1.31-3.41-5.13-4-6.81a19.78,19.78,0,0,1,.45-13.94,13.69,13.69,0,0,0-9.08,6.21c9.29-13.62,24.83-23.94,42.07-27.95,2.1-.48,4.32-.92,6-2.19,4-3,2.4-8.14-.65-10.87-3.45-3.09-8.61-4.47-13.41-5.1-9.27-1.21-19.65-.21-27,5.32-4.12,3.11-7,8.38-4.72,12.51a16.55,16.55,0,0,1-2.47-6.36c-.14-.91-.61-7.19.71-7.54A14.55,14.55,0,0,0,13,621.79a38.69,38.69,0,0,1,5-11.17A19.52,19.52,0,0,0,5.8,618.56a19.43,19.43,0,0,1,5.19-8.9,19.77,19.77,0,0,0-8,4.55l9.13-8.44A16.4,16.4,0,0,0,0,612.21c6-8.36,12.32-10.38,23.14-11.49a23.78,23.78,0,0,0-16.37-.48c7.51-4,16.64-4,25.24-3.87A32.86,32.86,0,0,0,9.83,595c14.21-2.34,30.51-4,41.08,4.23l-4-4.57a38.85,38.85,0,0,1,15.46,10.25c.86,1,1.9,2,3.31,2,2-.13,2.79-2.87,1.5-4.24S63.66,601,61.61,601a4.49,4.49,0,0,1,4.85-1,10.48,10.48,0,0,0-7.66-2.63,3.19,3.19,0,0,1,4.07-.49,8.76,8.76,0,0,0-9.11-2.39,6.42,6.42,0,0,1,5.76-2.65c-1.52-2.7-5.79-3.79-8.87-2.27a8.22,8.22,0,0,1,6.5-3.21c-.7-2.58-6-2.21-6.5.45A6.49,6.49,0,0,1,53.06,581c-1.44-.8-3.52,0-4.5,1.31a8.39,8.39,0,0,0-1.27,4.45,14.26,14.26,0,0,1-.53-9.06c-1.62-.72-3.95.57-4,2.21l.32-4.49-10.35,1.31a26.85,26.85,0,0,1,6.49-3.43,20.2,20.2,0,0,0-10.11-7.34,19.83,19.83,0,0,1,10.59,4.7,8.41,8.41,0,0,0,.5-6.51l5.12,4.39a6.66,6.66,0,0,0-3.39-6.6c6.55,1,12,5.69,13.29,11.45l-.56-8.91a87.75,87.75,0,0,1,21.62,37.67c.55,2,2.62,4.58,4.5,3.24.93-.67.91-1.91.73-2.93A24.47,24.47,0,0,0,74,588.77a5.06,5.06,0,0,1,5.06,0c-1.18-3.21-4.72-5.55-8.58-5.66a10.14,10.14,0,0,1,5.87-1.22,10.68,10.68,0,0,0-8.57-4.09,19.09,19.09,0,0,1,6.39-1.15,12.53,12.53,0,0,0-9.67-5.24,8.15,8.15,0,0,1,7.85-1.69c-.82-4.38-6.81-7.15-11.53-5.34a9.18,9.18,0,0,1,9-2.66,18.41,18.41,0,0,0-11.53-2.18l8.46-3.29A39.45,39.45,0,0,0,44,543.38a91.52,91.52,0,0,1,22.54,6.44c.38.16-.35-7.19-.7-7.94,1.38,4.11,3.16,8.2,4.76,12.27a16.51,16.51,0,0,0,2.8-5A26.53,26.53,0,0,1,75.64,563,20.53,20.53,0,0,0,80.15,548C81.88,565.06,83,582.25,85.38,599.19Z"/><path class="cls-59" d="M80,616.9c.23-4.41-1.41-9.58-1.72-14.15A57,57,0,0,1,79,587.88c.81-4.06,2.43-8.29,6-10.63a32.6,32.6,0,0,1-2.61,12.6,39.36,39.36,0,0,1,9.2-8c1.36-.85,3.19-1.62,4.5-.7a78.21,78.21,0,0,1-14.6,11.25,68.55,68.55,0,0,1,11.65-6.82,23.77,23.77,0,0,1,13.37-1.87l-15.75,6.94a6,6,0,0,1,5.66,1.63,15.66,15.66,0,0,0-6.91,1.89,4.8,4.8,0,0,1,5.16,3.19c-3.5-2.19-8.84-.93-10.83,2.56l10.23-1.46a20.09,20.09,0,0,0-8.86,4.94A31.32,31.32,0,0,0,95.13,602l-8.84,4.67a15.62,15.62,0,0,1,7.32.22,13.36,13.36,0,0,0-6.39,2.2,4.08,4.08,0,0,0,4,1.31,7.91,7.91,0,0,0-3.68,3.41,1.08,1.08,0,0,0-.16.86.91.91,0,0,0,1.25.32,2.48,2.48,0,0,0,.89-1.08l12.62-23.3a8.84,8.84,0,0,0,.54,5.2,23,23,0,0,1,5.41-7,12.5,12.5,0,0,0-1.88,5,16,16,0,0,1,10.26-4.46,18.84,18.84,0,0,0-7.42,4.89,19.29,19.29,0,0,1,9.27-2.17,9.28,9.28,0,0,0-4.36,2.58,13.16,13.16,0,0,0,7.07-2,2.59,2.59,0,0,1-1.34,2,13.71,13.71,0,0,1,4.47.26,18.21,18.21,0,0,0-7.54,2,11.51,11.51,0,0,1,8.18,1.44,18.94,18.94,0,0,0-6.46.27,39.22,39.22,0,0,0,6.81,2.29,15.34,15.34,0,0,1-4.92.24l3.89,2.68a25.67,25.67,0,0,0-8.7-1.45,10.6,10.6,0,0,0,4.58,3,16.39,16.39,0,0,1-5-1.12,8.68,8.68,0,0,1,1,3.1,11.46,11.46,0,0,0-11-3.06l3,2.84-5.48-.31a7.35,7.35,0,0,0,3.15,3,10.39,10.39,0,0,1-4.92,1l.86,2.58a9,9,0,0,0-5.7.86,2.74,2.74,0,0,0,1.71,1.48,2.27,2.27,0,0,0-1.86,2.14c3.25-.48,5.9-2.6,8.62-4.35a42.58,42.58,0,0,1,17.55-6.36,14.9,14.9,0,0,0-5.15,3.73,58.11,58.11,0,0,1,7.14-1.88c-2.25,1.12-4.52,2.22-6.78,3.33,1.21-.57,6,1.3,7.45,1.65l-3.32.44,1.51,2.27a8.24,8.24,0,0,0-5.2-1.68c.06,0,1.71,1.63,2.36,1.76-1.2.8-3.26-1.08-4.22.15a1.24,1.24,0,0,0,.55,1.73,4.16,4.16,0,0,0,2.08.33,60,60,0,0,1,13.59,1.08c4.15.91,8.8,2.83,11.95,5.76a19.44,19.44,0,0,0-6.69-.91c1.92.86,3.15,2.42,4.79,3.64a52.65,52.65,0,0,1,5.1,3.88c-4,.37-10.18-5-12.7-7.69-.85.66-.12,2,.64,2.72l5.19,5.29A16.69,16.69,0,0,0,134,629.6l.32,1.71a32.85,32.85,0,0,0-5.86-6.16l2.17,5.69q-1.87-2.58-4-5c-.54-.61-1.75-1.12-2-.37a1.11,1.11,0,0,0,.3.94l2.47,3.5a17.57,17.57,0,0,1-4.09-3.64l1.44,4.64-4.12-4.18a1.44,1.44,0,0,0-1-.56c-.83,0-.86,1.25-.36,1.87s1.31,1.13,1.37,1.91c-2-1.79-6.52-5.84-9.42-3.36a1.44,1.44,0,0,0-.55.92c-.08.9,1,1.42,2,1.66l14,3.74-1.7.93c1-.56,8.32,8.32,9.1,9.28a72.38,72.38,0,0,1,7.85,11.92,5.33,5.33,0,0,0-3.58-2.28,4.15,4.15,0,0,0,1,3.87,17.62,17.62,0,0,1-4-8.6,16.29,16.29,0,0,0-.46,4.87,14.8,14.8,0,0,1-2-6.73l-.6,2.8-3.07-8.33a3.53,3.53,0,0,0,.33,4.09,40.4,40.4,0,0,1-4.91-7.09,18.83,18.83,0,0,0-.32,5.24,14.18,14.18,0,0,1-1.86-3,4.44,4.44,0,0,0-2.62-2.27c-1.18-.27-2.65.57-2.53,1.72a2.7,2.7,0,0,0,1.32,1.72,20.42,20.42,0,0,0,8.65,3.54l-3.9,0a29.19,29.19,0,0,1,4.56,3c.85.68,2.62,3.11,3.52,3.37a11.89,11.89,0,0,0-3.47-.84c1.82,3.64,4.76,6.17,4.63,10.58a27.78,27.78,0,0,0-4.89-7.12,45.43,45.43,0,0,1-.78,5.17c.33-1.59-.62-3.9-1.39-5.23a3.6,3.6,0,0,1-2.45,2,4.57,4.57,0,0,0,.14-3.5l-2.65,1.23a18.56,18.56,0,0,0,.87-5.42,2.81,2.81,0,0,0-2.5,2.11,5.12,5.12,0,0,0,.43,3.34c-1.26-1.67-1.4-3.46-1.64-5.39-.57.22-2.15,1.63-1.86,2.39-.8-2.16-1.42-5.77-3-7.42a3.15,3.15,0,0,0-.52,4.25,23,23,0,0,1-3.26-6.79,4.83,4.83,0,0,0,.67,5.83,33.69,33.69,0,0,0-5.5-8.07c-2.54-2.54-5.32-3.52-8.86-4.05,2.29,1.5,3.94,3.7,5.63,5.8a103.34,103.34,0,0,0,23,20.9l-5.44-1.14a10.79,10.79,0,0,0,6.79,4.74,8,8,0,0,1-6.12-1.37,10.8,10.8,0,0,1,.61,8.69,16.6,16.6,0,0,0-3-9.24l-.78,7.78a12,12,0,0,0-2.28-5.73,3.52,3.52,0,0,0-.46,3.11,19.61,19.61,0,0,0-2.23-6.36,5.48,5.48,0,0,0-.63,5,23.46,23.46,0,0,1-1.58-8.09,2.19,2.19,0,0,0-.76,3.47,5.55,5.55,0,0,1-1.64-5,5.48,5.48,0,0,0-1.73,2l.57-6.39a3.51,3.51,0,0,0-2.32,3.18c-1.75-2.37,1-6.29-1.23-8.3a1.33,1.33,0,0,0-.76-.39c-.78-.09-1.32.78-1.3,1.52s.34,1.46.33,2.2c-1.12-1.24-.81-3.09-.6-4.72s0-3.63-1.53-4.36a6.43,6.43,0,0,0,.32,4.94,11.12,11.12,0,0,1-3-5.49c-.32-1.51-.42-3.28-1.73-4.21a3.33,3.33,0,0,0-4.32.86,4.8,4.8,0,0,0-.46,4.48,14.67,14.67,0,0,0,2.51,4,8.31,8.31,0,0,1-4.72-4.32,32.29,32.29,0,0,0,3.09,8.72A7.53,7.53,0,0,1,86,647.88a27.69,27.69,0,0,0,6.52,6.8,6,6,0,0,1-4.19-1.31,16.51,16.51,0,0,0,6.29,7.84,20.48,20.48,0,0,1-4.7-2.23,30.51,30.51,0,0,0,5,10.48,68.3,68.3,0,0,0-5.77-5.77c-1,1.26-.51,3.09.41,4.39s2.24,2.35,3,3.72a6.18,6.18,0,0,1-.44,6.77,25.14,25.14,0,0,0-5.28-10.11,20,20,0,0,0,2.49,9.33,15.69,15.69,0,0,1-5.15-10.7A15.84,15.84,0,0,1,80,670.92a5.67,5.67,0,0,1-5.55.16,8.55,8.55,0,0,0,7-6.57A3,3,0,0,0,79,666.29a53,53,0,0,1,4.55-25.6,3.53,3.53,0,0,0,.46-1.83,1.27,1.27,0,0,0-1.33-1.15,1.51,1.51,0,0,0-.71.39c-1.69,1.49-1.5,4-1.07,6.21a13.54,13.54,0,0,1-2.68-5.49l1.15,8L75,642.05a9.81,9.81,0,0,0,5.29,8.62A10.19,10.19,0,0,1,73.29,645a36.78,36.78,0,0,0,1.42,7.92,39.29,39.29,0,0,1-4.58-7.22A7.47,7.47,0,0,0,71.88,654a6.58,6.58,0,0,1-4.15-3.86,14,14,0,0,0,2.76,7.43,5.39,5.39,0,0,1-4-3.59,8.23,8.23,0,0,0,1.93,6.58,4.67,4.67,0,0,1-3.17-2,23.77,23.77,0,0,0,.14,9.9c-.19-.82-3-2.64-3.7-3.59a13.81,13.81,0,0,1-2.6-8.61,7.4,7.4,0,0,0-4,5.15,38.2,38.2,0,0,1,18.53-23.33,8.09,8.09,0,0,0,3-2.22c1.69-2.46-.28-5.34-2.61-6.57-2.62-1.38-5.87-1.47-8.77-1.15-5.6.62-11.38,2.76-14.47,7.23-1.74,2.51-2.35,6.18-.16,8.36a12,12,0,0,1-2.73-3.53c-.27-.54-1.82-4.32-1.14-4.73a8,8,0,0,0-3.87,5.95,24.54,24.54,0,0,1,.6-7.59,10.49,10.49,0,0,0-5.43,6.67,11.77,11.77,0,0,1,1.17-6.22,10.54,10.54,0,0,0-3.68,4l3.54-6.52a8.76,8.76,0,0,0-5.68,5.73c1.74-6,5-8.17,11-10.45a13.24,13.24,0,0,0-9.54,2.12c3.51-3.56,8.78-4.9,13.76-6.09a18.44,18.44,0,0,0-13.08,2.4c7.72-3.52,16.79-6.91,24.56-3.45l-3.23-2.21a25.5,25.5,0,0,1,11,4,2.84,2.84,0,0,0,2.31.71c1.16-.38,1-2.17,0-2.82a4.56,4.56,0,0,0-3.56-.15,2.43,2.43,0,0,1,2.6-1.33,6.35,6.35,0,0,0-5-.48,1.74,1.74,0,0,1,2.24-.9,5.21,5.21,0,0,0-5.74-.13,3.44,3.44,0,0,1,2.78-2.47,4.21,4.21,0,0,0-5.58-.08,4.37,4.37,0,0,1,3.09-2.93c-.93-1.47-3.92-.47-3.66,1.23a4.13,4.13,0,0,1,.19-3.92A2.06,2.06,0,0,0,55.3,612a5.47,5.47,0,0,0,.18,2.91,10.1,10.1,0,0,1-2.16-5.47,1.64,1.64,0,0,0-1.85,1.93l-.74-2.79L45,610.87a14,14,0,0,1,3-3.06,13.43,13.43,0,0,0-7.34-3,12.28,12.28,0,0,1,7.08,1.32,5.86,5.86,0,0,0-1.05-4.06L50.62,604a4.78,4.78,0,0,0-3.32-3.54,10.72,10.72,0,0,1,10,5.06l-2.15-5.38A63.5,63.5,0,0,1,75.37,620c.73,1.15,2.45,2.42,3.25,1.32a1.83,1.83,0,0,0-.17-1.9,17.68,17.68,0,0,0-7.17-7.27,2.81,2.81,0,0,1,2.91-.78,6.18,6.18,0,0,0-6.11-2.2,5.39,5.39,0,0,1,3.13-1.61,6.68,6.68,0,0,0-5.78-1.25,10.08,10.08,0,0,1,3.45-1.64,8,8,0,0,0-6.65-1.8,4.38,4.38,0,0,1,4.18-2.18,5.49,5.49,0,0,0-7.74-1.58,4.9,4.9,0,0,1,4.65-3,10.75,10.75,0,0,0-7.1.36l4.21-3.26a25.43,25.43,0,0,0-15.75-4.51,54.53,54.53,0,0,1,14.32.63c.25,0-1.68-4.36-2-4.76,1.64,2.31,3.51,4.56,5.26,6.82a10.1,10.1,0,0,0,.59-3.48A19,19,0,0,1,67,596.13a13.34,13.34,0,0,0-.46-9.82C71,596.49,75.17,606.86,80,616.9Z"/><path class="cls-58" d="M102,634.43c2.13,5.57,8.14,11.51,8.14,11.51C107.11,636,102,634.43,102,634.43Z"/><path class="cls-58" d="M81.07,586.43l3.42,7.27-1,1.3h0C77.72,595,81.07,586.43,81.07,586.43Z"/><polygon class="cls-58" points="69.95 614.2 73.64 616.25 71.19 612.76 69.95 614.2"/><line class="cls-50" x1="490.11" y1="679" x2="427.61" y2="659.33"/><line class="cls-50" x1="490.11" y1="698" x2="427.61" y2="678.33"/><line class="cls-50" x1="447.11" y1="649" x2="447.11" y2="702"/><line class="cls-50" x1="470.11" y1="655" x2="470.11" y2="710"/><rect class="cls-91" x="310.11" y="-310" width="767" height="1387" transform="translate(310.11 1077.11) rotate(-90)"/></g></svg>