<svg xmlns="http://www.w3.org/2000/svg" xmlns:xlink="http://www.w3.org/1999/xlink" viewBox="0 0 1390.11 623"><defs><style>.cls-1{fill:#c1a69d;}.cls-2{fill:#514841;}.cls-3{fill:#bc8b71;}.cls-4{fill:#3a2618;}.cls-4,.cls-5,.cls-6{stroke:#fcda97;}.cls-17,.cls-26,.cls-27,.cls-4,.cls-40,.cls-42,.cls-47,.cls-5,.cls-6{stroke-linecap:round;}.cls-10,.cls-11,.cls-17,.cls-18,.cls-26,.cls-27,.cls-28,.cls-33,.cls-34,.cls-35,.cls-4,.cls-42,.cls-44,.cls-46,.cls-47,.cls-5,.cls-50,.cls-52,.cls-57,.cls-6,.cls-62,.cls-63,.cls-64,.cls-65,.cls-66,.cls-67,.cls-68,.cls-69,.cls-70,.cls-71,.cls-72,.cls-73,.cls-74,.cls-75,.cls-76,.cls-77,.cls-78,.cls-79,.cls-80,.cls-81,.cls-82,.cls-83,.cls-84,.cls-85,.cls-86,.cls-87,.cls-88,.cls-89,.cls-90,.cls-91,.cls-92{stroke-miterlimit:10;}.cls-33,.cls-34,.cls-35,.cls-4{stroke-width:8px;}.cls-11,.cls-17,.cls-26,.cls-27,.cls-40,.cls-42,.cls-46,.cls-47,.cls-5,.cls-57,.cls-6,.cls-62,.cls-63,.cls-64,.cls-65,.cls-66,.cls-67,.cls-68,.cls-69,.cls-70,.cls-71,.cls-72,.cls-73,.cls-74,.cls-75,.cls-76,.cls-77,.cls-78,.cls-79,.cls-80,.cls-81,.cls-82,.cls-83,.cls-84,.cls-85,.cls-86,.cls-87,.cls-88,.cls-89,.cls-90,.cls-91,.cls-92{fill:none;}.cls-27,.cls-28,.cls-42,.cls-5{stroke-width:4px;}.cls-17,.cls-18,.cls-6{stroke-width:5px;}.cls-18,.cls-7{fill:#c68458;}.cls-35,.cls-8{fill:#3a2513;}.cls-28,.cls-50,.cls-9{fill:#8e4626;}.cls-10{fill:#fcda97;}.cls-10,.cls-11{stroke:#8c513a;}.cls-10,.cls-11,.cls-26,.cls-44,.cls-46,.cls-47,.cls-52,.cls-57{stroke-width:2px;}.cls-12{fill:#e2ab49;}.cls-13{fill:#d3bcb6;}.cls-14{fill:#d3b9ae;}.cls-15{fill:#c27435;}.cls-16{fill:#b76732;}.cls-17{stroke:#3a2513;}.cls-18{stroke:#efc69a;}.cls-19{fill:#b25734;}.cls-20{fill:#9b482f;}.cls-21{fill:#cc9456;}.cls-22{fill:#c18952;}.cls-23{fill:#b27e4f;}.cls-24{fill:#28190d;}.cls-25{fill:#b57f4e;}.cls-26{stroke:#b57c48;}.cls-27{stroke:#3a2618;}.cls-28,.cls-50{stroke:#e5af9a;}.cls-29{fill:#e5af9a;}.cls-30{fill:url(#linear-gradient);}.cls-31{fill:url(#linear-gradient-2);}.cls-32,.cls-33{fill:#e2b79a;}.cls-33,.cls-35{stroke:#b28170;}.cls-34{fill:#e0b9a4;stroke:url(#linear-gradient-3);}.cls-36{fill:#c16136;}.cls-37{fill:#db9579;}.cls-38{fill:#844025;}.cls-39{fill:#bf7f6b;}.cls-40{stroke:#000;stroke-linejoin:round;stroke-width:0.5px;}.cls-41,.cls-44{fill:#cec1be;}.cls-42,.cls-46,.cls-47{stroke:#773b24;}.cls-43{fill:#562718;}.cls-44,.cls-52{stroke:#894a38;}.cls-45{fill:#bfb4b2;}.cls-48{fill:#773b24;}.cls-49{fill:#c98871;}.cls-50{stroke-width:7px;}.cls-51{fill:#c69c8f;}.cls-52{fill:#a08d8a;}.cls-53{fill:#d37854;}.cls-54{fill:#d88366;}.cls-55{fill:#a55130;}.cls-56{fill:url(#linear-gradient-4);}.cls-57{stroke:#b76732;}.cls-58{fill:url(#linear-gradient-5);}.cls-59{fill:url(#linear-gradient-6);}.cls-60{fill:#306025;}.cls-61{fill:#4b7c40;}.cls-62{stroke:url(#linear-gradient-7);}.cls-63{stroke:url(#linear-gradient-8);}.cls-64{stroke:url(#linear-gradient-9);}.cls-65{stroke:url(#linear-gradient-10);}.cls-66{stroke:url(#linear-gradient-11);}.cls-67{stroke:url(#linear-gradient-12);}.cls-68{stroke:url(#linear-gradient-13);}.cls-69{stroke:url(#linear-gradient-14);}.cls-70{stroke:url(#linear-gradient-15);}.cls-71{stroke:url(#linear-gradient-16);}.cls-72{stroke:url(#linear-gradient-17);}.cls-73{stroke:url(#linear-gradient-18);}.cls-74{stroke:url(#linear-gradient-19);}.cls-75{stroke:url(#linear-gradient-20);}.cls-76{stroke:url(#linear-gradient-21);}.cls-77{stroke:url(#linear-gradient-22);}.cls-78{stroke:url(#linear-gradient-23);}.cls-79{stroke:url(#linear-gradient-24);}.cls-80{stroke:url(#linear-gradient-25);}.cls-81{stroke:url(#linear-gradient-26);}.cls-82{stroke:url(#linear-gradient-27);}.cls-83{stroke:url(#linear-gradient-28);}.cls-84{stroke:url(#linear-gradient-29);}.cls-85{stroke:url(#linear-gradient-30);}.cls-86{stroke:url(#linear-gradient-31);}.cls-87{stroke:url(#linear-gradient-32);}.cls-88{stroke:url(#linear-gradient-33);}.cls-89{stroke:url(#linear-gradient-34);}.cls-90{stroke:url(#linear-gradient-35);}.cls-91{stroke:url(#linear-gradient-36);}.cls-92{stroke:url(#linear-gradient-37);}</style><linearGradient id="linear-gradient" x1="327.11" y1="353.71" x2="346.11" y2="353.71" gradientUnits="userSpaceOnUse"><stop offset="0" stop-color="#fff"/><stop offset="0" stop-color="#d7b2a0"/><stop offset="0" stop-color="#c59075"/><stop offset="1" stop-color="#b77655"/></linearGradient><linearGradient id="linear-gradient-2" x1="452.11" y1="353.71" x2="471.11" y2="353.71" xlink:href="#linear-gradient"/><linearGradient id="linear-gradient-3" x1="335.4" y1="497.53" x2="335.4" y2="497.53" xlink:href="#linear-gradient"/><linearGradient id="linear-gradient-4" x1="651" y1="516.79" x2="688" y2="516.79" gradientUnits="userSpaceOnUse"><stop offset="0" stop-color="#fff"/><stop offset="0" stop-color="#d9af93"/><stop offset="0" stop-color="#c78960"/><stop offset="1" stop-color="#b76732"/></linearGradient><linearGradient id="linear-gradient-5" x1="992" y1="516.79" x2="1029" y2="516.79" xlink:href="#linear-gradient-4"/><linearGradient id="linear-gradient-6" x1="52" y1="695.5" x2="114" y2="695.5" gradientUnits="userSpaceOnUse"><stop offset="0" stop-color="#fff"/><stop offset="0" stop-color="#cbc0a9"/><stop offset="1" stop-color="#89713d"/></linearGradient><linearGradient id="linear-gradient-7" x1="80.12" y1="710.71" x2="102.22" y2="710.71" xlink:href="#linear-gradient-6"/><linearGradient id="linear-gradient-8" x1="81.12" y1="713.71" x2="103.22" y2="713.71" xlink:href="#linear-gradient-6"/><linearGradient id="linear-gradient-9" x1="81.12" y1="716.71" x2="103.22" y2="716.71" xlink:href="#linear-gradient-6"/><linearGradient id="linear-gradient-10" x1="82.12" y1="719.71" x2="104.22" y2="719.71" xlink:href="#linear-gradient-6"/><linearGradient id="linear-gradient-11" x1="79.12" y1="704.71" x2="101.22" y2="704.71" xlink:href="#linear-gradient-6"/><linearGradient id="linear-gradient-12" x1="80.12" y1="707.71" x2="102.22" y2="707.71" xlink:href="#linear-gradient-6"/><linearGradient id="linear-gradient-13" x1="78.11" y1="698.71" x2="99.23" y2="698.71" xlink:href="#linear-gradient-6"/><linearGradient id="linear-gradient-14" x1="79.14" y1="702.2" x2="99.18" y2="702.2" xlink:href="#linear-gradient-6"/><linearGradient id="linear-gradient-15" x1="82.12" y1="722.71" x2="104.22" y2="722.71" xlink:href="#linear-gradient-6"/><linearGradient id="linear-gradient-16" x1="83.12" y1="725.71" x2="105.22" y2="725.71" xlink:href="#linear-gradient-6"/><linearGradient id="linear-gradient-17" x1="83.12" y1="728.71" x2="105.22" y2="728.71" xlink:href="#linear-gradient-6"/><linearGradient id="linear-gradient-18" x1="84.12" y1="731.71" x2="106.22" y2="731.71" xlink:href="#linear-gradient-6"/><linearGradient id="linear-gradient-19" x1="84.12" y1="734.71" x2="106.22" y2="734.71" xlink:href="#linear-gradient-6"/><linearGradient id="linear-gradient-20" x1="85.12" y1="737.71" x2="107.22" y2="737.71" xlink:href="#linear-gradient-6"/><linearGradient id="linear-gradient-21" x1="85.12" y1="740.71" x2="107.22" y2="740.71" xlink:href="#linear-gradient-6"/><linearGradient id="linear-gradient-22" x1="85.12" y1="743.71" x2="107.22" y2="743.71" xlink:href="#linear-gradient-6"/><linearGradient id="linear-gradient-23" x1="85.12" y1="746.71" x2="107.22" y2="746.71" xlink:href="#linear-gradient-6"/><linearGradient id="linear-gradient-24" x1="86.12" y1="749.71" x2="108.22" y2="749.71" xlink:href="#linear-gradient-6"/><linearGradient id="linear-gradient-25" x1="86.12" y1="753.71" x2="108.22" y2="753.71" xlink:href="#linear-gradient-6"/><linearGradient id="linear-gradient-26" x1="87.12" y1="756.71" x2="109.22" y2="756.71" xlink:href="#linear-gradient-6"/><linearGradient id="linear-gradient-27" x1="87.12" y1="759.71" x2="109.22" y2="759.71" xlink:href="#linear-gradient-6"/><linearGradient id="linear-gradient-28" x1="87.12" y1="762.71" x2="109.22" y2="762.71" xlink:href="#linear-gradient-6"/><linearGradient id="linear-gradient-29" x1="87.12" y1="765.71" x2="109.22" y2="765.71" xlink:href="#linear-gradient-6"/><linearGradient id="linear-gradient-30" x1="76.12" y1="689.71" x2="98.22" y2="689.71" xlink:href="#linear-gradient-6"/><linearGradient id="linear-gradient-31" x1="77.12" y1="692.71" x2="99.22" y2="692.71" xlink:href="#linear-gradient-6"/><linearGradient id="linear-gradient-32" x1="77.12" y1="695.71" x2="99.22" y2="695.71" xlink:href="#linear-gradient-6"/><linearGradient id="linear-gradient-33" x1="75.12" y1="683.71" x2="97.22" y2="683.71" xlink:href="#linear-gradient-6"/><linearGradient id="linear-gradient-34" x1="76.12" y1="686.71" x2="98.22" y2="686.71" xlink:href="#linear-gradient-6"/><linearGradient id="linear-gradient-35" x1="75.14" y1="681.2" x2="95.18" y2="681.2" xlink:href="#linear-gradient-6"/><linearGradient id="linear-gradient-36" x1="72.12" y1="674.71" x2="94.22" y2="674.71" xlink:href="#linear-gradient-6"/><linearGradient id="linear-gradient-37" x1="73.12" y1="677.71" x2="95.22" y2="677.71" xlink:href="#linear-gradient-6"/></defs><title>usccopy</title><g id="Layer_12" data-name="Layer 12"><polyline class="cls-1" points="998.11 319.69 1184.11 319.69 1184.11 444.76 945.11 454.77 943.11 389.73"/><path class="cls-2" d="M961,432.17h205l-1,33H970l-5-31" transform="translate(23.11 -145.5)"/><path class="cls-3" d="M947,410.53h0c11-2.37,16.72,0,16.72,0h0" transform="translate(23.11 -145.5)"/><path class="cls-2" d="M1234,432.17c132,0,132,.33,132,.33v20.68H1234Z" transform="translate(23.11 -145.5)"/><path class="cls-4" d="M498,653" transform="translate(23.11 -145.5)"/></g><g id="Layer_10" data-name="Layer 10"><line class="cls-4" x1="1219.11" y1="60.03" x2="1219.11" y2="98.56"/><ellipse class="cls-5" cx="1217.61" cy="30.02" rx="28" ry="28.02"/><path class="cls-6" d="M1167,171.5c10.17,2.59,20.66,3,30.82.14,7.53-2.16,14.44-5.81,21.57-9" transform="translate(23.11 -145.5)"/><path class="cls-6" d="M1169,185.5c30.15,12,53.5-8.12,53.5-8.12" transform="translate(23.11 -145.5)"/><path class="cls-5" d="M1185.2,149.09c-4.7,34.44,9.3,54.45,9.3,54.45" transform="translate(23.11 -145.5)"/><path class="cls-5" d="M1190.88,149c7.63,34.2,13,52,13,52" transform="translate(23.11 -145.5)"/><path class="cls-5" d="M1211.16,198c13.34-19.51-10.66-48.51-10.66-48.51" transform="translate(23.11 -145.5)"/><path class="cls-6" d="M1176.19,154.33c-6.69,28.19,8,47.26,8,47.26" transform="translate(23.11 -145.5)"/><path class="cls-7" d="M1109,558.25c-.57-.29-.81-6.41-.87-15-.14-21.38.87-58,.87-58l20.92-39,21.92,39h166.36l47.82-32V669.31H1109" transform="translate(23.11 -145.5)"/><polygon class="cls-8" points="1152.03 300.68 1175.13 339.7 1342.89 339.7 1390.11 307.68 1188.19 307.68 1152.03 300.68"/><polygon class="cls-9" points="1137.11 343.81 1151.11 318.69 1166.11 343.81 1166.11 424.75 1137.11 424.75 1137.11 343.81"/><rect class="cls-9" x="1177.11" y="376.72" width="171" height="10.01"/><rect class="cls-9" x="1177.11" y="392.73" width="171" height="10.01"/><rect class="cls-9" x="1177.11" y="409.74" width="171" height="10.01"/><rect class="cls-9" x="1178.11" y="427.75" width="171" height="10.01"/><rect class="cls-9" x="1177.11" y="446.77" width="171" height="10.01"/><rect class="cls-9" x="1177.11" y="360.71" width="171" height="10.01"/><rect class="cls-9" x="1177.11" y="344.71" width="171" height="10.01"/><path class="cls-10" d="M1336.12,490.21c14.94-26,28.39-23.51,28.39-23.51v23.51Z" transform="translate(23.11 -145.5)"/><rect class="cls-10" x="1359.23" y="360.71" width="28.89" height="46.03"/><line class="cls-11" x1="1366.2" y1="360.71" x2="1366.2" y2="406.74"/><line class="cls-11" x1="1359.23" y1="370.72" x2="1388.11" y2="370.72"/><line class="cls-11" x1="1359.23" y1="397.74" x2="1387.12" y2="397.74"/><rect class="cls-10" x="1359.23" y="419.75" width="28.89" height="46.03"/><line class="cls-11" x1="1366.2" y1="419.75" x2="1366.2" y2="465.78"/><line class="cls-11" x1="1359.23" y1="429.76" x2="1388.11" y2="429.76"/><line class="cls-11" x1="1359.23" y1="456.77" x2="1387.12" y2="456.77"/><path class="cls-12" d="M933,439.17h43c-2-35-23-31-23-31C931,414.16,933,439.17,933,439.17Z" transform="translate(23.11 -145.5)"/><rect class="cls-13" x="956.11" y="293.67" width="43" height="22.01"/><rect class="cls-1" x="953.11" y="314.69" width="49" height="6"/><rect class="cls-13" x="949.11" y="320.69" width="56" height="6"/><rect class="cls-1" x="947.11" y="326.69" width="60" height="6"/><polygon class="cls-13" points="947.11 332.7 939.11 343.31 939.11 419.75 1015.11 419.75 1015.11 353.93 1007.11 332.7 947.11 332.7"/><rect class="cls-14" x="956.11" y="290.67" width="43" height="6"/><path class="cls-8" d="M945.5,411.42a42.74,42.74,0,0,1,19.5-.26,16.56,16.56,0,0,0-2-2,15.07,15.07,0,0,0-3.25-2.14,11.55,11.55,0,0,0-6.92-.81A16.91,16.91,0,0,0,945.5,411.42Z" transform="translate(23.11 -145.5)"/><rect class="cls-8" x="977.11" y="252.65" width="3" height="9.01"/><circle class="cls-8" cx="978.61" cy="249.15" r="4.5"/><rect class="cls-8" x="977.11" y="236.64" width="3" height="9.01"/><path class="cls-8" d="M955.53,372.33c-.17-.17-2.42.95-3.33,3.17s-.61,5.5,1.74,7,4.94.15,5.23,0a6.61,6.61,0,0,0,3.34-4.92c-2.09,2.22-5.05,2.66-6.83,1.43a4.19,4.19,0,0,1-1.74-3.49C954,373.63,955.68,372.48,955.53,372.33Z" transform="translate(23.11 -145.5)"/><rect class="cls-2" x="962.11" y="294.68" width="4" height="17.01"/><rect class="cls-2" x="969.11" y="294.68" width="4" height="17.01"/><rect class="cls-2" x="976.11" y="294.68" width="4" height="17.01"/><rect class="cls-2" x="983.11" y="294.68" width="4" height="17.01"/><rect class="cls-2" x="990.11" y="294.68" width="4" height="17.01"/><rect class="cls-9" x="1075.11" y="449.77" width="171" height="10.01"/><rect class="cls-9" x="1075.11" y="449.77" width="171" height="10.01"/><rect class="cls-9" x="1178.11" y="464.78" width="171" height="10.01"/></g><g id="Layer_7" data-name="Layer 7"><polygon class="cls-15" points="761.11 407.74 761.11 98.56 948.11 98.56 952.11 431.76 761.11 431.76 761.11 407.74"/><polygon class="cls-16" points="761.11 98.56 712.11 111.57 712.11 426.75 761.11 431.76 761.11 98.56"/><line class="cls-17" x1="782.11" y1="419.75" x2="780.11" y2="108.56"/><line class="cls-17" x1="793.11" y1="419.75" x2="791.11" y2="108.56"/><line class="cls-17" x1="803.11" y1="419.75" x2="801.11" y2="108.56"/><line class="cls-17" x1="814.11" y1="419.75" x2="812.11" y2="108.56"/><line class="cls-17" x1="824.11" y1="419.75" x2="822.11" y2="108.56"/><line class="cls-17" x1="835.11" y1="419.75" x2="833.11" y2="108.56"/><line class="cls-17" x1="845.11" y1="419.75" x2="843.11" y2="108.56"/><line class="cls-17" x1="856.11" y1="419.75" x2="854.11" y2="108.56"/><line class="cls-17" x1="867.11" y1="419.75" x2="865.11" y2="108.56"/><line class="cls-17" x1="878.11" y1="419.75" x2="876.11" y2="108.56"/><line class="cls-17" x1="888.11" y1="419.75" x2="886.11" y2="108.56"/><line class="cls-17" x1="899.11" y1="419.75" x2="897.11" y2="108.56"/><line class="cls-17" x1="910.11" y1="419.75" x2="908.11" y2="108.56"/><line class="cls-17" x1="921.11" y1="419.75" x2="919.11" y2="108.56"/><line class="cls-17" x1="931.11" y1="419.75" x2="929.11" y2="108.56"/><line class="cls-17" x1="941.11" y1="418.75" x2="939.11" y2="107.56"/><path class="cls-18" d="M1189.5,591.27l-5-373.22c22,10,48,0,48,0l2,374.22Z" transform="translate(23.11 -145.5)"/><path class="cls-18" d="M1160.36,218.45a.57.57,0,0,0-.37.59q.2,8.21.24,16.41l.12,17.13.15,21.69.17,25.41.19,28.26.21,30.27.21,31.41.22,31.7.21,31.14.2,29.72.19,27.44.17,24.31.14,20.32.11,15.48.07,9.78,0,3.24,22.89,0L1180.12,218a24.38,24.38,0,0,1-8.42,2.17,20.53,20.53,0,0,1-6.33-.7C1164.53,219.3,1161.43,218,1160.36,218.45Z" transform="translate(23.11 -145.5)"/><polygon class="cls-19" points="312.11 422.75 312.11 211.63 489.1 211.63 490.11 453.77 312.11 453.77 312.11 422.75"/><polygon class="cls-20" points="312.11 211.63 290.11 216.63 290.11 440.76 312.61 440.76 312.11 211.63"/><rect class="cls-21" x="312.11" y="196.62" width="177" height="16.01"/><polygon class="cls-22" points="290.11 202.62 290.11 216.63 312.11 212.63 312.11 196.62 290.11 202.62"/><polygon class="cls-23" points="290.11 202.62 284.11 194.62 312.11 185.61 312.11 196.62 290.11 202.62"/><polygon class="cls-22" points="312.11 185.61 496.11 185.61 489.11 196.62 312.11 196.62 312.11 185.61"/><polygon class="cls-8" points="312.11 185.61 391.11 127.58 496.11 185.61 312.11 185.61"/><polyline class="cls-24" points="312.11 185.61 284.11 194.62 391.11 127.58"/><path class="cls-25" d="M291.25,358.13l-.25-10c-.15-5.82,10-6.38,10,0v10Z" transform="translate(23.11 -145.5)"/><path class="cls-25" d="M304.25,358.13l-.25-10c-.15-5.82,10-6.38,10,0v10Z" transform="translate(23.11 -145.5)"/><path class="cls-25" d="M318.25,358.13l-.25-10c-.15-5.82,10-6.38,10,0v10Z" transform="translate(23.11 -145.5)"/><path class="cls-25" d="M332.25,358.13l-.25-10c-.15-5.82,10-6.38,10,0v10Z" transform="translate(23.11 -145.5)"/><path class="cls-25" d="M345.25,358.13l-.25-10c-.15-5.82,10-6.38,10,0v10Z" transform="translate(23.11 -145.5)"/><path class="cls-25" d="M359.25,358.13l-.25-10c-.15-5.82,10-6.38,10,0v10Z" transform="translate(23.11 -145.5)"/><path class="cls-25" d="M373.25,358.13l-.25-10c-.15-5.82,10-6.38,10,0v10Z" transform="translate(23.11 -145.5)"/><path class="cls-25" d="M386.25,358.13l-.25-10c-.15-5.82,10-6.38,10,0v10Z" transform="translate(23.11 -145.5)"/><path class="cls-25" d="M400.25,358.13l-.25-10c-.15-5.82,10-6.38,10,0v10Z" transform="translate(23.11 -145.5)"/><path class="cls-25" d="M414.25,358.13l-.25-10c-.15-5.82,10-6.38,10,0v10Z" transform="translate(23.11 -145.5)"/><path class="cls-25" d="M427.25,358.13l-.25-10c-.15-5.82,10-6.38,10,0v10Z" transform="translate(23.11 -145.5)"/><path class="cls-25" d="M441.25,358.13l-.25-10c-.15-5.82,10-6.38,10,0v10Z" transform="translate(23.11 -145.5)"/><path class="cls-25" d="M454.25,358.13l-.25-10c-.15-5.82,10-6.38,10,0v10Z" transform="translate(23.11 -145.5)"/><line class="cls-26" x1="313.61" y1="195.12" x2="318.61" y2="188.11"/><line class="cls-26" x1="319.61" y1="195.12" x2="324.61" y2="188.11"/><line class="cls-26" x1="325.61" y1="195.12" x2="330.61" y2="188.11"/><line class="cls-26" x1="331.61" y1="195.12" x2="336.61" y2="188.11"/><line class="cls-26" x1="337.61" y1="195.12" x2="342.61" y2="188.11"/><line class="cls-26" x1="343.61" y1="195.12" x2="348.61" y2="188.11"/><line class="cls-26" x1="349.61" y1="195.12" x2="354.61" y2="188.11"/><line class="cls-26" x1="355.61" y1="195.12" x2="360.61" y2="188.11"/><line class="cls-26" x1="361.61" y1="195.12" x2="366.61" y2="188.11"/><line class="cls-26" x1="367.61" y1="195.12" x2="372.61" y2="188.11"/><line class="cls-26" x1="373.61" y1="195.12" x2="378.61" y2="188.11"/><line class="cls-26" x1="379.61" y1="195.12" x2="384.61" y2="188.11"/><line class="cls-26" x1="385.61" y1="195.12" x2="390.61" y2="188.11"/><line class="cls-26" x1="391.61" y1="195.12" x2="396.61" y2="188.11"/><line class="cls-26" x1="397.61" y1="195.12" x2="402.61" y2="188.11"/><line class="cls-26" x1="403.61" y1="195.12" x2="408.61" y2="188.11"/><line class="cls-26" x1="409.61" y1="195.12" x2="414.61" y2="188.11"/><line class="cls-26" x1="415.61" y1="195.12" x2="420.61" y2="188.11"/><line class="cls-26" x1="421.61" y1="195.12" x2="426.61" y2="188.11"/><line class="cls-26" x1="427.61" y1="195.12" x2="432.61" y2="188.11"/><line class="cls-26" x1="433.61" y1="195.12" x2="438.61" y2="188.11"/><line class="cls-26" x1="439.61" y1="195.12" x2="444.61" y2="188.11"/><line class="cls-26" x1="445.61" y1="195.12" x2="450.61" y2="188.11"/><line class="cls-26" x1="451.61" y1="195.12" x2="456.61" y2="188.11"/><line class="cls-26" x1="457.61" y1="195.12" x2="462.61" y2="188.11"/><line class="cls-26" x1="463.61" y1="195.12" x2="468.61" y2="188.11"/><line class="cls-26" x1="469.61" y1="195.12" x2="474.61" y2="188.11"/><line class="cls-26" x1="475.61" y1="195.12" x2="480.61" y2="188.11"/><line class="cls-26" x1="481.61" y1="195.12" x2="486.61" y2="188.11"/><line class="cls-26" x1="487.61" y1="195.12" x2="492.61" y2="188.11"/><line class="cls-27" x1="1223.01" y1="123.62" x2="1222.79" y2="89.71"/><line class="cls-27" x1="1233.01" y1="123.57" x2="1232.79" y2="89.66"/><line class="cls-27" x1="1243.01" y1="123.4" x2="1242.8" y2="89.49"/><line class="cls-27" x1="1194.61" y1="124.07" x2="1194.79" y2="89.76"/></g><g id="Layer_11" data-name="Layer 11"><path class="cls-20" d="M322,608.14l.41-50.51c.14-17.62.08-35-.12-52.55-.24-21.25,1.9-44.91,19.22-59.49,15-12.66,36.41-15.54,54.77-9,24.52,8.78,32.59,31.19,32.78,55.46l.42,54.9.52,68.32-108,1Z" transform="translate(23.11 -145.5)"/><path class="cls-28" d="M326.88,412.06l-.29-30.4c0-2.79,2.44-6.1,6.29-6.94,4.71-1,8.75,2.61,9.62,5.66l.3,31.52Z" transform="translate(23.11 -145.5)"/><path class="cls-28" d="M343.31,411.9l-.29-30.4c0-2.79,2.44-6.1,6.29-6.94,4.71-1,8.75,2.61,9.62,5.66l.3,31.52Z" transform="translate(23.11 -145.5)"/><path class="cls-28" d="M360.25,411.23,360,381.55c0-2.72,2.44-6,6.29-6.78a8.59,8.59,0,0,1,9.62,5.53l.3,30.78Z" transform="translate(23.11 -145.5)"/><path class="cls-28" d="M376.69,411.24l-.29-29.81c0-2.73,2.44-6,6.29-6.81a8.59,8.59,0,0,1,9.62,5.55l.3,30.92Z" transform="translate(23.11 -145.5)"/><path class="cls-28" d="M393.12,411.42l-.29-30.4c0-2.79,2.44-6.1,6.29-6.94,4.71-1,8.75,2.61,9.62,5.66l.3,31.52Z" transform="translate(23.11 -145.5)"/><path class="cls-28" d="M410.07,411.63l-.29-30.4c0-2.79,2.44-6.1,6.29-6.94,4.71-1,8.75,2.61,9.62,5.66l.3,31.52Z" transform="translate(23.11 -145.5)"/><rect class="cls-29" x="347.61" y="266.16" width="104" height="2.5"/><rect class="cls-30" x="327.11" y="270.66" width="19" height="166.1"/><rect class="cls-31" x="452.11" y="270.66" width="19" height="166.1"/><rect class="cls-32" x="449.11" y="264.66" width="25" height="8"/><rect class="cls-32" x="324.11" y="264.66" width="25" height="8"/><path class="cls-33" d="M335,590.53l.31-40.58c.11-14.15.06-28.1-.09-42.22-.18-17.07,1.44-36.08,14.55-47.8,11.39-10.17,27.57-12.49,41.47-7.21,18.57,7.05,24.68,25.05,24.82,44.55l.32,44.11.39,54.88-81.77.82Z" transform="translate(23.11 -145.5)"/><path class="cls-34" d="M335.4,497.53" transform="translate(23.11 -145.5)"/><path class="cls-35" d="M335.65,614.67,334.6,505.34c-.1-10,6.15-21.9,15.91-24.9,12-3.68,22.27,9.49,24.5,20.46l1.09,113.39Z" transform="translate(23.11 -145.5)"/><path class="cls-35" d="M378.87,614.68l-1.05-109.33c-.1-10,5.73-21.9,14.84-24.89,11.17-3.67,20.8,9.5,22.89,20.47l1.09,113.38Z" transform="translate(23.11 -145.5)"/><ellipse class="cls-33" cx="399.11" cy="323.69" rx="14" ry="14.01"/></g><g id="Layer_5" data-name="Layer 5"><g id="_Group_" data-name="&lt;Group&gt;"><polygon class="cls-36" points="1388.61 508.55 1388.61 622.5 521.61 622.5 521.61 527.51 521.61 526.86 1388.61 508.55"/><path class="cls-37" d="M1365.5,639v15.09l-867,18.31V654.82l.32-.86.12,0Z" transform="translate(23.11 -145.5)"/><path class="cls-9" d="M1365.5,639,498.94,654l-.12,0,37.79-101.68,1.31-.54h604.69Z" transform="translate(23.11 -145.5)"/><path class="cls-38" d="M482.18,574.68l54.43-22.39L498.82,654,382.42,616Z" transform="translate(23.11 -145.5)"/><polygon class="cls-9" points="550.86 410.28 505.29 429.18 405.11 470.4 404.61 470.28 117.61 473.11 117.61 410.28 550.86 410.28"/><path class="cls-39" d="M382.42,616,498.82,654l-.32.86V673l-117-39.4,0-.82V616.42Z" transform="translate(23.11 -145.5)"/><polygon class="cls-19" points="521.61 527.51 521.61 622.5 409.61 622.5 404.64 488.11 521.61 527.51"/><polygon class="cls-9" points="505.29 429.18 405.53 470.54 405.11 470.4 505.29 429.18"/><polygon class="cls-36" points="404.64 488.11 409.61 622.5 117.61 621.49 117.61 473.11 404.61 470.28 405.11 470.4 405.53 470.54 404.61 470.92 404.61 487.29 404.61 488.1 404.64 488.11"/><path class="cls-40" d="M536.78,551.82l-.17.46" transform="translate(23.11 -145.5)"/></g><path class="cls-41" d="M727.6,727" transform="translate(23.11 -145.5)"/><rect class="cls-36" x="96.11" y="474" width="28.5" height="149"/></g><g id="Layer_6" data-name="Layer 6"><line class="cls-42" x1="539.61" y1="470.28" x2="550.61" y2="504.3"/><line class="cls-42" x1="544.61" y1="458.27" x2="560.11" y2="502.8"/><line class="cls-42" x1="549.61" y1="444.26" x2="570.11" y2="502.8"/><line class="cls-42" x1="556.11" y1="437.76" x2="580.11" y2="502.8"/><line class="cls-42" x1="572.56" y1="411.11" x2="605.92" y2="501.41"/><line class="cls-42" x1="582.46" y1="409.72" x2="616" y2="501.27"/><line class="cls-42" x1="592.63" y1="410.21" x2="626.14" y2="501.53"/><line class="cls-42" x1="602.7" y1="410.06" x2="636.07" y2="500.4"/><line class="cls-42" x1="612.82" y1="410.19" x2="646.07" y2="499.68"/><line class="cls-42" x1="622.9" y1="410.04" x2="656.17" y2="499.67"/><line class="cls-42" x1="631.98" y1="410.02" x2="665.25" y2="499.65"/><line class="cls-42" x1="642.08" y1="410.01" x2="675.21" y2="498.66"/><line class="cls-42" x1="652.19" y1="410.14" x2="685.41" y2="499.35"/><line class="cls-42" x1="662.63" y1="409.21" x2="696.14" y2="500.53"/><line class="cls-42" x1="672.7" y1="409.06" x2="706.07" y2="499.4"/><line class="cls-42" x1="682.82" y1="409.19" x2="716.07" y2="498.68"/><line class="cls-42" x1="692.9" y1="409.04" x2="726.17" y2="498.67"/><line class="cls-42" x1="701.98" y1="409.02" x2="735.25" y2="498.65"/><line class="cls-42" x1="712.17" y1="409.65" x2="745.22" y2="497.7"/><line class="cls-42" x1="722.28" y1="409.76" x2="755.41" y2="498.38"/><line class="cls-42" x1="730.55" y1="408.35" x2="764" y2="499.29"/><line class="cls-42" x1="740.71" y1="408.83" x2="774.14" y2="499.54"/><line class="cls-42" x1="750.79" y1="408.67" x2="784.08" y2="498.4"/><line class="cls-42" x1="761.13" y1="410.41" x2="794.11" y2="497.97"/><line class="cls-42" x1="771.12" y1="409.65" x2="804.21" y2="497.93"/><line class="cls-42" x1="780.21" y1="409.62" x2="813.29" y2="497.9"/><line class="cls-42" x1="790.3" y1="409.59" x2="823.25" y2="496.9"/><line class="cls-42" x1="800.41" y1="409.69" x2="833.44" y2="497.57"/><line class="cls-42" x1="810.85" y1="408.76" x2="844.16" y2="498.71"/><line class="cls-42" x1="820.92" y1="408.59" x2="854.1" y2="497.57"/><line class="cls-42" x1="831.03" y1="408.69" x2="864.09" y2="496.84"/><line class="cls-42" x1="841.11" y1="408.52" x2="874.19" y2="496.81"/><line class="cls-42" x1="850.34" y1="409.6" x2="883.27" y2="496.78"/><line class="cls-42" x1="860.28" y1="408.46" x2="893.23" y2="495.78"/><line class="cls-42" x1="870.4" y1="408.56" x2="903.42" y2="496.44"/><line class="cls-42" x1="878.28" y1="408.42" x2="911.22" y2="495.74"/><line class="cls-42" x1="888.39" y1="408.53" x2="921.42" y2="496.4"/><line class="cls-42" x1="899.15" y1="409.92" x2="932.14" y2="497.57"/><line class="cls-42" x1="909.22" y1="409.72" x2="942.08" y2="496.42"/><line class="cls-42" x1="919.33" y1="409.79" x2="952.07" y2="495.68"/><line class="cls-42" x1="929.65" y1="411.4" x2="962.24" y2="496.18"/><line class="cls-42" x1="938.73" y1="411.33" x2="971.32" y2="496.1"/><line class="cls-42" x1="948.81" y1="411.24" x2="981.27" y2="495.08"/><line class="cls-42" x1="958.92" y1="411.29" x2="991.45" y2="495.67"/><line class="cls-42" x1="967.19" y1="409.89" x2="1000.03" y2="496.47"/><line class="cls-42" x1="977.34" y1="410.28" x2="1010.15" y2="496.65"/><line class="cls-42" x1="987.41" y1="410.06" x2="1020.09" y2="495.5"/><line class="cls-42" x1="997.51" y1="410.11" x2="1030.08" y2="494.75"/><line class="cls-42" x1="1007.58" y1="409.89" x2="1040.17" y2="494.66"/><line class="cls-42" x1="1015.98" y1="405.02" x2="1049.25" y2="494.65"/><line class="cls-42" x1="1026.08" y1="405.01" x2="1059.21" y2="493.66"/><line class="cls-42" x1="1036.19" y1="405.13" x2="1069.41" y2="494.35"/><line class="cls-42" x1="1045.65" y1="410.4" x2="1081.18" y2="495.8"/><line class="cls-42" x1="1055.72" y1="410.05" x2="1091.09" y2="494.53"/><line class="cls-42" x1="1065.84" y1="409.96" x2="1101.07" y2="493.64"/><line class="cls-42" x1="1075.91" y1="409.6" x2="1111.16" y2="493.41"/><line class="cls-42" x1="1084.99" y1="409.4" x2="1120.25" y2="493.21"/><line class="cls-42" x1="1095.08" y1="409.17" x2="1130.18" y2="492.07"/><line class="cls-42" x1="1105.2" y1="409.08" x2="1140.39" y2="492.5"/><line class="cls-42" x1="1115.3" y1="408.48" x2="1151.8" y2="492.17"/><line class="cls-42" x1="1125.42" y1="408.28" x2="1161.69" y2="490.77"/><line class="cls-42" x1="1137.26" y1="410.3" x2="1173.66" y2="493.54"/><line class="cls-42" x1="1147.32" y1="409.82" x2="1183.75" y2="493.19"/><line class="cls-42" x1="1156.4" y1="409.5" x2="1192.83" y2="492.87"/><line class="cls-42" x1="1167.81" y1="411.39" x2="1202.74" y2="491.35"/><line class="cls-42" x1="1178.3" y1="413.3" x2="1212.96" y2="491.68"/><line class="cls-42" x1="1190.04" y1="420" x2="1223.21" y2="490.01"/><line class="cls-42" x1="1203.19" y1="424.76" x2="1235.03" y2="490.97"/><line class="cls-42" x1="1216.27" y1="429.47" x2="1245.74" y2="490.85"/><line class="cls-42" x1="1228.22" y1="434.13" x2="1257.11" y2="491.79"/><line class="cls-42" x1="563.11" y1="410.74" x2="597.11" y2="502.8"/><line class="cls-42" x1="557.11" y1="419.75" x2="589.11" y2="502.8"/><polyline class="cls-43" points="522.03 507.7 522.11 512.38 1388.19 497.47 1388.11 492.79 522.03 507.7 409.61 471.7"/><rect class="cls-43" x="599.11" y="510.8" width="7" height="8"/><rect class="cls-43" x="553.11" y="510.8" width="7" height="8"/><rect class="cls-43" x="693.11" y="508.8" width="7" height="8"/><rect class="cls-43" x="647.11" y="508.8" width="7" height="8"/><rect class="cls-43" x="779.11" y="507.8" width="7" height="8"/><rect class="cls-43" x="733.11" y="507.8" width="7" height="8"/><rect class="cls-43" x="873.11" y="505.8" width="7" height="8"/><rect class="cls-43" x="827.11" y="505.8" width="7" height="8"/><rect class="cls-43" x="909.11" y="504.8" width="7" height="8"/><rect class="cls-43" x="1003.11" y="502.8" width="7" height="8"/><rect class="cls-43" x="957.11" y="502.8" width="7" height="8"/><rect class="cls-43" x="1089.11" y="501.8" width="7" height="8"/><rect class="cls-43" x="1043.11" y="501.8" width="7" height="8"/><rect class="cls-43" x="1183.11" y="499.8" width="7" height="8"/><rect class="cls-43" x="1137.11" y="499.8" width="7" height="8"/><rect class="cls-43" x="1270.11" y="498.8" width="7" height="8"/><rect class="cls-43" x="1224.11" y="498.8" width="7" height="8"/><rect class="cls-43" x="1364.11" y="496.8" width="7" height="8"/><rect class="cls-43" x="1318.11" y="496.8" width="7" height="8"/><polygon class="cls-44" points="544.11 527.82 596.1 526.81 596.11 585.85 544.11 587.85 544.11 527.82"/><polygon class="cls-44" points="675.21 524.5 622.9 525.58 622.9 585.19 675.21 584.1 675.21 524.5"/><polygon class="cls-44" points="751.11 582.92 750.71 523.57 803.11 522.5 803.11 581.47 751.11 582.92"/><polygon class="cls-44" points="888.2 579.63 888.2 520.22 937.98 519.19 937.98 578.59 888.2 579.63"/><polygon class="cls-44" points="966.46 518.34 966.46 578 1020.08 576.88 1020.08 517.5 966.46 518.34"/><polygon class="cls-44" points="1115.08 514.99 1115.08 574.84 1173.66 573.61 1173.66 513.77 1115.08 514.99"/><polygon class="cls-44" points="1264.62 512.81 1263.74 571.72 1315.61 570.63 1315.61 510.82 1264.62 512.81"/><rect class="cls-45" x="545.11" y="531.82" width="21" height="50.03"/><rect class="cls-45" x="629.11" y="529.17" width="21" height="49.75"/><rect class="cls-45" x="753.11" y="527.76" width="21" height="49.25"/><rect class="cls-45" x="890.11" y="524.3" width="21" height="49.62"/><rect class="cls-45" x="971.11" y="523.3" width="21" height="49.62"/><rect class="cls-45" x="1117.11" y="518.81" width="21" height="50.03"/><rect class="cls-45" x="1267.11" y="515.81" width="21" height="50.03"/><polygon class="cls-37" points="117.11 472.78 384.11 470.28 384.11 480.54 118.12 482.79 117.11 472.78"/><path class="cls-42" d="M99.35,559.45l21,54.05" transform="translate(23.11 -145.5)"/><path class="cls-42" d="M108,559.15l20.72,53.6" transform="translate(23.11 -145.5)"/><line class="cls-42" x1="390.19" y1="374.11" x2="422.72" y2="458.42"/><path class="cls-42" d="M117.32,559.35l21,54.05" transform="translate(23.11 -145.5)"/><path class="cls-42" d="M125.95,559.3l20.72,53.63" transform="translate(23.11 -145.5)"/><path class="cls-42" d="M134.29,559.51l21,54.08" transform="translate(23.11 -145.5)"/><path class="cls-42" d="M142.92,559.21l20.72,53.63" transform="translate(23.11 -145.5)"/><path class="cls-42" d="M152.26,559.41l21,54.08" transform="translate(23.11 -145.5)"/><path class="cls-42" d="M160.89,559.11l20.72,53.63" transform="translate(23.11 -145.5)"/><path class="cls-42" d="M169.29,559.75l21,54.08" transform="translate(23.11 -145.5)"/><path class="cls-42" d="M177.92,559.46l20.72,53.63" transform="translate(23.11 -145.5)"/><path class="cls-42" d="M187.26,559.66l21,54.08" transform="translate(23.11 -145.5)"/><path class="cls-42" d="M195.88,559.36,216.61,613" transform="translate(23.11 -145.5)"/><path class="cls-42" d="M204.23,559.56l21,54.08" transform="translate(23.11 -145.5)"/><path class="cls-42" d="M212.86,559.27l20.72,53.63" transform="translate(23.11 -145.5)"/><path class="cls-42" d="M222.2,559.46l21,54.08" transform="translate(23.11 -145.5)"/><path class="cls-42" d="M230.83,559.17l20.72,53.63" transform="translate(23.11 -145.5)"/><path class="cls-42" d="M241.24,558.86l21,54.08" transform="translate(23.11 -145.5)"/><path class="cls-42" d="M249.87,558.56l20.72,53.63" transform="translate(23.11 -145.5)"/><path class="cls-42" d="M259.21,558.76l21,54.08" transform="translate(23.11 -145.5)"/><path class="cls-42" d="M267.84,558.46l20.72,53.63" transform="translate(23.11 -145.5)"/><path class="cls-42" d="M276.18,558.66l21,54.08" transform="translate(23.11 -145.5)"/><path class="cls-42" d="M284.81,558.37,305.53,612" transform="translate(23.11 -145.5)"/><path class="cls-42" d="M294.15,558.57l21,54.08" transform="translate(23.11 -145.5)"/><path class="cls-42" d="M302.78,558.27,323.5,611.9" transform="translate(23.11 -145.5)"/><path class="cls-42" d="M311.18,558.91l21,54.08" transform="translate(23.11 -145.5)"/><path class="cls-42" d="M319.8,558.62l20.72,53.63" transform="translate(23.11 -145.5)"/><path class="cls-42" d="M329.14,558.81l21,54.08" transform="translate(23.11 -145.5)"/><path class="cls-42" d="M337.77,558.52l20.72,53.63" transform="translate(23.11 -145.5)"/><path class="cls-42" d="M345.95,558.09l21.36,53.81" transform="translate(23.11 -145.5)"/><path class="cls-42" d="M354.69,558.55l21,52.56" transform="translate(23.11 -145.5)"/><path class="cls-42" d="M361.53,558.15l21.76,56.63" transform="translate(23.11 -145.5)"/><path class="cls-42" d="M370.17,557.83l20.72,50.76" transform="translate(23.11 -145.5)"/><path class="cls-42" d="M96.7,574.18l16,39.52" transform="translate(23.11 -145.5)"/><path class="cls-42" d="M98,598l6.09,15.71" transform="translate(23.11 -145.5)"/><line class="cls-42" x1="1242.22" y1="439.14" x2="1268.11" y2="491.79"/><line class="cls-42" x1="1255.22" y1="444.14" x2="1281.3" y2="491.36"/><line class="cls-42" x1="1268.73" y1="448.83" x2="1294.02" y2="490.61"/><line class="cls-42" x1="1284.11" y1="454.77" x2="1306.11" y2="490.79"/><line class="cls-42" x1="1300.11" y1="461.78" x2="1320.11" y2="490.79"/><line class="cls-42" x1="1319.11" y1="469.78" x2="1332.11" y2="489.79"/><line class="cls-42" x1="1334.11" y1="475.78" x2="1343.11" y2="489.79"/><line class="cls-42" x1="1346.11" y1="479.79" x2="1352.11" y2="489.79"/><line class="cls-42" x1="1360.11" y1="484.79" x2="1363.52" y2="489.24"/><line class="cls-42" x1="542.11" y1="503.8" x2="535.11" y2="481.79"/><line class="cls-42" x1="533.11" y1="503.8" x2="531.11" y2="496.8"/><line class="cls-42" x1="417.11" y1="413.75" x2="432.11" y2="453.77"/><line class="cls-42" x1="427.11" y1="414.75" x2="440.11" y2="449.77"/><line class="cls-42" x1="437.11" y1="414.75" x2="449.11" y2="446.77"/><line class="cls-42" x1="447.11" y1="413.75" x2="457.11" y2="443.76"/><line class="cls-42" x1="457.11" y1="413.75" x2="466.11" y2="440.76"/><line class="cls-42" x1="467.11" y1="413.75" x2="474.11" y2="436.76"/><line class="cls-42" x1="477.11" y1="414.75" x2="482.11" y2="433.76"/><line class="cls-42" x1="486.11" y1="415.75" x2="490.11" y2="428.76"/><line class="cls-42" x1="497.11" y1="414.75" x2="500.11" y2="425.75"/><line class="cls-42" x1="507.11" y1="413.75" x2="510.11" y2="422.75"/><line class="cls-42" x1="517.11" y1="413.75" x2="519.11" y2="418.75"/><ellipse class="cls-32" cx="337.11" cy="233.14" rx="4" ry="4.5"/><path class="cls-32" d="M309,410.16q0-8.08,0-16.16,0-3.22,0-6.44a11.69,11.69,0,0,1,0-1.87c.26-2,1.43-4.36,3-4.54a3.11,3.11,0,0,1,.78.08,10.82,10.82,0,0,0,3.22-.08l-1.33-.44c2.16.65,4.33,1.87,4.33,4.45v26Z" transform="translate(23.11 -145.5)"/><ellipse class="cls-32" cx="462.11" cy="233.14" rx="4" ry="4.5"/><path class="cls-32" d="M434,410.16q0-8.08,0-16.16,0-3.22,0-6.44a11.69,11.69,0,0,1,0-1.87c.26-2,1.43-4.36,3-4.54a3.11,3.11,0,0,1,.78.08,10.82,10.82,0,0,0,3.22-.08l-1.33-.44c2.16.65,4.33,1.87,4.33,4.45v26Z" transform="translate(23.11 -145.5)"/></g><g id="Layer_8" data-name="Layer 8"><line class="cls-46" x1="580.11" y1="527.81" x2="580.11" y2="586.85"/><line class="cls-47" x1="560.11" y1="527.81" x2="560.11" y2="586.85"/><line class="cls-46" x1="596.11" y1="544.82" x2="543.61" y2="545.83"/><line class="cls-46" x1="596.09" y1="566.3" x2="543.63" y2="568.38"/><line class="cls-46" x1="659.11" y1="525.19" x2="659.11" y2="583.89"/><line class="cls-47" x1="639.11" y1="525.19" x2="639.11" y2="583.89"/><line class="cls-46" x1="675.11" y1="542.1" x2="622.61" y2="543.1"/><line class="cls-46" x1="675.11" y1="563.99" x2="622.61" y2="564.99"/><line class="cls-46" x1="787.11" y1="523.82" x2="787.11" y2="581.93"/><line class="cls-47" x1="767.11" y1="523.82" x2="767.11" y2="581.93"/><line class="cls-46" x1="803.11" y1="540.57" x2="750.61" y2="541.56"/><line class="cls-46" x1="803.09" y1="561.71" x2="750.63" y2="563.75"/><line class="cls-46" x1="923.11" y1="520.33" x2="923.11" y2="578.88"/><line class="cls-47" x1="903.11" y1="520.33" x2="903.11" y2="578.88"/><line class="cls-46" x1="939.11" y1="537.2" x2="886.61" y2="538.2"/><line class="cls-46" x1="939.11" y1="559.03" x2="886.61" y2="560.03"/><line class="cls-46" x1="1004.11" y1="518.34" x2="1004.11" y2="576.9"/><line class="cls-47" x1="984.11" y1="518.34" x2="984.11" y2="576.9"/><line class="cls-46" x1="1020.11" y1="535.21" x2="967.61" y2="536.21"/><line class="cls-46" x1="1020.11" y1="557.05" x2="967.61" y2="558.05"/><line class="cls-46" x1="1156.43" y1="514.81" x2="1156.43" y2="573.84"/><line class="cls-47" x1="1134.33" y1="514.81" x2="1134.33" y2="573.84"/><line class="cls-46" x1="1174.11" y1="531.82" x2="1116.11" y2="532.83"/><line class="cls-46" x1="1174.1" y1="553.83" x2="1116.11" y2="554.84"/><line class="cls-46" x1="1300.26" y1="511.81" x2="1300.26" y2="570.84"/><line class="cls-47" x1="1280.45" y1="511.81" x2="1280.45" y2="570.84"/><line class="cls-46" x1="1316.11" y1="528.82" x2="1264.11" y2="529.82"/><line class="cls-46" x1="1316.11" y1="550.83" x2="1264.11" y2="551.84"/><rect class="cls-48" x="516" y="730.35" width="63" height="7" transform="translate(-5.46 -123.29) rotate(-2.26)"/><rect class="cls-48" x="595" y="728.39" width="63" height="6.96" transform="translate(9.25 -133.41) rotate(-1.09)"/><rect class="cls-48" x="723" y="725.46" width="63" height="6.89" transform="matrix(1, -0.02, 0.02, 1, 9.47, -131.11)"/><rect class="cls-48" x="859" y="721.41" width="63" height="6.95" transform="translate(9.46 -128.41) rotate(-1.09)"/><rect class="cls-48" x="940" y="719.42" width="63" height="6.95" transform="translate(9.52 -126.87) rotate(-1.09)"/><rect class="cls-48" x="1088" y="718.29" width="67.98" height="7" transform="translate(9.46 -123.83) rotate(-1.1)"/><rect class="cls-48" x="1090" y="718.34" width="63" height="7" transform="translate(9.45 -123.83) rotate(-1.1)"/><rect class="cls-48" x="1236" y="715.34" width="63" height="7" transform="translate(9.54 -121.03) rotate(-1.1)"/><path class="cls-49" d="M98.79,628c.07-3.26-.83-9,4.46-7.4,3.13.92,1.67,5.14,1.78,7.41C104.45,628.06,98.79,628,98.79,628Z" transform="translate(23.11 -145.5)"/><path class="cls-49" d="M108.79,627.95c.07-3.26-.82-9,4.46-7.39,3.13.92,1.66,5.14,1.78,7.41C114.45,628,108.79,627.93,108.79,627.95Z" transform="translate(23.11 -145.5)"/><path class="cls-49" d="M118.79,627.87c.07-3.26-.82-9,4.46-7.39,3.13.92,1.66,5.14,1.78,7.41C124.45,627.89,118.79,627.86,118.79,627.87Z" transform="translate(23.11 -145.5)"/><path class="cls-49" d="M129.78,627c.08-2.83-.8-7.76,4.48-6.4,3.12.81,1.65,4.46,1.76,6.43C135.44,627,129.78,627,129.78,627Z" transform="translate(23.11 -145.5)"/><path class="cls-49" d="M139.77,627.2c.08-2.83-.79-7.77,4.49-6.4,3.12.81,1.65,4.47,1.76,6.44C145.44,627.23,139.78,627.19,139.77,627.2Z" transform="translate(23.11 -145.5)"/><path class="cls-49" d="M149.77,627.17c.08-2.83-.79-7.77,4.49-6.4,3.12.81,1.65,4.47,1.76,6.44C155.44,627.2,149.78,627.15,149.77,627.17Z" transform="translate(23.11 -145.5)"/><path class="cls-49" d="M161.85,627.5c0-3.26-.94-8.94,4.37-7.46,3.14.88,1.73,5.12,1.88,7.39C167.51,627.45,161.85,627.49,161.85,627.5Z" transform="translate(23.11 -145.5)"/><path class="cls-49" d="M171.84,627.28c0-3.26-.93-8.94,4.37-7.45,3.14.88,1.73,5.12,1.87,7.4C177.5,627.23,171.84,627.27,171.84,627.28Z" transform="translate(23.11 -145.5)"/><path class="cls-49" d="M181.84,627.08c0-3.26-.93-8.94,4.37-7.45,3.14.88,1.73,5.12,1.87,7.4C187.5,627,181.84,627.07,181.84,627.08Z" transform="translate(23.11 -145.5)"/><path class="cls-49" d="M192.83,627.07c0-3.26-.91-8.95,4.39-7.44,3.14.89,1.72,5.13,1.85,7.4C198.49,627,192.83,627.05,192.83,627.07Z" transform="translate(23.11 -145.5)"/><path class="cls-49" d="M202.83,626.88c0-3.26-.9-8.95,4.4-7.44,3.13.89,1.71,5.13,1.85,7.4C208.49,626.85,202.83,626.87,202.83,626.88Z" transform="translate(23.11 -145.5)"/><path class="cls-49" d="M212.83,626.71c0-3.26-.9-8.95,4.4-7.44,3.13.89,1.71,5.13,1.85,7.4C218.49,626.68,212.83,626.7,212.83,626.71Z" transform="translate(23.11 -145.5)"/><path class="cls-49" d="M223.84,626.72c0-3.26-.94-8.94,4.37-7.46,3.14.88,1.73,5.12,1.88,7.39C229.5,626.66,223.84,626.7,223.84,626.72Z" transform="translate(23.11 -145.5)"/><path class="cls-49" d="M233.84,626.5c0-3.26-.93-8.94,4.37-7.45,3.14.88,1.73,5.12,1.87,7.4C239.5,626.45,233.84,626.48,233.84,626.5Z" transform="translate(23.11 -145.5)"/><path class="cls-49" d="M243.83,626.3c0-3.26-.93-8.94,4.37-7.45,3.14.88,1.73,5.12,1.87,7.4C249.5,626.25,243.83,626.28,243.83,626.3Z" transform="translate(23.11 -145.5)"/><path class="cls-49" d="M254.83,626.29c0-3.26-.91-8.95,4.39-7.44,3.14.89,1.72,5.13,1.85,7.4C260.49,626.25,254.83,626.27,254.83,626.29Z" transform="translate(23.11 -145.5)"/><path class="cls-49" d="M264.82,626.1c0-3.26-.9-8.95,4.4-7.44,3.13.89,1.71,5.13,1.85,7.4C270.48,626.06,264.82,626.08,264.82,626.1Z" transform="translate(23.11 -145.5)"/><path class="cls-49" d="M274.82,625.93c0-3.26-.9-8.95,4.4-7.44,3.13.89,1.71,5.13,1.85,7.4C280.48,625.89,274.82,625.91,274.82,625.93Z" transform="translate(23.11 -145.5)"/><path class="cls-49" d="M285.82,625.79c0-3.26-.9-8.95,4.4-7.44,3.13.89,1.71,5.13,1.85,7.4C291.48,625.76,285.82,625.77,285.82,625.79Z" transform="translate(23.11 -145.5)"/><path class="cls-49" d="M296.84,625.8c0-3.26-.94-8.94,4.37-7.46,3.14.88,1.73,5.12,1.88,7.39C302.5,625.74,296.84,625.78,296.84,625.8Z" transform="translate(23.11 -145.5)"/><path class="cls-49" d="M306.83,625.58c0-3.26-.93-8.94,4.37-7.45,3.14.88,1.73,5.12,1.87,7.4C312.49,625.52,306.83,625.56,306.83,625.58Z" transform="translate(23.11 -145.5)"/><path class="cls-49" d="M316.83,625.38c0-3.26-.93-8.94,4.37-7.45,3.14.88,1.73,5.12,1.87,7.4C322.49,625.32,316.83,625.36,316.83,625.38Z" transform="translate(23.11 -145.5)"/><path class="cls-49" d="M327.82,625.36c0-3.26-.91-8.95,4.39-7.44,3.14.89,1.72,5.13,1.85,7.4C333.48,625.32,327.82,625.35,327.82,625.36Z" transform="translate(23.11 -145.5)"/><path class="cls-49" d="M337.82,625.18c0-3.26-.9-8.95,4.4-7.44,3.13.89,1.71,5.13,1.85,7.4C343.48,625.14,337.82,625.16,337.82,625.18Z" transform="translate(23.11 -145.5)"/><path class="cls-49" d="M347.79,625.79c.07-3.26-.83-9,4.46-7.4,3.13.92,1.67,5.14,1.79,7.42C353.45,625.81,347.79,625.78,347.79,625.79Z" transform="translate(23.11 -145.5)"/><path class="cls-50" d="M110.29,763.8l-.76-79c-.07-7.25,4.72-15.84,12.2-18,9.17-2.67,17.06,6.85,18.77,14.78l.79,82Z" transform="translate(23.11 -145.5)"/><path class="cls-50" d="M141.46,764.15l-.76-79.29c-.07-7.27,4.72-15.89,12.2-18.07,9.17-2.67,17.06,6.87,18.77,14.83l.79,82.23Z" transform="translate(23.11 -145.5)"/><path class="cls-50" d="M174.46,764.15l-.76-78.74c-.07-7.22,4.72-15.77,12.2-17.94,9.17-2.66,17.06,6.82,18.77,14.72l.79,81.65Z" transform="translate(23.11 -145.5)"/><path class="cls-50" d="M206.46,764.15l-.76-79c-.07-7.24,4.72-15.83,12.2-18,9.17-2.66,17.06,6.85,18.77,14.77l.79,81.91Z" transform="translate(23.11 -145.5)"/><path class="cls-50" d="M238.47,764.15l-.77-80c-.07-7.34,4.72-16,12.2-18.24,9.17-2.7,17.06,6.94,18.77,15l.8,83Z" transform="translate(23.11 -145.5)"/><path class="cls-50" d="M271.47,764.15l-.77-79.5c-.07-7.29,4.72-15.93,12.2-18.11,9.17-2.68,17.06,6.89,18.77,14.87l.8,82.44Z" transform="translate(23.11 -145.5)"/><path class="cls-50" d="M303.47,764.16l-.77-79.75c-.07-7.31,4.72-16,12.2-18.17,9.17-2.69,17.06,6.91,18.77,14.92l.8,82.71Z" transform="translate(23.11 -145.5)"/><path class="cls-50" d="M337.47,764.42l-.78-81c-.07-7.43,4.72-16.24,12.2-18.46,9.17-2.73,17.07,7,18.77,15.16l.81,84Z" transform="translate(23.11 -145.5)"/><rect class="cls-29" x="130.11" y="615.5" width="248" height="7"/></g><g id="Layer_9" data-name="Layer 9"><path class="cls-51" d="M360.5,608.78V543.24a181.83,181.83,0,0,0,26,0v67c-4.7.08-9.71,0-15-.39C367.66,609.61,364,609.23,360.5,608.78Z" transform="translate(23.11 -145.5)"/><path class="cls-51" d="M363.53,544.39a124,124,0,0,1,4.41-26.72c1.48-5.28,10.69-6.55,13.21-1.9a13.65,13.65,0,0,1,1.25,6c.27,8.47,1.06,17,1.75,25.43" transform="translate(23.11 -145.5)"/><polygon class="cls-52" points="428.21 496.8 489.11 516.5 489.11 570.84 428.11 550.46 428.21 496.8"/><path class="cls-53" d="M359,605.27c15,8,29,0,29,0v163.1H354Z" transform="translate(23.11 -145.5)"/><path class="cls-54" d="M388,605.27c-11,5-16.5,3.59-16.5,3.59l-.5,156.5h17V605.27" transform="translate(23.11 -145.5)"/><rect class="cls-38" x="383.11" y="397.74" width="27" height="6"/><rect class="cls-38" x="383.11" y="407.74" width="27" height="6"/><rect class="cls-38" x="383.11" y="417.75" width="27" height="6"/><rect class="cls-38" x="383.11" y="427.75" width="27" height="6"/><rect class="cls-38" x="383.11" y="437.76" width="27" height="6"/><rect class="cls-38" x="383.11" y="447.77" width="27" height="6"/><path class="cls-36" d="M660,536.23v29h23v-29Z" transform="translate(23.11 -145.5)"/><polyline class="cls-55" points="683.11 419.75 669.11 405.74 675.11 386.73 683.11 390.73"/><polygon class="cls-55" points="706.11 419.75 714.11 405.74 710.11 387.73 706.11 390.73 706.11 419.75"/><path class="cls-56" d="M651,533.23a34,34,0,0,0,16,6,32.63,32.63,0,0,0,6,0,34.9,34.9,0,0,0,15-5l-21-40Z" transform="translate(23.11 -145.5)"/><line class="cls-57" x1="690.11" y1="351.71" x2="690.11" y2="344.71"/><circle class="cls-16" cx="690.11" cy="342.7" r="3"/><path class="cls-36" d="M1001,536.23v29h23v-29Z" transform="translate(23.11 -145.5)"/><polyline class="cls-55" points="1024.11 419.75 1010.11 405.74 1016.11 386.73 1024.11 390.73"/><polygon class="cls-55" points="1047.11 419.75 1055.11 405.74 1051.11 387.73 1047.11 390.73 1047.11 419.75"/><path class="cls-58" d="M992,533.23a34,34,0,0,0,16,6,32.63,32.63,0,0,0,6,0,34.9,34.9,0,0,0,15-5l-21-40Z" transform="translate(23.11 -145.5)"/><line class="cls-57" x1="1031.11" y1="351.71" x2="1031.11" y2="344.71"/><circle class="cls-16" cx="1031.11" cy="342.7" r="3"/></g><g id="Layer_13" data-name="Layer 13"><path class="cls-59" d="M52,627c24.24,29.13,34.15,140.61,34.15,140.61L114,768c-8-105.83-46.58-145-46.58-145Z" transform="translate(23.11 -145.5)"/><path class="cls-60" d="M85.21,565.06C83,569,82,568,82,568c-2-1-1.5-8.49-1.5-8.49L79,574l5-.94Z" transform="translate(23.11 -145.5)"/><path class="cls-61" d="M78,592c-7,5-6,12-6,12,5,1,6-1,6-1,2-10,2-11,2-11Z" transform="translate(23.11 -145.5)"/><path class="cls-60" d="M-140,664" transform="translate(23.11 -145.5)"/><path class="cls-62" d="M80.21,711.8A38,38,0,0,0,102,709" transform="translate(23.11 -145.5)"/><path class="cls-63" d="M81.21,714.8A38,38,0,0,0,103,712" transform="translate(23.11 -145.5)"/><path class="cls-64" d="M81.21,717.8A38,38,0,0,0,103,715" transform="translate(23.11 -145.5)"/><path class="cls-65" d="M82.21,720.8A38,38,0,0,0,104,718" transform="translate(23.11 -145.5)"/><path class="cls-66" d="M79.21,705.8A38,38,0,0,0,101,703" transform="translate(23.11 -145.5)"/><path class="cls-67" d="M80.21,708.8A38,38,0,0,0,102,706" transform="translate(23.11 -145.5)"/><path class="cls-68" d="M78.21,699.8A34.78,34.78,0,0,0,99,697" transform="translate(23.11 -145.5)"/><path class="cls-69" d="M79.21,703A43.48,43.48,0,0,0,99,701" transform="translate(23.11 -145.5)"/><path class="cls-70" d="M82.21,723.8A38,38,0,0,0,104,721" transform="translate(23.11 -145.5)"/><path class="cls-71" d="M83.21,726.8A38,38,0,0,0,105,724" transform="translate(23.11 -145.5)"/><path class="cls-72" d="M83.21,729.8A38,38,0,0,0,105,727" transform="translate(23.11 -145.5)"/><path class="cls-73" d="M84.21,732.8A38,38,0,0,0,106,730" transform="translate(23.11 -145.5)"/><path class="cls-74" d="M84.21,735.8A38,38,0,0,0,106,733" transform="translate(23.11 -145.5)"/><path class="cls-75" d="M85.21,738.8A38,38,0,0,0,107,736" transform="translate(23.11 -145.5)"/><path class="cls-76" d="M85.21,741.8A38,38,0,0,0,107,739" transform="translate(23.11 -145.5)"/><path class="cls-77" d="M85.21,744.8A38,38,0,0,0,107,742" transform="translate(23.11 -145.5)"/><path class="cls-78" d="M85.21,747.8A38,38,0,0,0,107,745" transform="translate(23.11 -145.5)"/><path class="cls-79" d="M86.21,750.8A38,38,0,0,0,108,748" transform="translate(23.11 -145.5)"/><path class="cls-80" d="M86.21,754.8A38,38,0,0,0,108,752" transform="translate(23.11 -145.5)"/><path class="cls-81" d="M87.21,757.8A38,38,0,0,0,109,755" transform="translate(23.11 -145.5)"/><path class="cls-82" d="M87.21,760.8A38,38,0,0,0,109,758" transform="translate(23.11 -145.5)"/><path class="cls-83" d="M87.21,763.8A38,38,0,0,0,109,761" transform="translate(23.11 -145.5)"/><path class="cls-84" d="M87.21,766.8A38,38,0,0,0,109,764" transform="translate(23.11 -145.5)"/><path class="cls-85" d="M76.21,690.8A38,38,0,0,0,98,688" transform="translate(23.11 -145.5)"/><path class="cls-86" d="M77.21,693.8A38,38,0,0,0,99,691" transform="translate(23.11 -145.5)"/><path class="cls-87" d="M77.21,696.8A38,38,0,0,0,99,694" transform="translate(23.11 -145.5)"/><path class="cls-88" d="M75.21,684.8A38,38,0,0,0,97,682" transform="translate(23.11 -145.5)"/><path class="cls-89" d="M76.21,687.8A38,38,0,0,0,98,685" transform="translate(23.11 -145.5)"/><path class="cls-90" d="M75.21,682A43.48,43.48,0,0,0,95,680" transform="translate(23.11 -145.5)"/><path class="cls-91" d="M72.21,675.8A38,38,0,0,0,94,673" transform="translate(23.11 -145.5)"/><path class="cls-92" d="M73.21,678.8A38,38,0,0,0,95,676" transform="translate(23.11 -145.5)"/></g><g id="Layer_14" data-name="Layer 14"><path class="cls-61" d="M23.83,596.67,28,600l12.66,6.5a12.7,12.7,0,0,0,4.67,0C44,597,40,596,40,596,22,596,23.83,596.67,23.83,596.67Z" transform="translate(23.11 -145.5)"/><path class="cls-60" d="M84,580.58c3.57-5.61,5.13-13.42,8.08-19.59a85.17,85.17,0,0,1,12-18.94c4.11-4.78,9.46-9.27,16.11-10a50.68,50.68,0,0,1-12.88,14.78,66.38,66.38,0,0,1,18.59-4.57c2.49-.24,5.58-.05,6.69,2a132.81,132.81,0,0,1-28.38,5.27c7-.89,14-1.79,21.06-1.39s14.19,2.2,19.76,6.18l-26.78-1.09a8.76,8.76,0,0,1,6.58,5.78,25.49,25.49,0,0,0-10.9-2c3.28,1,5.44,4.43,4.74,7.5-3.19-5.12-11.46-6.92-16.78-3.65l15.14,4.7a33.52,33.52,0,0,0-15.83.73,49.74,49.74,0,0,0,14.54,4.65l-15.61.4a24,24,0,0,1,9.91,5,22.13,22.13,0,0,0-10.41-1.25,5.87,5.87,0,0,0,4.55,4.3,13.31,13.31,0,0,0-7.57,2.09,1.68,1.68,0,0,0-.87,1c-.1.68.73,1.24,1.48,1.22a4.09,4.09,0,0,0,2-.83l34.55-22.3a12.86,12.86,0,0,0-3.1,7.14,38.58,38.58,0,0,1,12.6-5.63,20,20,0,0,0-6.3,5.38,26.39,26.39,0,0,1,17.4.79,31.76,31.76,0,0,0-13.81,1.6A31.16,31.16,0,0,1,155,573a15.46,15.46,0,0,0-7.89.55,21.48,21.48,0,0,0,11.16,2,4.29,4.29,0,0,1-3.29,1.7,21,21,0,0,1,6,3.22,29.29,29.29,0,0,0-11.84-2.26,17,17,0,0,1,10.2,7.16,29.68,29.68,0,0,0-9.09-3.82,56.25,56.25,0,0,0,7.68,7.39,24,24,0,0,1-7-2.86l3.38,6a38.1,38.1,0,0,0-10.89-7.51,14.6,14.6,0,0,0,4.08,6.87,23.77,23.77,0,0,1-6.09-4.72,12.15,12.15,0,0,1-1,4.67c-1.58-5.49-6.81-10-12.93-11.13l2,5.65L122.18,582a9.93,9.93,0,0,0,2.15,5.92,16.52,16.52,0,0,1-7.49-1.9l-.72,3.92a14.29,14.29,0,0,0-8.48-2.55,3.79,3.79,0,0,0,1.27,3,3.76,3.76,0,0,0-4.14,1.59c4.82,1.48,10,.41,15.07-.12a70,70,0,0,1,28.82,3,25.47,25.47,0,0,0-9.83,1.54,96.8,96.8,0,0,1,11.2,2.16c-3.92,0-7.85,0-11.77,0,2.08,0,7.3,5.58,9,7L142.38,604l.39,4a11.94,11.94,0,0,0-5.9-5.56c.08,0,1.14,3.24,1.95,3.82-2.26.28-3.69-3.51-5.93-2.52a1.76,1.76,0,0,0-.51,2.61,6.11,6.11,0,0,0,2.61,1.78,91.11,91.11,0,0,1,17.88,10.18c5,3.87,10,9.38,12.19,15.24a28.81,28.81,0,0,0-8.54-5.51c2,2.36,2.56,5.19,3.91,7.84a72.6,72.6,0,0,1,4.14,8.36c-5.84-2.13-10.3-13.1-11.79-18.24-1.66.32-1.59,2.47-1.12,4l3.24,10.27a23.28,23.28,0,0,0-6.1-8.18l-.83,2.44a44,44,0,0,0-3.5-11.84l-1.22,8.84a92.21,92.21,0,0,0-1.79-9.08c-.29-1.14-1.57-2.59-2.48-1.77a1.56,1.56,0,0,0-.28,1.41l.81,6.18a24,24,0,0,1-2.92-7.4l-1.46,7-2.57-8.11a2,2,0,0,0-1-1.38c-1.16-.48-2.11,1.08-1.87,2.22s1,2.31.47,3.37c-1.49-3.66-4.64-11.84-10.47-10.47a2.37,2.37,0,0,0-1.43.84c-.78,1.13.4,2.53,1.48,3.45l16.49,13.92-3,.11c1.82-.06,5.29,16.24,5.66,18a96.93,96.93,0,0,1,2,20.65,7.32,7.32,0,0,0-3.23-5.3,5.94,5.94,0,0,0-1.55,5.68,24.28,24.28,0,0,1,.9-13.8,25.13,25.13,0,0,0-4.23,6.06A20.67,20.67,0,0,1,135,652.92l-2.91,3.27L134,643.32a5.19,5.19,0,0,0-2.58,5.56,54.89,54.89,0,0,1-1.52-12.42,28.88,28.88,0,0,0-4.3,6.64,19.49,19.49,0,0,1-.37-5.07,6,6,0,0,0-1.92-4.65c-1.42-1.11-4.06-1-4.75.61a3.67,3.67,0,0,0,.54,3.11,28.88,28.88,0,0,0,9.28,10.2L123,644.81a41,41,0,0,1,4.05,6.87c.66,1.43,1.3,5.76,2.36,6.67-1.3-1.16-2.55-2.61-4.16-3.33-.19,5.92,2,11.13-1.46,16.81a37.19,37.19,0,0,0-1.45-12.45,72.32,72.32,0,0,1-4.89,6.25c1.62-1.85,2-5.49,1.94-7.73a6,6,0,0,1-4.88,1.1,6.82,6.82,0,0,0,2.78-4.49l-4.55-.11a28.64,28.64,0,0,0,5.2-6.51,4.71,4.71,0,0,0-5,1.14,7.38,7.38,0,0,0-1.87,4.64c-.5-3,.62-5.42,1.72-8.1-.94-.08-4.15.75-4.33,1.93.5-3.34,2.31-8.45,1.42-11.6a4.79,4.79,0,0,0-3.86,5.22,31.38,31.38,0,0,1,.53-11,7,7,0,0,0-3.39,8c0-4.73-.11-9.54-1.6-14.09-1.63-5-4.72-8-9.19-11,2,3.44,2.68,7.38,3.46,11.21A139.46,139.46,0,0,0,112,666.41l-6.64-5A14.83,14.83,0,0,0,111.19,672a11.65,11.65,0,0,1-7.39-5.75A15.89,15.89,0,0,1,98.21,678a23.15,23.15,0,0,0,2.68-14l-6.81,9.67a16.71,16.71,0,0,0,1.09-9,5.38,5.38,0,0,0-2.92,3.77,27.46,27.46,0,0,0,1.62-9.75,8.41,8.41,0,0,0-4.56,6.14,33.45,33.45,0,0,1,3.8-11.59c-2.25-.18-4.26,2.08-3.61,4a7.78,7.78,0,0,1,1.43-7.57A9,9,0,0,0,87,651.26l5.5-8A5.77,5.77,0,0,0,87,645.94c-.66-4.23,6-7.61,4.44-11.65a1.93,1.93,0,0,0-.76-1c-1-.61-2.39.17-2.92,1.15s-.6,2.13-1.17,3.09C86,635.19,87.78,633,89.27,631s2.72-4.73,1.13-6.68A9.39,9.39,0,0,0,87.18,631a15,15,0,0,1-.13-9.15c.67-2.19,1.83-4.56.72-6.61s-4.33-2.7-6.58-1.67a7.29,7.29,0,0,0-3.93,5.56,19.92,19.92,0,0,0,.48,6.85,11.3,11.3,0,0,1-3.29-8.69,44.53,44.53,0,0,0-2.19,13.39,10.23,10.23,0,0,1-2.9-5.72A37.16,37.16,0,0,0,73.29,638a8.59,8.59,0,0,1-4.79-4.42,22.21,22.21,0,0,0,2.86,14.3,28.54,28.54,0,0,1-4.81-5.95,41.83,41.83,0,0,0-.92,16.89,90.09,90.09,0,0,0-3.68-11.26c-2.28,1-3,3.71-2.67,6s1.34,4.5,1.43,6.82A9.3,9.3,0,0,1,55.1,669a34.13,34.13,0,0,0,.21-16.62,28.11,28.11,0,0,0-3.47,13.8,21.57,21.57,0,0,1,.82-17.31,26.2,26.2,0,0,1-8.56,2.31c-3,.12-6.26-1-7.75-3.37,5.13,1.48,11.16-.23,14.41-4.1a5,5,0,0,0-4.66.76,82.05,82.05,0,0,1,25.16-30.52,5.56,5.56,0,0,0,2-2.09,1.75,1.75,0,0,0-1-2.35,2.49,2.49,0,0,0-1.27,0c-3.42.85-5.06,4.32-6,7.42a18.51,18.51,0,0,1,.37-8.9L61,619.21l-2.53-9a13.44,13.44,0,0,0,.9,14.69A13.94,13.94,0,0,1,54,612.94a52.66,52.66,0,0,0-3.89,11.27,52.64,52.64,0,0,1-1-12.39,10.66,10.66,0,0,0-3.74,12,8.9,8.9,0,0,1-2.86-7.71,19.29,19.29,0,0,0-1.7,11.48A7.35,7.35,0,0,1,38,620.33a11.61,11.61,0,0,0-2.22,9.84,6.46,6.46,0,0,1-2.85-4.7,35.25,35.25,0,0,0-7.12,13c.35-1.2-2.2-5.4-2.42-7.08a19.31,19.31,0,0,1,2.78-12.93,12.3,12.3,0,0,0-9.25,4.16c10.7-11,26.47-17.87,42.71-18.51,2-.08,4-.09,5.76-1C69.56,601,69,596,66.68,592.9c-2.58-3.5-7-5.71-11.22-7.17-8.15-2.8-17.68-3.73-25.24.11-4.25,2.16-7.78,6.56-6.4,10.83a16.28,16.28,0,0,1-1.14-6.38c0-.87.68-6.82,1.93-6.9a13.16,13.16,0,0,0-9.71,5.27,36.68,36.68,0,0,1,6.43-9.52,17.51,17.51,0,0,0-12.4,5.21,18.14,18.14,0,0,1,6.2-7.37,17.67,17.67,0,0,0-8,2.8l9.68-6.23a14.68,14.68,0,0,0-12,3.83c6.82-6.72,12.88-7.47,22.82-6.56a21.26,21.26,0,0,0-14.68-3.39c7.45-2.39,15.69-.74,23.41.93A29.48,29.48,0,0,0,16.6,563c13.22.37,28.19,1.8,36.32,11.34l-2.8-5a36.49,36.49,0,0,1,12.19,12.34c.62,1,1.37,2.25,2.65,2.42,1.87.24,3-2.18,2.08-3.68s-2.93-2.14-4.78-2.49a4,4,0,0,1,4.55-.06,9.57,9.57,0,0,0-6.46-3.83,2.85,2.85,0,0,1,3.76.27,8,8,0,0,0-7.81-3.87,5.72,5.72,0,0,1,5.65-1.44c-.91-2.79-4.57-4.58-7.61-3.71a7.36,7.36,0,0,1,6.42-1.83c-.2-2.53-5-3.15-5.94-.75a6.19,6.19,0,0,1,3.16-5c-1.16-1-3.18-.62-4.28.42a8,8,0,0,0-1.9,3.92,13.9,13.9,0,0,1,1.07-8.55c-1.34-1-3.67-.18-4,1.34l1-4.13-9.55-.64a23.92,23.92,0,0,1,6.43-2,19,19,0,0,0-7.87-8.67,18.31,18.31,0,0,1,8.75,6.3,8.22,8.22,0,0,0,1.56-6l3.87,5A6.5,6.5,0,0,0,51.19,538c5.74,2.1,9.86,7.47,10,13.08l1-8.42a85.63,85.63,0,0,1,13.07,39c.15,2,1.58,4.75,3.5,3.83a2.71,2.71,0,0,0,1.16-2.6,23.93,23.93,0,0,0-4.49-14.12,4.56,4.56,0,0,1,4.57.86,8.86,8.86,0,0,0-6.78-6.83,9,9,0,0,1,5.5-.07,9.85,9.85,0,0,0-7-5.36,16.85,16.85,0,0,1,6,.07,11.65,11.65,0,0,0-7.82-6.63,7.25,7.25,0,0,1,7.37-.15c0-4.24-4.93-7.91-9.49-7.07a8.15,8.15,0,0,1,8.58-.85,16.64,16.64,0,0,0-10-4.11l8.19-1.55A36.85,36.85,0,0,0,56.2,521a83.73,83.73,0,0,1,19.23,10.07c.31.22.9-6.77.72-7.53.55,4.09,1.46,8.22,2.2,12.31a15.48,15.48,0,0,0,3.38-4.17A26,26,0,0,1,81.4,545,19.66,19.66,0,0,0,88,531.89C86.67,548.09,84.77,564.34,84,580.58Z" transform="translate(23.11 -145.5)"/><path class="cls-61" d="M65.81,588.3c3.05-7.22,3.9-16.86,6.28-24.68a114.42,114.42,0,0,1,10.26-24.36c3.66-6.28,8.59-12.36,15.14-14A63.49,63.49,0,0,1,86,544.64a59.52,59.52,0,0,1,18.11-7.75c2.46-.59,5.55-.73,6.85,1.61a116.23,116.23,0,0,1-27.81,9.77C90,546.36,97,544.43,104,544.08s14.34,1,20.25,5.12l-26.79,1.88a9,9,0,0,1,7.08,6.21,21.16,21.16,0,0,0-11-1.12c3.36.83,5.82,4.71,5.4,8.51a11.39,11.39,0,0,0-17.05-2.41l15.52,3.89a28.26,28.26,0,0,0-15.71,2.77,42.15,42.15,0,0,0,14.91,3.89l-15.52,2.34A21.53,21.53,0,0,1,91.4,580a18.34,18.34,0,0,0-10.49-.27,6.16,6.16,0,0,0,4.92,4.67,12.15,12.15,0,0,0-7.36,3.43,2.11,2.11,0,0,0-.77,1.34,1.36,1.36,0,0,0,1.59,1.29,4,4,0,0,0,1.95-1.25l32.41-31.11a18.12,18.12,0,0,0-2.45,9,37.89,37.89,0,0,1,12-8.32,23.19,23.19,0,0,0-5.79,7.26A22.07,22.07,0,0,1,134.87,565a27.24,27.24,0,0,0-13.62,3.58,26,26,0,0,1,14.58,2.11,13.13,13.13,0,0,0-7.81,1.61,17.88,17.88,0,0,0,11.3,1.09,4.37,4.37,0,0,1-3.13,2.45,19,19,0,0,1,6.23,3.18,24.32,24.32,0,0,0-12-1.32,16.45,16.45,0,0,1,10.81,7.45,25.88,25.88,0,0,0-9.41-3.55,59.05,59.05,0,0,0,8.32,8A20.9,20.9,0,0,1,133,587l3.91,6.88a36.51,36.51,0,0,0-11.53-7.79,17.83,17.83,0,0,0,4.69,7.83,23.47,23.47,0,0,1-6.5-5,17.84,17.84,0,0,1-.55,5.77c-2.07-6.46-7.69-11.29-13.89-11.93l2.53,6.6-7.65-3.9a13.22,13.22,0,0,0,2.68,6.91A13.86,13.86,0,0,1,99,591l-.37,4.84A12.15,12.15,0,0,0,90,593.73a4.93,4.93,0,0,0,1.54,3.53,3.66,3.66,0,0,0-4,2.42c4.94,1.21,10-.7,15-1.94a57.88,57.88,0,0,1,29,.21,22.12,22.12,0,0,0-9.66,3,80,80,0,0,1,11.36,1.27c-3.91.49-7.82.92-11.73,1.37,2.07-.2,7.78,5.88,9.62,7.36l-5-1.32.75,4.74a12.48,12.48,0,0,0-6.39-6c.08,0,1.43,3.79,2.29,4.4-2.22.61-4-3.81-6.14-2.35-.94.64-.93,2.26-.27,3.22a5.85,5.85,0,0,0,2.76,1.84c6.54,2.73,13,5.82,18.74,10.19,5.37,4.09,10.84,10.16,13.52,17a27.17,27.17,0,0,0-9-5.65c2.23,2.62,3,6,4.61,9s3.61,6.26,4.89,9.63c-6-1.88-11.45-14.63-13.4-20.68-1.62.58-1.36,3.18-.76,4.93l4.16,12A26.88,26.88,0,0,0,135,642.8l-.6,3.06a60.25,60.25,0,0,0-4.56-13.91l-.42,10.85q-1.08-5.46-2.61-10.78c-.39-1.35-1.8-2.95-2.63-1.84a2.26,2.26,0,0,0-.15,1.74l1.36,7.38a31.74,31.74,0,0,1-3.58-8.61l-.82,8.63-3.3-9.51c-.22-.63-.5-1.34-1.09-1.56-1.2-.44-2,1.56-1.66,2.91s1.17,2.69.77,4c-1.82-4.25-5.7-13.78-11.38-11.43A2.48,2.48,0,0,0,103,625c-.68,1.46.62,3,1.79,4l17.69,14.88-3,.49c1.8-.29,6.75,19,7.27,21.11a140.24,140.24,0,0,1,3.85,24.77,8.85,8.85,0,0,0-3.7-6,8.51,8.51,0,0,0-1,7.06,35.63,35.63,0,0,1-.35-16.81,33.14,33.14,0,0,0-3.66,7.84,30.27,30.27,0,0,1,1.29-12.47l-2.6,4.31.77-15.82a7.11,7.11,0,0,0-2.06,7,79,79,0,0,1-2.64-14.86,38.63,38.63,0,0,0-3.69,8.55,28.3,28.3,0,0,1-.83-6.1c-.22-2-.82-4.22-2.34-5.4s-4.13-.69-4.68,1.3a5.15,5.15,0,0,0,.82,3.7,31.53,31.53,0,0,0,10.17,11.24l-5.59-2.35a50.3,50.3,0,0,1,4.66,7.83c.79,1.65,1.82,6.81,3,7.79-1.4-1.25-2.78-2.86-4.44-3.54.35,7.19,3,13.24.07,20.52a53.52,53.52,0,0,0-2.57-14.9q-2,4.19-4.31,8.15c1.45-2.44,1.52-6.89,1.23-9.59a5.44,5.44,0,0,1-4.77,1.91,9.13,9.13,0,0,0,2.36-5.77l-4.55.41a36.65,36.65,0,0,0,4.59-8.5c-1.73-.69-3.77.32-4.88,2a10.45,10.45,0,0,0-1.44,5.84c-.77-3.57.13-6.63,1-10-.95,0-4.07,1.4-4.14,2.85.2-4.1,1.54-10.51.37-14.22-2.44.8-3.93,4.1-3.37,6.77a46.21,46.21,0,0,1-.46-13.34,9.67,9.67,0,0,0-2.65,10.14c-.46-5.73-1-11.54-2.87-16.87-2.07-5.8-5.43-9.17-10.16-12.24,2.34,3.92,3.34,8.62,4.46,13.16a185,185,0,0,0,19.9,49.09L94.4,683.6a18.34,18.34,0,0,0,6.77,12.11,11.58,11.58,0,0,1-7.89-6.07,22.06,22.06,0,0,1-4.5,14.88,33.88,33.88,0,0,0,1.4-17.29l-5.91,12.52a24.57,24.57,0,0,0,.28-11A6.87,6.87,0,0,0,82,693.68a40.46,40.46,0,0,0,.73-12,10.84,10.84,0,0,0-4,8,48.38,48.38,0,0,1,2.73-14.49c-2.26.05-4.06,3-3.23,5.33a11.23,11.23,0,0,1,.74-9.34,8.68,8.68,0,0,0-3.73,2.34L80,663.19a5.81,5.81,0,0,0-5.28,3.88c-1-5,5.26-9.92,3.37-14.63a2.22,2.22,0,0,0-.84-1.12c-1.06-.62-2.36.49-2.81,1.74s-.4,2.65-.88,3.89c-.84-2.77.75-5.67,2.05-8.26s2.28-6.06.52-8.22a13,13,0,0,0-2.6,8.45,21.85,21.85,0,0,1-1-11.06c.47-2.73,1.41-5.74.12-8.09S68.13,627,66,628.53s-3.25,4.4-3.42,7.2a28.93,28.93,0,0,0,1.1,8.24,14.89,14.89,0,0,1-4.07-10.13,65.68,65.68,0,0,0-1,16.47,12.9,12.9,0,0,1-3.41-6.57,50.75,50.75,0,0,0,5.11,15.37,8.94,8.94,0,0,1-5.18-4.78,31.12,31.12,0,0,0,4.14,17A32.22,32.22,0,0,1,54,664.67a61.56,61.56,0,0,0,.61,20.56A122.14,122.14,0,0,0,49.88,672c-2.18,1.49-2.63,4.84-2.12,7.59s1.74,5.29,2,8.08a12.21,12.21,0,0,1-4.81,11,50,50,0,0,0-1.3-20.14,41,41,0,0,0-2.21,17.12,31.41,31.41,0,0,1-.75-21.06c-2.63,1.65-5.34,3.33-8.32,3.82s-6.33-.44-8-3.15c5.25,1.18,11.1-1.61,14-6.68a4.4,4.4,0,0,0-4.57,1.48,104.09,104.09,0,0,1,22.31-39.95,6.8,6.8,0,0,0,1.79-2.77c.28-1.1-.18-2.51-1.19-2.73a2.1,2.1,0,0,0-1.26.21c-3.33,1.44-4.65,5.84-5.36,9.71a27.18,27.18,0,0,1-.44-10.82l-3.28,14L43,627.17a19.09,19.09,0,0,0,2.22,17.67,17.85,17.85,0,0,1-6.42-13.78A76.06,76.06,0,0,0,36,645.17a76.41,76.41,0,0,1-2.09-14.88,15.05,15.05,0,0,0-2.64,15,11.73,11.73,0,0,1-3.55-9,28.3,28.3,0,0,0-.65,14.1,9.57,9.57,0,0,1-3.49-8.46,16.81,16.81,0,0,0-1.32,12.17A7.83,7.83,0,0,1,19,648.72a48.46,48.46,0,0,0-5.92,16.62c.24-1.49-2.68-6.28-3.06-8.28a28.16,28.16,0,0,1,1.6-16,12.17,12.17,0,0,0-8.84,6.15c9.67-14.64,24.76-24.79,40.89-27.5,2-.33,4-.59,5.66-1.86,3.94-3.07,2.89-9.1.33-12.58-2.89-3.93-7.49-6.08-11.83-7.34-8.38-2.42-18-2.41-25.14,3.14-4,3.12-7.16,8.87-5.39,13.87a23.07,23.07,0,0,1-1.71-7.59c-.05-1.06.06-8.33,1.29-8.59a13.55,13.55,0,0,0-9.2,7.54A48.68,48.68,0,0,1,3.22,594,17.08,17.08,0,0,0-8.66,601.8a22.9,22.9,0,0,1,5.51-9.67,16.63,16.63,0,0,0-7.7,4.35l9.08-8.7a13.74,13.74,0,0,0-11.65,6.07c6.19-8.95,12.16-10.58,22.15-10.66a17.92,17.92,0,0,0-14.93-2.35c7.21-3.78,15.57-2.77,23.42-1.67A25,25,0,0,0-3,575.09c13.2-1.12,28.25-1.18,37.22,9.4L31,578.8a38.9,38.9,0,0,1,13.27,13.48c.71,1.19,1.57,2.56,2.86,2.61,1.89.07,2.8-3,1.74-4.71s-3.11-2.24-5-2.45a3.46,3.46,0,0,1,4.52-.62,8.93,8.93,0,0,0-6.79-3.87,2.49,2.49,0,0,1,3.77-.12,7.31,7.31,0,0,0-8.13-3.75,5.25,5.25,0,0,1,5.5-2.41,6,6,0,0,0-7.92-3.59,6.8,6.8,0,0,1,6.23-3c-.43-3-5.3-3.21-6-.2a8.21,8.21,0,0,1,2.7-6.43c-1.25-1.08-3.22-.37-4.23,1a11.11,11.11,0,0,0-1.54,5,20.39,20.39,0,0,1,.29-10.47c-1.42-1-3.67.22-3.84,2.09l.67-5.12-9.57.37a22.12,22.12,0,0,1,6.23-3.24,20.81,20.81,0,0,0-8.63-9.56,17.79,17.79,0,0,1,9.29,6.58,11.91,11.91,0,0,0,1-7.44l4.31,5.62a8.76,8.76,0,0,0-2.54-8c5.91,1.85,10.51,7.87,11.18,14.64L40.68,545a115.4,115.4,0,0,1,16.56,45.71c.33,2.38,2,5.56,3.84,4.22.91-.67,1-2.09.92-3.29A32.36,32.36,0,0,0,56.25,575a3.89,3.89,0,0,1,4.64.5,9.46,9.46,0,0,0-7.37-7.46,7.61,7.61,0,0,1,5.48-.75,9.76,9.76,0,0,0-7.49-5.65,14,14,0,0,1,5.94-.62A11.86,11.86,0,0,0,49,554a6.23,6.23,0,0,1,7.33-1.07c-.38-5.13-5.62-9-10.09-7.42a7.14,7.14,0,0,1,8.47-2.06,14.58,14.58,0,0,0-10.36-3.78l8-2.85a37.76,37.76,0,0,0-19.71-17.26,75.5,75.5,0,0,1,20.07,9.89c.33.23.29-8.31,0-9.2.91,4.88,2.19,9.78,3.31,14.64a19.75,19.75,0,0,0,3-5.45A38.14,38.14,0,0,1,60,545.55a27.15,27.15,0,0,0,5.41-16.68C65.52,548.65,65.1,568.55,65.81,588.3Z" transform="translate(23.11 -145.5)"/><path class="cls-60" d="M62.28,599.19c2.73-6.54,2.86-14.93,4.82-21.92a89.7,89.7,0,0,1,9.16-22.06c3.46-5.79,8.31-11.54,15.27-13.68a54.21,54.21,0,0,1-10.89,17.94,74.61,74.61,0,0,1,19-8.56c2.61-.76,6-1.21,7.55.68A149.59,149.59,0,0,1,77.84,562.9c7.29-2.36,14.64-4.74,22.26-5.78s15.61-.66,22.35,2.31l-28.86,4.4a9.39,9.39,0,0,1,8.17,4.62,28.59,28.59,0,0,0-12.05.19c3.71.37,6.69,3.46,6.54,6.78-4.42-4.63-13.62-4.79-18.67-.31l17.12,1.74a37.79,37.79,0,0,0-16.79,4,55.41,55.41,0,0,0,16.47,1.81l-16.63,3.63a26.35,26.35,0,0,1,11.58,3.13,24.88,24.88,0,0,0-11.38.85,6.27,6.27,0,0,0,5.71,3.51A14.93,14.93,0,0,0,76,597.51a1.79,1.79,0,0,0-.73,1.23c0,.72,1,1.13,1.83,1a4.56,4.56,0,0,0,2-1.28l32.61-30.18a13.36,13.36,0,0,0-1.92,8,43,43,0,0,1,12.38-8.42,21.75,21.75,0,0,0-5.69,6.86,29.69,29.69,0,0,1,18.77-2.78,35.8,35.8,0,0,0-14.46,4.5,34.89,34.89,0,0,1,16,.3,17.43,17.43,0,0,0-8.33,2.2,24.09,24.09,0,0,0,12.33-.23,4.74,4.74,0,0,1-3.19,2.43,23,23,0,0,1,7,2.1,32.85,32.85,0,0,0-13.11.11,18.43,18.43,0,0,1,12.31,5.3,32.84,32.84,0,0,0-10.48-2.08,60.09,60.09,0,0,0,9.66,6.06,26.63,26.63,0,0,1-8-1.52l4.79,5.52a41.38,41.38,0,0,0-13.12-5.52,15.19,15.19,0,0,0,5.71,6.26,25.67,25.67,0,0,1-7.44-3.62,12.43,12.43,0,0,1-.13,5c-2.76-5.35-9.24-8.93-16-8.84l3.27,5.42-8.6-2.57a10.2,10.2,0,0,0,3.45,5.67,18.47,18.47,0,0,1-8.39-.42v4.21a15.92,15.92,0,0,0-9.57-.88,3.91,3.91,0,0,0,1.95,2.88,4.18,4.18,0,0,0-4.11,2.5c5.44.53,10.82-1.64,16.1-3.23a78.72,78.72,0,0,1,31.42-2.83A28.7,28.7,0,0,0,124,604.31a108.6,108.6,0,0,1,12.41-.08c-4.19.83-8.4,1.61-12.6,2.4,2.23-.38,8.9,4.26,11,5.34l-5.53-.61,1.19,4a12.76,12.76,0,0,0-7.4-4.53c.09,0,1.85,3.12,2.83,3.55-2.36.75-4.64-2.87-6.84-1.38a1.81,1.81,0,0,0,0,2.8,6.63,6.63,0,0,0,3.14,1.3c7.3,1.67,14.55,3.66,21.12,6.83,6.14,3,12.55,7.63,16,13.25a31.38,31.38,0,0,0-10.21-3.94c2.62,2,3.75,4.84,5.72,7.3s4.41,5,6.07,7.79c-6.66-1-13.58-11.42-16.18-16.43-1.71.67-1.22,2.89-.43,4.32l5.47,9.95a24.46,24.46,0,0,0-8.13-7.2l-.41,2.7a45,45,0,0,0-6.06-11.51l.42,9.39a93.88,93.88,0,0,0-3.69-9c-.53-1.12-2.19-2.35-3-1.32a1.6,1.6,0,0,0,0,1.52L131,637a24.69,24.69,0,0,1-4.57-7l-.19,7.52-4.34-7.85a2.1,2.1,0,0,0-1.3-1.23c-1.33-.26-2,1.55-1.57,2.68s1.48,2.19,1.16,3.39c-2.31-3.47-7.28-11.29-13.25-8.66a2.61,2.61,0,0,0-1.37,1.16c-.61,1.33.92,2.54,2.26,3.26l20.36,11-3.22.74c1.93-.44,8.84,15.7,9.57,17.44a98.51,98.51,0,0,1,6.17,20.94,7.63,7.63,0,0,0-4.5-4.81,6.12,6.12,0,0,0-.55,6.19,24.73,24.73,0,0,1-1.74-14.45,26.58,26.58,0,0,0-3.34,7.14,21.18,21.18,0,0,1,.4-10.88l-2.47,4L128,653.74a5.41,5.41,0,0,0-1.67,6.28,55.8,55.8,0,0,1-4.05-12.53,30.44,30.44,0,0,0-3.31,7.75c-.87-1.59-1-3.43-1.39-5.17a6.17,6.17,0,0,0-3-4.41c-1.74-.86-4.53-.16-5,1.61-.27,1.12.44,2.2,1.19,3.1A30.63,30.63,0,0,0,122.8,659l-6.24-1.44a42.68,42.68,0,0,1,5.68,6.26c1,1.34,2.52,5.68,3.82,6.41-1.62-.93-3.24-2.17-5.1-2.59,1,6.16,4.29,11.1,1.73,17.67a37.82,37.82,0,0,0-4-12.57,76.93,76.93,0,0,1-4,7.47c1.37-2.25,1.09-6.09.56-8.39a6.77,6.77,0,0,1-5,2.15,7.18,7.18,0,0,0,2.1-5.21l-4.89.83a30.5,30.5,0,0,0,4.29-7.8,5.27,5.27,0,0,0-5.13,2.21,7.65,7.65,0,0,0-1.09,5.18c-1.13-3-.4-5.73.26-8.73-1,.11-4.29,1.63-4.25,2.88-.12-3.55.82-9.22-.75-12.29a5.09,5.09,0,0,0-3.11,6.19,31.93,31.93,0,0,1-1.57-11.45,7.3,7.3,0,0,0-2,9c-1-4.89-2-9.84-4.47-14.24-2.71-4.79-6.62-7.34-12-9.49,2.85,3.14,4.31,7.08,5.89,10.88A143.2,143.2,0,0,0,109,682.16l-8.08-3.8a15.4,15.4,0,0,0,8.31,9.73,12.57,12.57,0,0,1-9-4.42A16.57,16.57,0,0,1,96.52,697a23.7,23.7,0,0,0,.12-15l-5.39,11.4a17.05,17.05,0,0,0-.58-9.49,5.72,5.72,0,0,0-2.39,4.5,28,28,0,0,0-.17-10.42,8.93,8.93,0,0,0-3.68,7.29,34.47,34.47,0,0,1,1.79-12.77c-2.44.28-4.15,3-3.07,4.93a8,8,0,0,1,.05-8.13,10.08,10.08,0,0,0-3.86,2.4l4.33-9.38a6.39,6.39,0,0,0-5.4,3.89c-1.53-4.23,4.9-9.1,2.47-13a2,2,0,0,0-1-.88c-1.19-.43-2.52.67-2.9,1.79s-.22,2.33-.64,3.44c-1.13-2.3.36-5,1.56-7.33s2-5.45-.1-7.14a9.79,9.79,0,0,0-2.14,7.55,15.27,15.27,0,0,1-1.93-9.43c.29-2.4,1.07-5.1-.52-7s-5.16-1.89-7.36-.37a7.72,7.72,0,0,0-3.12,6.56,20.25,20.25,0,0,0,1.85,7,11.63,11.63,0,0,1-5.22-8.31,45.47,45.47,0,0,0,.28,14.29,10.59,10.59,0,0,1-4.22-5.31A38,38,0,0,0,62,660.78a9.2,9.2,0,0,1-6-3.58,22.66,22.66,0,0,0,5.86,14.2,30.1,30.1,0,0,1-6.31-5.15,42.57,42.57,0,0,0,2.32,17.65A92.21,92.21,0,0,0,51.77,673c-2.25,1.51-2.46,4.45-1.68,6.76s2.31,4.38,2.86,6.75a9.83,9.83,0,0,1-4.32,10,34.73,34.73,0,0,0-3-17.22,28.85,28.85,0,0,0-1,15,22,22,0,0,1-2.51-18.07c-2.72,1.69-5.52,3.42-8.71,4.16s-6.89.28-8.94-1.88C30.21,679,36.32,676,39,671.3A5.57,5.57,0,0,0,34.2,673a87.52,87.52,0,0,1,21-36.74,6,6,0,0,0,1.72-2.57,1.81,1.81,0,0,0-1.51-2.23,2.81,2.81,0,0,0-1.35.31c-3.5,1.59-4.56,5.51-5,8.92a18.84,18.84,0,0,1-1.34-9.28l-2.43,12.43-4.47-8.83a13.73,13.73,0,0,0,3.83,15,14.41,14.41,0,0,1-8.07-11.21,54.32,54.32,0,0,0-2,12.46,53.49,53.49,0,0,1-3.46-12.61,11,11,0,0,0-1.65,13.18,9.16,9.16,0,0,1-4.57-7.39,19.7,19.7,0,0,0,.43,12.22,7.58,7.58,0,0,1-4.46-6.92,11.92,11.92,0,0,0-.45,10.63,6.74,6.74,0,0,1-4-4.28,36.9,36.9,0,0,0-5.07,14.93c.14-1.31-3.41-5.13-4-6.82a19.8,19.8,0,0,1,.45-13.94,13.66,13.66,0,0,0-9.08,6.21C8,642.9,23.58,632.58,40.83,628.57c2.1-.49,4.31-.93,6-2.19,4-3.05,2.4-8.14-.65-10.88-3.44-3.08-8.6-4.46-13.41-5.09-9.27-1.21-19.65-.21-27,5.32-4.12,3.11-7,8.38-4.73,12.51a16.58,16.58,0,0,1-2.46-6.36c-.14-.9-.61-7.19.71-7.53a14.54,14.54,0,0,0-9.36,7.45,38.74,38.74,0,0,1,5-11.17,19.49,19.49,0,0,0-12.24,7.94,19.37,19.37,0,0,1,5.19-8.9,19.76,19.76,0,0,0-8,4.55l9.14-8.44a16.41,16.41,0,0,0-12.13,6.44c6-8.35,12.32-10.38,23.14-11.49a23.77,23.77,0,0,0-16.36-.48c7.51-4,16.64-4,25.23-3.87A32.89,32.89,0,0,0-13.28,595c14.21-2.34,30.51-4,41.08,4.23l-4-4.57a38.87,38.87,0,0,1,15.46,10.24c.86,1,1.9,2,3.31,2,2.05-.13,2.79-2.87,1.5-4.24S40.55,601,38.5,601a4.48,4.48,0,0,1,4.85-1,10.45,10.45,0,0,0-7.66-2.63,3.18,3.18,0,0,1,4.07-.5,8.76,8.76,0,0,0-9.11-2.39,6.4,6.4,0,0,1,5.76-2.65c-1.52-2.7-5.79-3.79-8.87-2.27A8.23,8.23,0,0,1,34,586.35c-.71-2.58-6-2.22-6.5.45A6.52,6.52,0,0,1,29.95,581c-1.44-.8-3.52,0-4.5,1.32a8.31,8.31,0,0,0-1.27,4.44,14.19,14.19,0,0,1-.53-9.06c-1.62-.72-4,.57-4,2.2L20,575.4,9.64,576.71a26.81,26.81,0,0,1,6.48-3.44A20.21,20.21,0,0,0,6,565.94a19.84,19.84,0,0,1,10.6,4.71,8.45,8.45,0,0,0,.5-6.51l5.12,4.39a6.67,6.67,0,0,0-3.4-6.6c6.55,1,12,5.69,13.29,11.45l-.55-8.91a87.75,87.75,0,0,1,21.62,37.67c.55,2,2.62,4.58,4.5,3.24.94-.67.91-1.91.74-2.93a24.52,24.52,0,0,0-7.56-13.67,5.09,5.09,0,0,1,5.06-.05c-1.18-3.21-4.73-5.55-8.59-5.66a10.19,10.19,0,0,1,5.87-1.21,10.63,10.63,0,0,0-8.57-4.09A19,19,0,0,1,51,576.6a12.51,12.51,0,0,0-9.67-5.24,8.14,8.14,0,0,1,7.85-1.68c-.83-4.38-6.82-7.16-11.53-5.35a9.15,9.15,0,0,1,9-2.65,18.42,18.42,0,0,0-11.53-2.18l8.46-3.29a39.54,39.54,0,0,0-22.74-12.83,92,92,0,0,1,22.54,6.44c.37.16-.36-7.19-.71-7.93,1.38,4.11,3.16,8.2,4.76,12.27a16.5,16.5,0,0,0,2.8-5A26.48,26.48,0,0,1,52.53,563,20.53,20.53,0,0,0,57,548C58.77,565.06,59.92,582.25,62.28,599.19Z" transform="translate(23.11 -145.5)"/><path class="cls-61" d="M56.9,616.9c.23-4.41-1.41-9.57-1.72-14.14a56.61,56.61,0,0,1,.75-14.87c.81-4.06,2.42-8.3,6-10.63a32.55,32.55,0,0,1-2.6,12.6,39.27,39.27,0,0,1,9.2-8c1.35-.85,3.19-1.62,4.49-.7a78.59,78.59,0,0,1-14.6,11.25,68.35,68.35,0,0,1,11.65-6.82,23.82,23.82,0,0,1,13.37-1.88l-15.75,6.94a6,6,0,0,1,5.66,1.63,15.69,15.69,0,0,0-6.91,1.89,4.81,4.81,0,0,1,5.16,3.19c-3.5-2.19-8.83-.93-10.83,2.56L71,598.42a20,20,0,0,0-8.86,4.94A31.37,31.37,0,0,0,72,602l-8.84,4.67a15.65,15.65,0,0,1,7.32.21,13.49,13.49,0,0,0-6.39,2.2,4.07,4.07,0,0,0,4,1.31,7.9,7.9,0,0,0-3.67,3.41,1.08,1.08,0,0,0-.17.86.91.91,0,0,0,1.25.31,2.44,2.44,0,0,0,.9-1.08L79,590.65a8.84,8.84,0,0,0,.54,5.2,23,23,0,0,1,5.41-7,12.48,12.48,0,0,0-1.87,5,16,16,0,0,1,10.25-4.46A18.87,18.87,0,0,0,86,594.34a19.31,19.31,0,0,1,9.27-2.16,9.22,9.22,0,0,0-4.36,2.57,13.23,13.23,0,0,0,7.07-2,2.59,2.59,0,0,1-1.34,2,13.78,13.78,0,0,1,4.47.26,18.05,18.05,0,0,0-7.54,2,11.46,11.46,0,0,1,8.19,1.44,19.08,19.08,0,0,0-6.47.27,39.25,39.25,0,0,0,6.82,2.29,15.43,15.43,0,0,1-4.92.25l3.9,2.68a25.66,25.66,0,0,0-8.7-1.45,10.63,10.63,0,0,0,4.58,3,16.21,16.21,0,0,1-5-1.13,8.69,8.69,0,0,1,1,3.1,11.46,11.46,0,0,0-11-3.06l3,2.84-5.49-.31a7.35,7.35,0,0,0,3.16,3,10.3,10.3,0,0,1-4.92,1l.86,2.58a9,9,0,0,0-5.7.87,2.79,2.79,0,0,0,1.72,1.48,2.27,2.27,0,0,0-1.86,2.14c3.25-.47,5.9-2.6,8.62-4.35a42.53,42.53,0,0,1,17.54-6.36,15.1,15.1,0,0,0-5.15,3.72,59.61,59.61,0,0,1,7.14-1.88c-2.25,1.12-4.51,2.22-6.78,3.33,1.21-.56,6,1.3,7.45,1.65l-3.32.44,1.51,2.28a8.3,8.3,0,0,0-5.2-1.69c.06,0,1.71,1.64,2.36,1.76-1.21.81-3.26-1.07-4.23.16a1.24,1.24,0,0,0,.55,1.72,4.11,4.11,0,0,0,2.08.34,60.17,60.17,0,0,1,13.59,1.08c4.15.91,8.81,2.83,12,5.76A19.27,19.27,0,0,0,114,625c1.93.86,3.16,2.42,4.8,3.64a53.43,53.43,0,0,1,5.1,3.88c-4,.37-10.18-5-12.7-7.69-.85.66-.11,1.95.64,2.71l5.2,5.29a16.72,16.72,0,0,0-6.16-3.22l.32,1.71a32.7,32.7,0,0,0-5.86-6.17l2.17,5.69q-1.87-2.58-4-5c-.54-.61-1.74-1.12-2-.37a1.11,1.11,0,0,0,.3.93l2.47,3.51a17.79,17.79,0,0,1-4.08-3.65l1.43,4.64-4.11-4.17a1.44,1.44,0,0,0-1-.56c-.82,0-.86,1.25-.35,1.87s1.31,1.13,1.36,1.91c-2-1.79-6.52-5.85-9.42-3.36a1.44,1.44,0,0,0-.55.92c-.08.91,1.05,1.42,2,1.67l14,3.74-1.7.92c1-.55,8.32,8.32,9.1,9.28a71.83,71.83,0,0,1,7.86,11.93,5.31,5.31,0,0,0-3.58-2.29,4.18,4.18,0,0,0,1,3.88,17.7,17.7,0,0,1-4-8.6,16.54,16.54,0,0,0-.46,4.86,14.76,14.76,0,0,1-2-6.73l-.61,2.81L106,640.66a3.54,3.54,0,0,0,.33,4.09,40.72,40.72,0,0,1-4.91-7.08,19.15,19.15,0,0,0-.32,5.24,14.42,14.42,0,0,1-1.86-3,4.4,4.4,0,0,0-2.61-2.27c-1.18-.27-2.65.57-2.53,1.72a2.71,2.71,0,0,0,1.32,1.73,20.39,20.39,0,0,0,8.65,3.54l-3.9,0a30,30,0,0,1,4.56,3c.84.67,2.62,3.11,3.52,3.37a12.1,12.1,0,0,0-3.47-.84c1.81,3.64,4.75,6.17,4.62,10.58a27.58,27.58,0,0,0-4.88-7.12,47,47,0,0,1-.78,5.17c.33-1.58-.62-3.9-1.4-5.23a3.59,3.59,0,0,1-2.45,2.05,4.55,4.55,0,0,0,.14-3.5l-2.65,1.23a18.57,18.57,0,0,0,.87-5.41,2.82,2.82,0,0,0-2.5,2.11,5.1,5.1,0,0,0,.43,3.34c-1.26-1.67-1.4-3.45-1.64-5.39-.57.22-2.14,1.63-1.86,2.39-.8-2.16-1.42-5.77-3-7.42a3.14,3.14,0,0,0-.52,4.25A23,23,0,0,1,86,640.46a4.81,4.81,0,0,0,.67,5.83,34,34,0,0,0-5.5-8.07c-2.54-2.53-5.32-3.52-8.86-4.05,2.29,1.5,3.94,3.7,5.63,5.8a103.29,103.29,0,0,0,23,20.91l-5.44-1.14a10.81,10.81,0,0,0,6.79,4.74,7.94,7.94,0,0,1-6.11-1.38,10.84,10.84,0,0,1,.61,8.69,16.58,16.58,0,0,0-3-9.24l-.77,7.78a12.1,12.1,0,0,0-2.28-5.73,3.51,3.51,0,0,0-.46,3.11A19.77,19.77,0,0,0,88,661.35a5.5,5.5,0,0,0-.63,5,23.46,23.46,0,0,1-1.58-8.09,2.2,2.2,0,0,0-.76,3.47,5.55,5.55,0,0,1-1.64-5,5.38,5.38,0,0,0-1.73,2l.57-6.39a3.49,3.49,0,0,0-2.32,3.18c-1.75-2.37,1-6.3-1.23-8.31a1.38,1.38,0,0,0-.76-.39c-.78-.09-1.32.78-1.31,1.52s.35,1.46.34,2.2c-1.12-1.24-.81-3.1-.61-4.72s0-3.64-1.52-4.36a6.4,6.4,0,0,0,.32,4.94,11,11,0,0,1-3-5.5c-.32-1.51-.43-3.28-1.73-4.2a3.33,3.33,0,0,0-4.32.86,4.79,4.79,0,0,0-.46,4.48,14.73,14.73,0,0,0,2.5,4,8.33,8.33,0,0,1-4.72-4.32,32.09,32.09,0,0,0,3.09,8.72,7.5,7.5,0,0,1-3.53-2.63,27.6,27.6,0,0,0,6.51,6.8,6,6,0,0,1-4.19-1.31,16.46,16.46,0,0,0,6.29,7.84A20.38,20.38,0,0,1,66.8,659a30.57,30.57,0,0,0,5,10.48A66.93,66.93,0,0,0,66,663.69c-1,1.25-.51,3.09.42,4.39s2.23,2.34,3,3.72a6.17,6.17,0,0,1-.44,6.77,25,25,0,0,0-5.28-10.11,20,20,0,0,0,2.49,9.33,15.72,15.72,0,0,1-5.16-10.7,15.51,15.51,0,0,1-4.17,3.83,5.65,5.65,0,0,1-5.55.16,8.54,8.54,0,0,0,7-6.57,3,3,0,0,0-2.43,1.78,53,53,0,0,1,4.55-25.6,3.54,3.54,0,0,0,.46-1.83,1.27,1.27,0,0,0-1.33-1.15,1.49,1.49,0,0,0-.72.39c-1.69,1.49-1.5,4.05-1.06,6.21a13.54,13.54,0,0,1-2.68-5.49l1.15,8L51.84,642a9.83,9.83,0,0,0,5.29,8.63,10.21,10.21,0,0,1-7-5.69,36.83,36.83,0,0,0,1.43,7.92A39,39,0,0,1,47,645.69,7.45,7.45,0,0,0,48.78,654a6.55,6.55,0,0,1-4.15-3.86,13.9,13.9,0,0,0,2.75,7.43,5.39,5.39,0,0,1-4-3.59,8.25,8.25,0,0,0,1.92,6.58,4.69,4.69,0,0,1-3.17-2,23.78,23.78,0,0,0,.14,9.9c-.19-.83-3-2.65-3.69-3.59a13.78,13.78,0,0,1-2.6-8.61,7.39,7.39,0,0,0-4,5.15,38.16,38.16,0,0,1,18.53-23.32,8.19,8.19,0,0,0,3-2.22c1.69-2.46-.29-5.34-2.61-6.57-2.62-1.38-5.88-1.47-8.78-1.15-5.59.62-11.38,2.76-14.47,7.23-1.74,2.51-2.34,6.18-.16,8.37a12.09,12.09,0,0,1-2.73-3.54c-.27-.53-1.83-4.31-1.14-4.72a8,8,0,0,0-3.87,5.95,24.22,24.22,0,0,1,.6-7.59A10.49,10.49,0,0,0,15,640.48a11.71,11.71,0,0,1,1.17-6.22,10.5,10.5,0,0,0-3.68,4L16,631.71a8.76,8.76,0,0,0-5.68,5.73c1.74-6,5-8.17,11-10.45a13.22,13.22,0,0,0-9.54,2.12c3.51-3.56,8.78-4.9,13.76-6.09a18.46,18.46,0,0,0-13.08,2.4C20.17,621.9,29.24,618.51,37,622l-3.23-2.21a25.57,25.57,0,0,1,11,4,2.84,2.84,0,0,0,2.31.71c1.16-.38,1-2.17,0-2.82a4.56,4.56,0,0,0-3.56-.15,2.42,2.42,0,0,1,2.59-1.33,6.35,6.35,0,0,0-5-.48,1.75,1.75,0,0,1,2.25-.9,5.21,5.21,0,0,0-5.74-.12,3.42,3.42,0,0,1,2.78-2.47,4.21,4.21,0,0,0-5.58-.08A4.39,4.39,0,0,1,38,613.18c-.94-1.48-3.92-.47-3.66,1.23a4.11,4.11,0,0,1,.19-3.92A2.06,2.06,0,0,0,32.2,612a5.43,5.43,0,0,0,.18,2.91,10,10,0,0,1-2.16-5.47,1.64,1.64,0,0,0-1.85,1.94l-.74-2.79-5.7,2.33a14.17,14.17,0,0,1,3-3.06,13.44,13.44,0,0,0-7.34-3,12.39,12.39,0,0,1,7.08,1.33,5.82,5.82,0,0,0-1.05-4.07L27.51,604a4.78,4.78,0,0,0-3.31-3.55,10.7,10.7,0,0,1,10,5.06l-2.15-5.38A63.48,63.48,0,0,1,52.26,620c.73,1.15,2.45,2.42,3.26,1.32a1.85,1.85,0,0,0-.18-1.9,17.73,17.73,0,0,0-7.17-7.27,2.82,2.82,0,0,1,2.91-.78A6.18,6.18,0,0,0,45,609.21a5.42,5.42,0,0,1,3.14-1.61,6.69,6.69,0,0,0-5.78-1.24,10.11,10.11,0,0,1,3.44-1.65,8,8,0,0,0-6.65-1.79,4.38,4.38,0,0,1,4.18-2.19,5.5,5.5,0,0,0-7.75-1.58,4.9,4.9,0,0,1,4.65-3,10.69,10.69,0,0,0-7.1.36l4.21-3.26a25.43,25.43,0,0,0-15.75-4.51,54.86,54.86,0,0,1,14.32.63c.25,0-1.68-4.35-2-4.76,1.64,2.32,3.51,4.56,5.26,6.82a10,10,0,0,0,.59-3.48,19.06,19.06,0,0,1,4.13,8.14,13.35,13.35,0,0,0-.46-9.82C47.88,596.49,52.07,606.86,56.9,616.9Z" transform="translate(23.11 -145.5)"/><path class="cls-60" d="M78.87,634.43C81,640,87,645.94,87,645.94,84,636,78.87,634.43,78.87,634.43Z" transform="translate(23.11 -145.5)"/><path class="cls-60" d="M58,586.43l3.42,7.27-1,1.3h0C54.61,595,58,586.43,58,586.43Z" transform="translate(23.11 -145.5)"/><polygon class="cls-60" points="69.95 468.7 73.64 470.75 71.19 467.26 69.95 468.7"/><path class="cls-61" d="M-14,582" transform="translate(23.11 -145.5)"/><line class="cls-52" x1="490.11" y1="533.5" x2="427.61" y2="513.83"/><line class="cls-52" x1="490.11" y1="552.5" x2="427.61" y2="532.83"/><line class="cls-52" x1="447.11" y1="503.5" x2="447.11" y2="556.5"/><line class="cls-52" x1="470.11" y1="509.5" x2="470.11" y2="564.5"/></g></svg>