<svg xmlns="http://www.w3.org/2000/svg" xmlns:xlink="http://www.w3.org/1999/xlink" width="80" height="35" viewBox="0 0 80 35">
    <defs>
        <path id="a" d="M70.58 32.124c-.884 1.02-2.68.867-2.974-.625-.141-.74.064-1.632.384-2.257.719-1.365 2.014-2.487 3.489-2.857 0 .842 0 1.951-.026 2.806-.026.944-.23 2.18-.872 2.933zm-14.273-20.16c.82.05 1.475.943 1.257 2.46-.27 1.798-1.77 3.724-3.475 4.157-.27-.637-.398-1.938-.244-3.213.282-2.334 1.487-3.456 2.462-3.405zM24.335 20.66c-1.27-1.684-1.218-3.724-.82-5.662 1.243 2.78 4.565 3.265 6.617 2.856-.27 2.143-1.398 4.017-3.347 4.017-1.09.013-1.886-.459-2.45-1.211zm4.489-7.855c.626.635 1.048 1.56 1.24 2.589.002 0 .004.012.004.012l-.003-.012c-1.435.203-2.82-.065-3.832-.842-.73-.574-.923-1.48-.615-2.028.448-.79 1.795-1.135 3.206.28zM9.279 2.348c.885-1.033 2.68-.867 2.962.625.141.727-.051 1.62-.371 2.244-.719 1.365-2.014 2.487-3.49 2.87 0-.855-.012-1.952.027-2.806.025-.944.23-2.193.872-2.933zm65.47 22.112c.013-4.438 0-8.875 0-13.313 0-1.097-3.168-1.16-3.27-.051 0 .446 0 .905-.013 1.352-.051 2.435-1.218 6.988-3.155 8.645-.526.447-1 .472-1.334.23-.295-.217-.372-.765-.372-1.237v-.612c0-2.742.013-5.573 0-8.314 0-1.097-3.167-1.174-3.27-.064 0 2.55 0 5.024.013 7.55-2.09 3.314-6.925 4.87-8.926.943 1.244.471 2.565.242 3.463-.23 1.551-.816 2.731-2.168 2.962-4.31.218-6.274-8.118-7.128-9.978-.74a10.638 10.638 0 0 0-.435 3.303 8.108 8.108 0 0 0 .628 2.908c-.68.663-1.462 1.122-2.244 1.096-1.027-.038-.924-1.3-.924-2.027v-4.782c0-.574 0-1.148-.051-1.709-.167-1.67-1.45-2.997-3.245-3.112-2.552-.038-4.348 2.321-5.232 4.91-.013-1.441 0-2.295 0-3.75-.013-1.083-2.95-1.16-3.283-.012-.424 1.454-1.809 2.589-3.104 3.265-.398-.957-.898-1.837-1.59-2.589-2.848-3.073-6.964-2.512-9.375.025-1.911 2.015-2.488 5.65-1.462 8.2-.757.893-1.796 1.62-2.719 1.581-.462-.025-.718-.293-.834-.714-.115-.408-.09-.892-.09-1.313 0-1.594-.012-3.188 0-4.782 0-.574 0-1.148-.05-1.709-.168-1.67-1.155-3.01-3.027-3.124-3.22-.14-4.515 2.958-5.464 5.508v-5.444c.68-.115 1.334-.281 1.988-.472 7.092-2.028 5.72-9.437.436-9.564-3.565-.077-5.681 2.257-5.655 5.802v2.295C3.854 7.908 2.892 6.25 2.353 5.18l-.23-.497a.337.337 0 0 0-.411-.204c-.14.038-.282.089-.423.14-.513.23-.936.625-1.141 1.148-.372.93 0 1.925.653 2.626C1.88 9.515 3.598 9.922 5.111 10c-.013 4.425 0 8.837 0 13.262.05.625.91.79 1.41.803.526.013 1.668-.153 1.68-.867l.039-.548c.218-1.964 2.116-9.819 4.514-9.832.59 0 .885.383.885.957v7c0 2.168 1.231 3.622 3.463 3.622 1.731.013 3.296-1.237 4.232-2.793.128.166.23.345.372.498a6.691 6.691 0 0 0 5.066 2.333c4.475-.063 6.771-3.889 6.605-7.65 1.038-.575 1.975-1.314 2.692-2.232v8.71c.052.624.95.79 1.45.802.526.013 1.667-.153 1.667-.867l.051-.548.154-1.454c.231-2.027 1.757-8.365 4.36-8.378.578 0 .873.383.873.957v7c0 2.168 1.231 3.622 3.475 3.622 1.552.013 2.963-.995 3.912-2.32 1.257 1.542 3.18 2.448 5.489 2.448 2.706 0 4.668-1.186 5.976-3.1.295 1.646 1.18 2.947 3.348 2.972 2.244.013 3.95-3.099 4.655-4.973v5.011c-.667.115-1.321.28-1.975.472-7.092 2.015-5.733 9.436-.45 9.551 3.579.09 5.682-2.244 5.67-5.789 0-.6-.013-1.721 0-2.308 1.269.191 2.244 1.862 2.77 2.933.09.166.166.331.23.497a.365.365 0 0 0 .424.204c.14-.038.282-.089.41-.153.526-.23.95-.612 1.154-1.147.372-.931 0-1.913-.667-2.615-1.064-1.135-2.796-1.53-4.296-1.62z"/>
    </defs>
    <g fill="none" fill-rule="evenodd">
        <mask id="b" fill="#fff">
            <use xlink:href="#a"/>
        </mask>
        <use fill="#FFF" xlink:href="#a"/>
        <g fill="#FF7E27" mask="url(#b)">
            <path d="M0 0h80v35H0z"/>
        </g>
    </g>
</svg>
